M48
; DRILL file {KiCad 9.0.2} date 2026-04-11T12:26:04+0200
; FORMAT={-:-/ absolute / inch / decimal}
; #@! TF.CreationDate,2026-04-11T12:26:04+02:00
; #@! TF.GenerationSoftware,Kicad,Pcbnew,9.0.2
; #@! TF.FileFunction,Plated,1,2,PTH
FMAT,2
INCH
; #@! TA.AperFunction,Plated,PTH,ComponentDrill
T1C0.0079
; #@! TA.AperFunction,Plated,PTH,ComponentDrill
T2C0.0080
; #@! TA.AperFunction,Plated,PTH,ViaDrill
T3C0.0118
; #@! TA.AperFunction,Plated,PTH,ComponentDrill
T4C0.0217
; #@! TA.AperFunction,Plated,PTH,ComponentDrill
T5C0.0236
; #@! TA.AperFunction,Plated,PTH,ViaDrill
T6C0.0315
; #@! TA.AperFunction,Plated,PTH,ComponentDrill
T7C0.0394
; #@! TA.AperFunction,Plated,PTH,ComponentDrill
T8C0.0402
%
G90
G05
T1
X4.1945Y-3.0177
X4.1945Y-3.061
X4.2161Y-2.9961
X4.2161Y-3.0394
X4.2161Y-3.0827
X4.2378Y-3.0177
X4.2378Y-3.061
X4.2594Y-2.9961
X4.2594Y-3.0394
X4.2594Y-3.0827
X4.2811Y-3.0177
X4.2811Y-3.061
T2
X4.4409Y-3.685
X4.4646Y-3.6535
X4.4646Y-3.7165
X4.4921Y-3.6535
X4.4921Y-3.685
X4.4921Y-3.7165
X4.5197Y-3.6535
X4.5197Y-3.7165
X4.5433Y-3.685
T3
X3.8228Y-4.4921
X3.8425Y-5.374
X3.8846Y-3.9724
X3.8945Y-3.9291
X3.9252Y-4.3346
X3.939Y-4.1634
X3.9437Y-3.887
X3.9567Y-3.4764
X3.9649Y-4.1813
X3.9726Y-3.9385
X3.9766Y-3.9704
X3.9772Y-3.8346
X3.9902Y-2.9724
X4.063Y-2.8976
X4.0669Y-4.4055
X4.0866Y-4.1772
X4.0906Y-3.7087
X4.126Y-3.2953
X4.1575Y-3.622
X4.189Y-2.8661
X4.2126Y-3.2756
X4.2323Y-3.5118
X4.2343Y-3.8563
X4.248Y-2.878
X4.2584Y-4.2165
X4.2584Y-4.2559
X4.311Y-3.5827
X4.3189Y-2.7953
X4.3189Y-4.9528
X4.3228Y-3.2756
X4.3228Y-4.3898
X4.3307Y-3.6693
X4.3386Y-4.9154
X4.3386Y-4.9843
X4.3425Y-2.9469
X4.3976Y-2.8426
X4.3992Y-4.6083
X4.4075Y-4.0
X4.4606Y-3.7953
X4.4736Y-4.6082
X4.4921Y-3.4882
X4.498Y-2.8386
X4.499Y-3.8002
X4.5Y-4.3268
X4.5079Y-4.9646
X4.5311Y-3.8164
X4.5433Y-3.8976
X4.5492Y-2.8622
X4.5591Y-3.8012
X4.5669Y-2.9134
X4.5669Y-3.9331
X4.5758Y-3.589
X4.5787Y-4.0167
X4.5812Y-3.62
X4.6122Y-4.1969
X4.6161Y-3.6732
X4.6161Y-3.7244
X4.6378Y-3.6181
X4.6654Y-3.4843
X4.6693Y-3.7205
X4.6713Y-3.2087
X4.6772Y-2.9409
X4.689Y-3.5709
X4.6908Y-3.6535
X4.7047Y-3.0591
X4.7067Y-3.0197
X4.7422Y-3.2195
X4.752Y-2.8622
X4.7697Y-3.1732
X4.7697Y-2.95
X4.7795Y-2.8366
X4.8425Y-2.7795
X4.8537Y-2.8943
X4.9291Y-2.9724
X4.9449Y-3.2283
X4.9449Y-4.2244
X4.9793Y-4.4488
X4.9795Y-4.5714
X4.9795Y-3.7497
X4.9882Y-2.9213
X5.0242Y-3.1588
X5.0276Y-3.6693
X5.0315Y-4.5787
X5.0531Y-4.2697
X5.0551Y-3.1142
X5.0787Y-3.8543
X5.0827Y-3.7008
X5.1063Y-4.3071
X5.1142Y-4.5236
X5.122Y-3.7913
X5.1555Y-3.8189
X5.1693Y-4.4488
X5.2028Y-3.0846
X5.2047Y-3.126
X5.2087Y-4.3071
X5.2323Y-4.4882
X5.2343Y-4.6437
X5.2355Y-4.4488
X5.248Y-3.0197
X5.2559Y-3.1772
X5.2559Y-3.9685
X5.2598Y-4.0886
X5.2638Y-4.5866
X5.267Y-4.4173
X5.2953Y-3.5984
X5.2953Y-3.7559
X5.2992Y-3.6378
X5.3071Y-4.1654
X5.3268Y-3.2008
X5.3268Y-4.502
X5.3346Y-4.0866
X5.3622Y-4.2913
X5.3661Y-3.2205
X5.3701Y-3.5984
X5.374Y-4.6516
X5.3898Y-2.937
X5.3898Y-3.0669
X5.4134Y-3.9646
X5.4291Y-4.098
X5.4331Y-4.1772
X5.4567Y-3.9646
X5.4961Y-4.0984
X5.5157Y-4.126
X5.5315Y-4.5984
X5.5315Y-4.6772
X5.5709Y-3.752
X5.5709Y-4.4528
X5.5709Y-4.5709
X5.6102Y-4.5787
X5.6299Y-3.1772
X5.6417Y-4.311
X5.6457Y-3.6693
X5.6535Y-4.6772
X5.6683Y-3.1242
X5.685Y-3.7087
X5.689Y-3.8543
X5.7165Y-4.5512
X5.7441Y-3.8228
X5.7598Y-3.9646
X5.7913Y-4.4528
X5.8031Y-3.1457
X5.8071Y-4.4921
X5.815Y-4.4213
X5.8268Y-4.6575
X5.8504Y-4.5945
X5.8583Y-2.937
X5.8585Y-3.0155
X5.874Y-3.2008
X5.8871Y-3.6181
X5.8937Y-3.5866
X5.9094Y-3.2165
X5.9094Y-4.1063
X5.9134Y-4.5
X5.9193Y-3.939
X5.9213Y-3.748
X5.9291Y-4.1496
X5.9567Y-4.6496
X5.9656Y-3.5394
X5.9843Y-3.0709
X6.0039Y-3.5906
X6.0039Y-3.6457
X6.0236Y-3.9213
X6.0394Y-4.374
X6.063Y-4.0906
X6.1654Y-3.8937
X6.1693Y-4.0906
X6.1732Y-3.0354
X6.2421Y-3.9685
X6.252Y-2.937
X6.2677Y-4.1457
X6.2795Y-3.9213
X6.315Y-3.0315
X6.3189Y-3.7441
X6.3189Y-4.0
X6.3189Y-4.4567
X6.3189Y-4.5709
X6.3346Y-3.5984
X6.3543Y-4.5748
X6.3622Y-3.1693
X6.3661Y-3.6378
X6.3661Y-4.0472
X6.3898Y-4.5748
X6.4094Y-3.1102
X6.4252Y-3.6732
X6.4291Y-4.3622
X6.4646Y-3.8543
X6.5079Y-3.8346
X6.5372Y-3.8513
X6.5394Y-4.2835
X6.5669Y-4.6378
X6.5748Y-4.4567
X6.5866Y-3.1299
X6.5866Y-4.3937
X6.5945Y-3.1024
X6.5984Y-4.7126
X6.626Y-2.937
X6.626Y-3.0157
X6.6417Y-4.0276
X6.645Y-4.6658
X6.6535Y-4.5512
X6.6682Y-4.2111
X6.685Y-3.6535
X6.687Y-3.1988
X6.7008Y-4.5
X6.7126Y-3.5906
X6.7126Y-3.9685
X6.7126Y-4.1181
X6.7165Y-3.7835
X6.7264Y-3.2185
X6.7362Y-4.6496
X6.748Y-4.6102
X6.7717Y-3.0748
X6.7795Y-3.6811
X6.7913Y-3.5906
X6.7913Y-3.7638
X6.811Y-4.0197
X6.8622Y-4.2992
X6.9094Y-3.2352
X6.9291Y-3.0118
X6.9764Y-4.0276
X7.0118Y-4.0157
X7.0984Y-4.4882
X7.1102Y-3.9173
X7.126Y-3.0827
X7.126Y-3.2352
X7.126Y-3.6811
X7.126Y-3.7283
X7.126Y-4.0315
X7.1299Y-4.0787
X7.1299Y-4.1142
X7.1299Y-4.2756
X7.1535Y-2.937
X7.1614Y-4.1496
X7.1693Y-4.5906
X7.1929Y-3.7953
X7.1929Y-4.0315
X7.2008Y-3.7362
X7.2008Y-3.9843
X7.2047Y-3.0787
X7.2244Y-4.1575
X7.2441Y-4.7756
X7.248Y-4.0906
X7.2559Y-4.4646
X7.2576Y-3.8403
X7.2638Y-4.126
X7.2913Y-3.5039
X7.2953Y-3.6732
X7.3504Y-4.1575
X7.3642Y-3.1989
X7.3661Y-4.3661
X7.374Y-4.5906
X7.374Y-4.7165
X7.378Y-3.1299
X7.3819Y-3.8661
X7.4016Y-4.3031
X7.4055Y-3.9764
X7.4173Y-4.3346
X7.4213Y-4.6969
X7.4291Y-4.0945
X7.4409Y-3.7087
X7.4567Y-3.2362
X7.4646Y-4.3307
X7.4803Y-3.4961
X7.4803Y-4.1339
X7.4921Y-3.7008
X7.4961Y-4.4528
X7.5079Y-3.5472
X7.5157Y-3.2283
X7.5315Y-3.2795
X7.5354Y-4.2874
X7.5394Y-4.6496
X7.5472Y-4.6102
X7.5551Y-3.0315
X7.5669Y-3.1969
X7.5669Y-3.5748
X7.5748Y-4.3346
X7.5777Y-4.1179
X7.5906Y-3.9646
X7.626Y-3.7205
X7.6457Y-3.8228
X7.6772Y-4.8189
T6
X5.187Y-3.5492
X5.7913Y-3.5512
X6.5765Y-3.5497
X7.4193Y-3.5177
T7
X3.8583Y-2.8803
X3.8583Y-2.9803
X3.8583Y-3.0803
X3.8583Y-3.2228
X3.8583Y-3.3228
X3.8583Y-3.4228
X3.8843Y-5.1457
X4.1248Y-4.5433
X4.1835Y-5.1457
X4.2248Y-4.5433
X4.2386Y-4.7677
X4.3248Y-4.5433
X4.3386Y-4.7677
X4.4248Y-4.5433
X4.4386Y-4.7677
X4.5248Y-4.5433
T8
X3.8976Y-4.5228
X3.8976Y-4.6228
X3.8976Y-4.7228
X3.8976Y-4.8228
T4
G00X4.9547Y-5.0295
M15
G01X4.9134Y-5.0295
M16
G05
G00X4.9547Y-5.3091
M15
G01X4.9134Y-5.3091
M16
G05
G00X4.9758Y-2.4508
M15
G01X4.9344Y-2.4508
M16
G05
G00X4.9758Y-2.7303
M15
G01X4.9344Y-2.7303
M16
G05
G00X5.835Y-5.0295
M15
G01X5.7937Y-5.0295
M16
G05
G00X5.835Y-5.3091
M15
G01X5.7937Y-5.3091
M16
G05
G00X5.8547Y-2.4508
M15
G01X5.8134Y-2.4508
M16
G05
G00X5.8547Y-2.7303
M15
G01X5.8134Y-2.7303
M16
G05
G00X6.7264Y-5.0295
M15
G01X6.685Y-5.0295
M16
G05
G00X6.7264Y-5.3091
M15
G01X6.685Y-5.3091
M16
G05
G00X6.7461Y-2.4508
M15
G01X6.7047Y-2.4508
M16
G05
G00X6.7461Y-2.7303
M15
G01X6.7047Y-2.7303
M16
G05
G00X7.6122Y-5.0295
M15
G01X7.5709Y-5.0295
M16
G05
G00X7.6122Y-5.3091
M15
G01X7.5709Y-5.3091
M16
G05
G00X7.6319Y-2.4508
M15
G01X7.5906Y-2.4508
M16
G05
G00X7.6319Y-2.7303
M15
G01X7.5906Y-2.7303
M16
G05
T5
G00X3.8569Y-3.7197
M15
G01X3.8254Y-3.7197
M16
G05
G00X3.8569Y-4.0598
M15
G01X3.8254Y-4.0598
M16
G05
G00X4.0274Y-3.7197
M15
G01X3.9841Y-3.7197
M16
G05
G00X4.0274Y-4.0598
M15
G01X3.9841Y-4.0598
M16
G05
M30
