%TF.GenerationSoftware,KiCad,Pcbnew,10.0.2*%
%TF.CreationDate,2026-05-12T16:12:51+02:00*%
%TF.ProjectId,SlimeVR_Dock,536c696d-6556-4525-9f44-6f636b2e6b69,rev?*%
%TF.SameCoordinates,Original*%
%TF.FileFunction,Paste,Top*%
%TF.FilePolarity,Positive*%
%FSLAX46Y46*%
G04 Gerber Fmt 4.6, Leading zero omitted, Abs format (unit mm)*
G04 Created by KiCad (PCBNEW 10.0.2) date 2026-05-12 16:12:51*
%MOMM*%
%LPD*%
G01*
G04 APERTURE LIST*
G04 Aperture macros list*
%AMRoundRect*
0 Rectangle with rounded corners*
0 $1 Rounding radius*
0 $2 $3 $4 $5 $6 $7 $8 $9 X,Y pos of 4 corners*
0 Add a 4 corners polygon primitive as box body*
4,1,4,$2,$3,$4,$5,$6,$7,$8,$9,$2,$3,0*
0 Add four circle primitives for the rounded corners*
1,1,$1+$1,$2,$3*
1,1,$1+$1,$4,$5*
1,1,$1+$1,$6,$7*
1,1,$1+$1,$8,$9*
0 Add four rect primitives between the rounded corners*
20,1,$1+$1,$2,$3,$4,$5,0*
20,1,$1+$1,$4,$5,$6,$7,0*
20,1,$1+$1,$6,$7,$8,$9,0*
20,1,$1+$1,$8,$9,$2,$3,0*%
G04 Aperture macros list end*
%ADD10C,0.000000*%
%ADD11RoundRect,0.225000X-0.250000X0.225000X-0.250000X-0.225000X0.250000X-0.225000X0.250000X0.225000X0*%
%ADD12R,1.700000X1.700000*%
%ADD13C,1.700000*%
%ADD14RoundRect,0.250000X0.325000X1.100000X-0.325000X1.100000X-0.325000X-1.100000X0.325000X-1.100000X0*%
%ADD15RoundRect,0.250000X0.250000X0.475000X-0.250000X0.475000X-0.250000X-0.475000X0.250000X-0.475000X0*%
%ADD16RoundRect,0.060000X0.440000X0.140000X-0.440000X0.140000X-0.440000X-0.140000X0.440000X-0.140000X0*%
%ADD17O,2.200000X0.950000*%
%ADD18R,2.030000X1.730000*%
%ADD19O,2.030000X1.730000*%
%ADD20RoundRect,0.150000X0.150000X-0.512500X0.150000X0.512500X-0.150000X0.512500X-0.150000X-0.512500X0*%
%ADD21O,0.200000X0.599999*%
%ADD22O,0.599999X0.200000*%
%ADD23RoundRect,0.200000X-0.200000X-0.275000X0.200000X-0.275000X0.200000X0.275000X-0.200000X0.275000X0*%
%ADD24RoundRect,0.200000X0.200000X0.275000X-0.200000X0.275000X-0.200000X-0.275000X0.200000X-0.275000X0*%
%ADD25RoundRect,0.250000X0.550000X-1.412500X0.550000X1.412500X-0.550000X1.412500X-0.550000X-1.412500X0*%
%ADD26RoundRect,0.150000X-0.425000X0.150000X-0.425000X-0.150000X0.425000X-0.150000X0.425000X0.150000X0*%
%ADD27RoundRect,0.075000X-0.500000X0.075000X-0.500000X-0.075000X0.500000X-0.075000X0.500000X0.075000X0*%
%ADD28O,2.100000X1.000000*%
%ADD29O,1.800000X1.000000*%
%ADD30R,2.413000X3.429000*%
%ADD31RoundRect,0.375000X-0.625000X-0.375000X0.625000X-0.375000X0.625000X0.375000X-0.625000X0.375000X0*%
%ADD32RoundRect,0.500000X-0.500000X-1.400000X0.500000X-1.400000X0.500000X1.400000X-0.500000X1.400000X0*%
%ADD33RoundRect,0.225000X0.250000X-0.225000X0.250000X0.225000X-0.250000X0.225000X-0.250000X-0.225000X0*%
%ADD34RoundRect,0.250000X0.595000X1.080000X-0.595000X1.080000X-0.595000X-1.080000X0.595000X-1.080000X0*%
%ADD35RoundRect,0.150000X0.687500X0.150000X-0.687500X0.150000X-0.687500X-0.150000X0.687500X-0.150000X0*%
%ADD36R,2.000000X2.000000*%
%ADD37C,2.000000*%
%ADD38C,0.350000*%
%ADD39O,1.600000X0.550000*%
%ADD40C,0.203200*%
%ADD41O,1.700000X0.600000*%
%ADD42O,1.400000X0.600000*%
%ADD43C,0.200000*%
G04 APERTURE END LIST*
D10*
%TO.C,U4*%
G36*
X114000000Y-94640000D02*
G01*
X112650000Y-94640000D01*
X112650000Y-93700000D01*
X114000000Y-93700000D01*
X114000000Y-94640000D01*
G37*
G36*
X114000000Y-93500003D02*
G01*
X112650000Y-93500003D01*
X112650000Y-92560002D01*
X114000000Y-92560002D01*
X114000000Y-93500003D01*
G37*
G36*
X115550000Y-94640000D02*
G01*
X114200000Y-94640000D01*
X114200000Y-93700000D01*
X115550000Y-93700000D01*
X115550000Y-94640000D01*
G37*
G36*
X115550000Y-93500003D02*
G01*
X114200000Y-93500003D01*
X114200000Y-92560002D01*
X115550000Y-92560002D01*
X115550000Y-93500003D01*
G37*
%TD*%
D11*
%TO.C,C1*%
X108260222Y-109242278D03*
X108260222Y-110792278D03*
%TD*%
D12*
%TO.C,J1_Monitor1*%
X98000000Y-86940000D03*
D13*
X98000000Y-84400000D03*
X98000000Y-81860000D03*
%TD*%
D14*
%TO.C,C23*%
X108575000Y-94100000D03*
X105625000Y-94100000D03*
%TD*%
D15*
%TO.C,C27*%
X114650000Y-90200000D03*
X112750000Y-90200000D03*
%TD*%
D11*
%TO.C,C10*%
X103207251Y-87907250D03*
X103207251Y-89457250D03*
%TD*%
D16*
%TO.C,J2*%
X124224999Y-128955001D03*
X124224999Y-129625001D03*
X124224999Y-130295001D03*
X124224999Y-130965001D03*
X124224999Y-131635001D03*
X124224999Y-132305001D03*
X124224999Y-132975001D03*
X124224999Y-133645001D03*
X126424999Y-133645001D03*
X126424999Y-132975001D03*
X126424999Y-132305001D03*
X126424999Y-131635001D03*
X126424999Y-130965001D03*
X126424999Y-130295001D03*
X126424999Y-129625001D03*
X126424999Y-128955001D03*
D17*
X125324999Y-134850001D03*
X125324999Y-127750001D03*
%TD*%
D18*
%TO.C,J1Fan1*%
X99000000Y-122500000D03*
D19*
X99000000Y-119960000D03*
X99000000Y-117420000D03*
X99000000Y-114880000D03*
%TD*%
D16*
%TO.C,J6*%
X169224999Y-128955001D03*
X169224999Y-129625001D03*
X169224999Y-130295001D03*
X169224999Y-130965001D03*
X169224999Y-131635001D03*
X169224999Y-132305001D03*
X169224999Y-132975001D03*
X169224999Y-133645001D03*
X171424999Y-133645001D03*
X171424999Y-132975001D03*
X171424999Y-132305001D03*
X171424999Y-131635001D03*
X171424999Y-130965001D03*
X171424999Y-130295001D03*
X171424999Y-129625001D03*
X171424999Y-128955001D03*
D17*
X170324999Y-134850001D03*
X170324999Y-127750001D03*
%TD*%
D20*
%TO.C,U3*%
X104756250Y-87568749D03*
X105706250Y-87568749D03*
X106656250Y-87568749D03*
X106656250Y-85293749D03*
X104756250Y-85293749D03*
%TD*%
D16*
%TO.C,J7*%
X169724999Y-63455001D03*
X169724999Y-64125001D03*
X169724999Y-64795001D03*
X169724999Y-65465001D03*
X169724999Y-66135001D03*
X169724999Y-66805001D03*
X169724999Y-67475001D03*
X169724999Y-68145001D03*
X171924999Y-68145001D03*
X171924999Y-67475001D03*
X171924999Y-66805001D03*
X171924999Y-66135001D03*
X171924999Y-65465001D03*
X171924999Y-64795001D03*
X171924999Y-64125001D03*
X171924999Y-63455001D03*
D17*
X170824999Y-69350001D03*
X170824999Y-62250001D03*
%TD*%
D21*
%TO.C,U4*%
X115699999Y-91950001D03*
X115300000Y-91950001D03*
X114899998Y-91950001D03*
X114499999Y-91950001D03*
X114100000Y-91950001D03*
X113699998Y-91950001D03*
X113299999Y-91950001D03*
X112900000Y-91950001D03*
X112499998Y-91950001D03*
D22*
X111949999Y-92799999D03*
X111949999Y-93200001D03*
X111949999Y-93600000D03*
X111949999Y-93999999D03*
X111949999Y-94400001D03*
D21*
X112499998Y-95249999D03*
X112899997Y-95249999D03*
X113299999Y-95249999D03*
X113699998Y-95249999D03*
X114099997Y-95249999D03*
X114499999Y-95249999D03*
X114899998Y-95249999D03*
X115300000Y-95249999D03*
X115699999Y-95249999D03*
D22*
X116250001Y-94400001D03*
X116250001Y-93999999D03*
X116250001Y-93600000D03*
X116250001Y-93200001D03*
X116250001Y-92799999D03*
%TD*%
D23*
%TO.C,R1*%
X105237500Y-112800000D03*
X106887500Y-112800000D03*
%TD*%
D24*
%TO.C,R24*%
X107925000Y-72200000D03*
X106275000Y-72200000D03*
%TD*%
D25*
%TO.C,C24*%
X111650000Y-80300000D03*
X111650000Y-75225000D03*
%TD*%
D12*
%TO.C,J1_Prog1*%
X98000000Y-73160000D03*
D13*
X98000000Y-75700000D03*
X98000000Y-78240000D03*
%TD*%
D14*
%TO.C,C22*%
X112775000Y-108000000D03*
X109825000Y-108000000D03*
%TD*%
D23*
%TO.C,R2*%
X97337500Y-109100000D03*
X98987500Y-109100000D03*
%TD*%
D24*
%TO.C,R3*%
X98967500Y-111100000D03*
X97317500Y-111100000D03*
%TD*%
D25*
%TO.C,C25*%
X104450000Y-80300000D03*
X104450000Y-75225000D03*
%TD*%
D11*
%TO.C,C11*%
X101607251Y-87907250D03*
X101607251Y-89457250D03*
%TD*%
D26*
%TO.C,J1_MainPW1*%
X102320000Y-95600000D03*
X102320000Y-96400000D03*
D27*
X102320000Y-97550000D03*
X102320000Y-98550000D03*
X102320000Y-99050000D03*
X102320000Y-100050000D03*
D26*
X102320000Y-101200000D03*
X102320000Y-102000000D03*
X102320000Y-102000000D03*
X102320000Y-101200000D03*
D27*
X102320000Y-100550000D03*
X102320000Y-99550000D03*
X102320000Y-98050000D03*
X102320000Y-97050000D03*
D26*
X102320000Y-96400000D03*
X102320000Y-95600000D03*
D28*
X101745000Y-94480000D03*
D29*
X97565000Y-94480000D03*
D28*
X101745000Y-103120000D03*
D29*
X97565000Y-103120000D03*
%TD*%
D16*
%TO.C,J3*%
X124760000Y-63455000D03*
X124760000Y-64125000D03*
X124760000Y-64795000D03*
X124760000Y-65465000D03*
X124760000Y-66135000D03*
X124760000Y-66805000D03*
X124760000Y-67475000D03*
X124760000Y-68145000D03*
X126960000Y-68145000D03*
X126960000Y-67475000D03*
X126960000Y-66805000D03*
X126960000Y-66135000D03*
X126960000Y-65465000D03*
X126960000Y-64795000D03*
X126960000Y-64125000D03*
X126960000Y-63455000D03*
D17*
X125860000Y-69350000D03*
X125860000Y-62250000D03*
%TD*%
D16*
%TO.C,J5*%
X147084999Y-63455001D03*
X147084999Y-64125001D03*
X147084999Y-64795001D03*
X147084999Y-65465001D03*
X147084999Y-66135001D03*
X147084999Y-66805001D03*
X147084999Y-67475001D03*
X147084999Y-68145001D03*
X149284999Y-68145001D03*
X149284999Y-67475001D03*
X149284999Y-66805001D03*
X149284999Y-66135001D03*
X149284999Y-65465001D03*
X149284999Y-64795001D03*
X149284999Y-64125001D03*
X149284999Y-63455001D03*
D17*
X148184999Y-69350001D03*
X148184999Y-62250001D03*
%TD*%
D12*
%TO.C,J1Temp1*%
X114930000Y-115400000D03*
D13*
X112390000Y-115400000D03*
X109850000Y-115400000D03*
X107310000Y-115400000D03*
X104770000Y-115400000D03*
%TD*%
D23*
%TO.C,R4*%
X111325000Y-110400000D03*
X112975000Y-110400000D03*
%TD*%
D16*
%TO.C,J4*%
X146584999Y-128955001D03*
X146584999Y-129625001D03*
X146584999Y-130295001D03*
X146584999Y-130965001D03*
X146584999Y-131635001D03*
X146584999Y-132305001D03*
X146584999Y-132975001D03*
X146584999Y-133645001D03*
X148784999Y-133645001D03*
X148784999Y-132975001D03*
X148784999Y-132305001D03*
X148784999Y-131635001D03*
X148784999Y-130965001D03*
X148784999Y-130295001D03*
X148784999Y-129625001D03*
X148784999Y-128955001D03*
D17*
X147684999Y-134850001D03*
X147684999Y-127750001D03*
%TD*%
D12*
%TO.C,J1_Control1*%
X107660000Y-121100000D03*
D13*
X110200000Y-121100000D03*
X112740000Y-121100000D03*
%TD*%
D16*
%TO.C,J9*%
X192224999Y-63455001D03*
X192224999Y-64125001D03*
X192224999Y-64795001D03*
X192224999Y-65465001D03*
X192224999Y-66135001D03*
X192224999Y-66805001D03*
X192224999Y-67475001D03*
X192224999Y-68145001D03*
X194424999Y-68145001D03*
X194424999Y-67475001D03*
X194424999Y-66805001D03*
X194424999Y-66135001D03*
X194424999Y-65465001D03*
X194424999Y-64795001D03*
X194424999Y-64125001D03*
X194424999Y-63455001D03*
D17*
X193324999Y-69350001D03*
X193324999Y-62250001D03*
%TD*%
D30*
%TO.C,L1*%
X109079000Y-85700000D03*
X114921000Y-85700000D03*
%TD*%
D31*
%TO.C,Q1*%
X106050000Y-97100000D03*
X106050000Y-99400000D03*
X106050000Y-101700000D03*
D32*
X112350000Y-99400000D03*
%TD*%
D33*
%TO.C,C13*%
X101607251Y-86357250D03*
X101607251Y-84807250D03*
%TD*%
%TO.C,C12*%
X103207251Y-86357250D03*
X103207251Y-84807250D03*
%TD*%
D14*
%TO.C,C30*%
X112775000Y-104700000D03*
X109825000Y-104700000D03*
%TD*%
D16*
%TO.C,J8*%
X191724999Y-128955001D03*
X191724999Y-129625001D03*
X191724999Y-130295001D03*
X191724999Y-130965001D03*
X191724999Y-131635001D03*
X191724999Y-132305001D03*
X191724999Y-132975001D03*
X191724999Y-133645001D03*
X193924999Y-133645001D03*
X193924999Y-132975001D03*
X193924999Y-132305001D03*
X193924999Y-131635001D03*
X193924999Y-130965001D03*
X193924999Y-130295001D03*
X193924999Y-129625001D03*
X193924999Y-128955001D03*
D17*
X192824999Y-134850001D03*
X192824999Y-127750001D03*
%TD*%
D34*
%TO.C,U2*%
X103800000Y-109100000D03*
D35*
X106437500Y-111100000D03*
X106437500Y-110100000D03*
X106437500Y-109100000D03*
X106437500Y-108100000D03*
X106437500Y-107100000D03*
X101162500Y-107100000D03*
X101162500Y-108100000D03*
X101162500Y-109100000D03*
X101162500Y-110100000D03*
X101162500Y-111100000D03*
%TD*%
D24*
%TO.C,R23*%
X112525000Y-72200000D03*
X110875000Y-72200000D03*
%TD*%
D36*
%TO.C,BZ1*%
X98660000Y-130700000D03*
D37*
X106260000Y-130700000D03*
%TD*%
D38*
X98000000Y-86940000D03*
X98000000Y-84400000D03*
X98000000Y-81860000D03*
D39*
X125324999Y-134850001D03*
X125324999Y-127750001D03*
D38*
X96840000Y-117420000D03*
X99000000Y-122500000D03*
X99000000Y-119960000D03*
X99000000Y-117420000D03*
X99000000Y-114880000D03*
D39*
X170324999Y-134850001D03*
X170324999Y-127750001D03*
D40*
X114100000Y-93600000D03*
D39*
X170824999Y-69350001D03*
X170824999Y-62250001D03*
D40*
X114100000Y-92799999D03*
X115400000Y-93600000D03*
X112800000Y-93600000D03*
X114100000Y-94400001D03*
D38*
X98000000Y-73160000D03*
X98000000Y-75700000D03*
X98000000Y-78240000D03*
D40*
X113400000Y-92800000D03*
X114800000Y-92800000D03*
D38*
X101245000Y-95910000D03*
X101245000Y-101690000D03*
D41*
X101745000Y-94480000D03*
D42*
X97565000Y-94480000D03*
D41*
X101745000Y-103120000D03*
D42*
X97565000Y-103120000D03*
D39*
X125860000Y-69350000D03*
X125860000Y-62250000D03*
X148184999Y-69350001D03*
X148184999Y-62250001D03*
D38*
X114930000Y-115400000D03*
X112390000Y-115400000D03*
X109850000Y-115400000D03*
X107310000Y-115400000D03*
X104770000Y-115400000D03*
D39*
X147684999Y-134850001D03*
X147684999Y-127750001D03*
D38*
X107660000Y-121100000D03*
X110200000Y-121100000D03*
X112740000Y-121100000D03*
D39*
X193324999Y-69350001D03*
X193324999Y-62250001D03*
D40*
X114800000Y-94400000D03*
X113400000Y-94400000D03*
D39*
X192824999Y-134850001D03*
X192824999Y-127750001D03*
D38*
X98660000Y-130700000D03*
X106260000Y-130700000D03*
D43*
X108740000Y-77750000D03*
X108740000Y-76650000D03*
X108190000Y-78300000D03*
X108190000Y-77200000D03*
X108190000Y-76100000D03*
X107640000Y-77750000D03*
X107640000Y-76650000D03*
X107090000Y-78300000D03*
X107090000Y-77200000D03*
X107090000Y-76100000D03*
X106540000Y-77750000D03*
X106540000Y-76650000D03*
M02*
