%TF.GenerationSoftware,KiCad,Pcbnew,9.0.2*%
%TF.CreationDate,2026-04-11T12:26:14+02:00*%
%TF.ProjectId,SlimeVR_Dock,536c696d-6556-4525-9f44-6f636b2e6b69,rev?*%
%TF.SameCoordinates,Original*%
%TF.FileFunction,Profile,NP*%
%FSLAX46Y46*%
G04 Gerber Fmt 4.6, Leading zero omitted, Abs format (unit mm)*
G04 Created by KiCad (PCBNEW 9.0.2) date 2026-04-11 12:26:14*
%MOMM*%
%LPD*%
G01*
G04 APERTURE LIST*
%TA.AperFunction,Profile*%
%ADD10C,0.050000*%
%TD*%
G04 APERTURE END LIST*
D10*
X96059704Y-135800296D02*
X96050296Y-71900296D01*
X194059745Y-59500000D02*
G75*
G02*
X196059800Y-61500255I-45J-2000100D01*
G01*
X122900000Y-67900000D02*
X122900000Y-61500000D01*
X100500000Y-91100000D02*
G75*
G02*
X97500000Y-91100000I-1500000J0D01*
G01*
X97500000Y-91100000D02*
G75*
G02*
X100500000Y-91100000I1500000J0D01*
G01*
X96050296Y-71900296D02*
G75*
G02*
X98050296Y-69899996I2000004J296D01*
G01*
X196059745Y-61500255D02*
X196050255Y-135800255D01*
X196050255Y-135800255D02*
G75*
G02*
X194050255Y-137799955I-1999955J255D01*
G01*
X160500000Y-131300000D02*
G75*
G02*
X157500000Y-131300000I-1500000J0D01*
G01*
X157500000Y-131300000D02*
G75*
G02*
X160500000Y-131300000I1500000J0D01*
G01*
X98059704Y-137800000D02*
G75*
G02*
X96059700Y-135800296I-4J2000000D01*
G01*
X114600000Y-134900000D02*
G75*
G02*
X111600000Y-134900000I-1500000J0D01*
G01*
X111600000Y-134900000D02*
G75*
G02*
X114600000Y-134900000I1500000J0D01*
G01*
X124900000Y-59500000D02*
X194059745Y-59500000D01*
X138000000Y-65800000D02*
G75*
G02*
X135000000Y-65800000I-1500000J0D01*
G01*
X135000000Y-65800000D02*
G75*
G02*
X138000000Y-65800000I1500000J0D01*
G01*
X160500000Y-65800000D02*
G75*
G02*
X157500000Y-65800000I-1500000J0D01*
G01*
X157500000Y-65800000D02*
G75*
G02*
X160500000Y-65800000I1500000J0D01*
G01*
X98050296Y-69900000D02*
X120900000Y-69900300D01*
X183600000Y-131300000D02*
G75*
G02*
X180600000Y-131300000I-1500000J0D01*
G01*
X180600000Y-131300000D02*
G75*
G02*
X183600000Y-131300000I1500000J0D01*
G01*
X98059704Y-137800000D02*
X194050255Y-137800000D01*
X122900000Y-67900000D02*
G75*
G02*
X120900000Y-69900300I-2000000J-300D01*
G01*
X122900000Y-61500000D02*
G75*
G02*
X124900000Y-59500000I2000000J0D01*
G01*
X183600000Y-65800000D02*
G75*
G02*
X180600000Y-65800000I-1500000J0D01*
G01*
X180600000Y-65800000D02*
G75*
G02*
X183600000Y-65800000I1500000J0D01*
G01*
X138000000Y-131300000D02*
G75*
G02*
X135000000Y-131300000I-1500000J0D01*
G01*
X135000000Y-131300000D02*
G75*
G02*
X138000000Y-131300000I1500000J0D01*
G01*
M02*
