%TF.GenerationSoftware,KiCad,Pcbnew,10.0.2*%
%TF.CreationDate,2026-05-12T16:12:51+02:00*%
%TF.ProjectId,SlimeVR_Dock,536c696d-6556-4525-9f44-6f636b2e6b69,rev?*%
%TF.SameCoordinates,Original*%
%TF.FileFunction,Legend,Top*%
%TF.FilePolarity,Positive*%
%FSLAX46Y46*%
G04 Gerber Fmt 4.6, Leading zero omitted, Abs format (unit mm)*
G04 Created by KiCad (PCBNEW 10.0.2) date 2026-05-12 16:12:51*
%MOMM*%
%LPD*%
G01*
G04 APERTURE LIST*
%ADD10C,0.000000*%
%ADD11C,0.200000*%
%ADD12C,0.400000*%
%ADD13C,0.350000*%
%ADD14C,0.600000*%
%ADD15C,0.150000*%
%ADD16C,0.100000*%
%ADD17C,0.120000*%
%ADD18C,0.350000*%
%ADD19O,1.600000X0.550000*%
%ADD20C,0.203200*%
%ADD21O,1.700000X0.600000*%
%ADD22O,1.400000X0.600000*%
%ADD23C,0.200000*%
G04 APERTURE END LIST*
D10*
G36*
X168295022Y-89532064D02*
G01*
X168309019Y-89540451D01*
X168327660Y-89554087D01*
X168350654Y-89572702D01*
X168408544Y-89623760D01*
X168480363Y-89691419D01*
X168563790Y-89773474D01*
X168656505Y-89867714D01*
X168756184Y-89971938D01*
X168860510Y-90083945D01*
X169318039Y-90571815D01*
X169531249Y-90797177D01*
X169697563Y-90970532D01*
X170247964Y-91544460D01*
X171500457Y-92872485D01*
X172086763Y-93490989D01*
X172446476Y-93868037D01*
X172934502Y-94376491D01*
X173531185Y-95004749D01*
X174348430Y-95874002D01*
X174364032Y-95892615D01*
X174379204Y-95911227D01*
X174393871Y-95929724D01*
X174407946Y-95947987D01*
X174421354Y-95965903D01*
X174434016Y-95983354D01*
X174445852Y-96000228D01*
X174456776Y-96016401D01*
X174466717Y-96031765D01*
X174475594Y-96046197D01*
X174483321Y-96059583D01*
X174489822Y-96071811D01*
X174495020Y-96082762D01*
X174498830Y-96092320D01*
X174501174Y-96100368D01*
X174501771Y-96103791D01*
X174501971Y-96106794D01*
X174498261Y-96115730D01*
X174487365Y-96131160D01*
X174445478Y-96180083D01*
X174379213Y-96250709D01*
X174291470Y-96340201D01*
X174185154Y-96445717D01*
X174063165Y-96564402D01*
X173783783Y-96829923D01*
X173070554Y-97498584D01*
X172684220Y-97092435D01*
X171822403Y-96190994D01*
X170856565Y-95180582D01*
X170655736Y-94965979D01*
X170468372Y-94767622D01*
X170315370Y-94607351D01*
X170217626Y-94506975D01*
X169796623Y-94056252D01*
X169184542Y-93402841D01*
X168918052Y-93121440D01*
X168685292Y-92878057D01*
X168491765Y-92678551D01*
X168342992Y-92528791D01*
X168244483Y-92434637D01*
X168215800Y-92410244D01*
X168206907Y-92404039D01*
X168201755Y-92401949D01*
X168188809Y-92405668D01*
X168168516Y-92416835D01*
X168105791Y-92461617D01*
X168013351Y-92536464D01*
X167890955Y-92641550D01*
X167738379Y-92777051D01*
X167555390Y-92943139D01*
X167097233Y-93367784D01*
X166844789Y-93603127D01*
X166596983Y-93831505D01*
X166230463Y-94165217D01*
X166099981Y-94283777D01*
X165944426Y-94426487D01*
X165636103Y-94710045D01*
X165365542Y-94965746D01*
X165249537Y-95074325D01*
X165202647Y-95117498D01*
X165165568Y-95150864D01*
X164521678Y-95740271D01*
X164040307Y-96179771D01*
X163657377Y-96533371D01*
X163382178Y-96791309D01*
X163287876Y-96881362D01*
X163223988Y-96943845D01*
X163212742Y-96955733D01*
X163201344Y-96967225D01*
X163189873Y-96978268D01*
X163178410Y-96988809D01*
X163167030Y-96998797D01*
X163155822Y-97008185D01*
X163144856Y-97016919D01*
X163134218Y-97024951D01*
X163123986Y-97032227D01*
X163114242Y-97038696D01*
X163105066Y-97044310D01*
X163096530Y-97049018D01*
X163088722Y-97052767D01*
X163081718Y-97055511D01*
X163078546Y-97056485D01*
X163075601Y-97057195D01*
X163072900Y-97057620D01*
X163070449Y-97057761D01*
X163052335Y-97046982D01*
X163016081Y-97016090D01*
X162897404Y-96902674D01*
X162730900Y-96734930D01*
X162533049Y-96530273D01*
X162109257Y-96079862D01*
X161916285Y-95868933D01*
X161757904Y-95690739D01*
X161726075Y-95654403D01*
X161714306Y-95639067D01*
X161706671Y-95623875D01*
X161704725Y-95615924D01*
X161704201Y-95607523D01*
X161705226Y-95598501D01*
X161707926Y-95588701D01*
X161718882Y-95566106D01*
X161738090Y-95538433D01*
X161766590Y-95504379D01*
X161805401Y-95462631D01*
X161855563Y-95411886D01*
X161918102Y-95350840D01*
X162312640Y-94977507D01*
X162405354Y-94889825D01*
X162564006Y-94744100D01*
X162986246Y-94358384D01*
X163226546Y-94142927D01*
X163474739Y-93916329D01*
X163701571Y-93706445D01*
X163877786Y-93541139D01*
X164589781Y-92883629D01*
X165413218Y-92129534D01*
X165612268Y-91947898D01*
X165794601Y-91779727D01*
X165939785Y-91644060D01*
X165992064Y-91594368D01*
X166027393Y-91559940D01*
X166142858Y-91450584D01*
X166364194Y-91246039D01*
X166998180Y-90668400D01*
X167649495Y-90071561D01*
X167892500Y-89846509D01*
X167977901Y-89766138D01*
X168033353Y-89712470D01*
X168053820Y-89694085D01*
X168074275Y-89676153D01*
X168094581Y-89658771D01*
X168114613Y-89642045D01*
X168134241Y-89626070D01*
X168153331Y-89610951D01*
X168171752Y-89596789D01*
X168189375Y-89583690D01*
X168206068Y-89571751D01*
X168221706Y-89561072D01*
X168236151Y-89551761D01*
X168249275Y-89543913D01*
X168260948Y-89537633D01*
X168271041Y-89533019D01*
X168275452Y-89531372D01*
X168279418Y-89530179D01*
X168282925Y-89529452D01*
X168285956Y-89529209D01*
X168295022Y-89532064D01*
G37*
G36*
X146907470Y-89532439D02*
G01*
X146921186Y-89535161D01*
X146935235Y-89539843D01*
X146949752Y-89546484D01*
X146964880Y-89555076D01*
X146980757Y-89565619D01*
X146997518Y-89578098D01*
X147015302Y-89592515D01*
X147054492Y-89627129D01*
X147099425Y-89669423D01*
X147210944Y-89776860D01*
X147662906Y-90198483D01*
X148009155Y-90517257D01*
X148419479Y-90891285D01*
X148621390Y-91072921D01*
X148805194Y-91241089D01*
X148950920Y-91376752D01*
X149003263Y-91426450D01*
X149038601Y-91460879D01*
X149115686Y-91534710D01*
X149231772Y-91642902D01*
X149370147Y-91771524D01*
X149514089Y-91906649D01*
X150601895Y-92902203D01*
X151010904Y-93280177D01*
X151321937Y-93570858D01*
X151587773Y-93819824D01*
X151873578Y-94084112D01*
X152191883Y-94375332D01*
X152555234Y-94705094D01*
X152841270Y-94970698D01*
X153223889Y-95329174D01*
X153669659Y-95760083D01*
X153367526Y-96072122D01*
X153176371Y-96274962D01*
X152982432Y-96483840D01*
X152753200Y-96734503D01*
X152456175Y-97062718D01*
X152443015Y-97077390D01*
X152429608Y-97091641D01*
X152416058Y-97105400D01*
X152402464Y-97118592D01*
X152388930Y-97131148D01*
X152375553Y-97142992D01*
X152362436Y-97154048D01*
X152349683Y-97164253D01*
X152337397Y-97173529D01*
X152325673Y-97181801D01*
X152314619Y-97189002D01*
X152304333Y-97195054D01*
X152294921Y-97199889D01*
X152286474Y-97203434D01*
X152282651Y-97204698D01*
X152279109Y-97205613D01*
X152275856Y-97206164D01*
X152272913Y-97206355D01*
X152266548Y-97205499D01*
X152258662Y-97202987D01*
X152249375Y-97198909D01*
X152238785Y-97193354D01*
X152227006Y-97186399D01*
X152214145Y-97178144D01*
X152200312Y-97168672D01*
X152185617Y-97158062D01*
X152154072Y-97133801D01*
X152120376Y-97106055D01*
X152085403Y-97075522D01*
X152050028Y-97042906D01*
X151733270Y-96742164D01*
X151247022Y-96290050D01*
X150718986Y-95804504D01*
X150276854Y-95403467D01*
X150217086Y-95350899D01*
X150150706Y-95291252D01*
X150006913Y-95159531D01*
X149736974Y-94908168D01*
X149578789Y-94758727D01*
X149348165Y-94544737D01*
X148795904Y-94036439D01*
X148308035Y-93586952D01*
X148146753Y-93437436D01*
X148072766Y-93367784D01*
X147949243Y-93250779D01*
X147798728Y-93111542D01*
X147466646Y-92811190D01*
X147310034Y-92672476D01*
X147176355Y-92556342D01*
X147078078Y-92473988D01*
X147046115Y-92448981D01*
X147027688Y-92436618D01*
X147013260Y-92429212D01*
X146998402Y-92424963D01*
X146981185Y-92425747D01*
X146959662Y-92433445D01*
X146931898Y-92449937D01*
X146895957Y-92477104D01*
X146791800Y-92570967D01*
X146631688Y-92730075D01*
X146400125Y-92969455D01*
X145660658Y-93749161D01*
X145084250Y-94360239D01*
X144831107Y-94626076D01*
X144645294Y-94819009D01*
X144467449Y-95004672D01*
X144229241Y-95256733D01*
X143694317Y-95824470D01*
X143341445Y-96202678D01*
X143029609Y-96534918D01*
X142758982Y-96821182D01*
X142529742Y-97061478D01*
X142342059Y-97255806D01*
X142196110Y-97404165D01*
X142092068Y-97506550D01*
X142055818Y-97540507D01*
X142030110Y-97562971D01*
X142009694Y-97578363D01*
X141990081Y-97590241D01*
X141969621Y-97597285D01*
X141946683Y-97598183D01*
X141919619Y-97591622D01*
X141886802Y-97576290D01*
X141846579Y-97550873D01*
X141797318Y-97514060D01*
X141737376Y-97464531D01*
X141665116Y-97400982D01*
X141477075Y-97226551D01*
X141220081Y-96980268D01*
X140881010Y-96651621D01*
X140730005Y-96505817D01*
X140670687Y-96447980D01*
X140622065Y-96398088D01*
X140601739Y-96375638D01*
X140584063Y-96354587D01*
X140569023Y-96334740D01*
X140556611Y-96315903D01*
X140546817Y-96297876D01*
X140539635Y-96280469D01*
X140535056Y-96263480D01*
X140533065Y-96246717D01*
X140533657Y-96229981D01*
X140536825Y-96213078D01*
X140542558Y-96195814D01*
X140550844Y-96177992D01*
X140561681Y-96159415D01*
X140575051Y-96139888D01*
X140590952Y-96119212D01*
X140609373Y-96097195D01*
X140653731Y-96048351D01*
X140708065Y-95991792D01*
X140846342Y-95849237D01*
X141183146Y-95494478D01*
X141438380Y-95223067D01*
X141713114Y-94927979D01*
X142256088Y-94350953D01*
X142477194Y-94118629D01*
X142624469Y-93967098D01*
X144140087Y-92377185D01*
X145432820Y-91015109D01*
X146133051Y-90277110D01*
X146591822Y-89791716D01*
X146696841Y-89678128D01*
X146739222Y-89633587D01*
X146776320Y-89597155D01*
X146793235Y-89581971D01*
X146809240Y-89568794D01*
X146824478Y-89557627D01*
X146839086Y-89548459D01*
X146853200Y-89541284D01*
X146866955Y-89536104D01*
X146880495Y-89532906D01*
X146893955Y-89531684D01*
X146907470Y-89532439D01*
G37*
G36*
X172239687Y-84389235D02*
G01*
X172372722Y-84399797D01*
X172563801Y-84420808D01*
X173164661Y-84496961D01*
X173405560Y-84528999D01*
X173630091Y-84561969D01*
X173837672Y-84595866D01*
X174027723Y-84630692D01*
X174199670Y-84666446D01*
X174352921Y-84703129D01*
X174486901Y-84740741D01*
X174546485Y-84759895D01*
X174601033Y-84779280D01*
X174748774Y-84836465D01*
X174930405Y-84914482D01*
X175132473Y-85006780D01*
X175341506Y-85106797D01*
X175544034Y-85207978D01*
X175726599Y-85303758D01*
X175875729Y-85387582D01*
X175933554Y-85422960D01*
X175977963Y-85452891D01*
X176285049Y-85665869D01*
X176324712Y-85693594D01*
X176364609Y-85723292D01*
X176408683Y-85758331D01*
X176460884Y-85802076D01*
X176525157Y-85857893D01*
X176605451Y-85929149D01*
X176829883Y-86131449D01*
X176889426Y-86187310D01*
X176955643Y-86251694D01*
X177102300Y-86399685D01*
X177258237Y-86562767D01*
X177411858Y-86728286D01*
X177551551Y-86883588D01*
X177665701Y-87016025D01*
X177709571Y-87069711D01*
X177742706Y-87112939D01*
X177763646Y-87144118D01*
X177769093Y-87154698D01*
X177770949Y-87161673D01*
X177771750Y-87168098D01*
X177774086Y-87176153D01*
X177777872Y-87185736D01*
X177783024Y-87196731D01*
X177789451Y-87209032D01*
X177797070Y-87222532D01*
X177815532Y-87252685D01*
X177837702Y-87286320D01*
X177862893Y-87322569D01*
X177890406Y-87360559D01*
X177919545Y-87399417D01*
X177950105Y-87437814D01*
X177978283Y-87474412D01*
X178003560Y-87508338D01*
X178025410Y-87538722D01*
X178043318Y-87564696D01*
X178050626Y-87575757D01*
X178056754Y-87585389D01*
X178061633Y-87593483D01*
X178065201Y-87599927D01*
X178067387Y-87604620D01*
X178067944Y-87606268D01*
X178068131Y-87607443D01*
X178069502Y-87612226D01*
X178073531Y-87620863D01*
X178089026Y-87648847D01*
X178113579Y-87689720D01*
X178146141Y-87741795D01*
X178231117Y-87872816D01*
X178335593Y-88028450D01*
X178421255Y-88162430D01*
X178512898Y-88315568D01*
X178607670Y-88482402D01*
X178702737Y-88657481D01*
X178795247Y-88835343D01*
X178882361Y-89010535D01*
X178961229Y-89177604D01*
X179029015Y-89331090D01*
X179035458Y-89347223D01*
X179043409Y-89365450D01*
X179052526Y-89385066D01*
X179062447Y-89405382D01*
X179072841Y-89425698D01*
X179083345Y-89445316D01*
X179093620Y-89463543D01*
X179103313Y-89479680D01*
X179132008Y-89530062D01*
X179163870Y-89591129D01*
X179234877Y-89739787D01*
X179311916Y-89914566D01*
X179390586Y-90104376D01*
X179466467Y-90298134D01*
X179535151Y-90484749D01*
X179592227Y-90653143D01*
X179633283Y-90792224D01*
X179639725Y-90814146D01*
X179647676Y-90838501D01*
X179656788Y-90864487D01*
X179666715Y-90891285D01*
X179677104Y-90918079D01*
X179687612Y-90944062D01*
X179697884Y-90968422D01*
X179707578Y-90990344D01*
X179731416Y-91049394D01*
X179760822Y-91126554D01*
X179828925Y-91314764D01*
X179897027Y-91514124D01*
X179926437Y-91605211D01*
X179950271Y-91683764D01*
X180098863Y-92179064D01*
X180119441Y-92252043D01*
X180139956Y-92328271D01*
X180159894Y-92405430D01*
X180178730Y-92481195D01*
X180195938Y-92553247D01*
X180211000Y-92619259D01*
X180223393Y-92676917D01*
X180232592Y-92723895D01*
X180239046Y-92765702D01*
X180247065Y-92808559D01*
X180256362Y-92851182D01*
X180266644Y-92892296D01*
X180272064Y-92911885D01*
X180277624Y-92930624D01*
X180283287Y-92948343D01*
X180289009Y-92964886D01*
X180294763Y-92980096D01*
X180300513Y-92993814D01*
X180306219Y-93005874D01*
X180311844Y-93016119D01*
X180330629Y-93063919D01*
X180353476Y-93136618D01*
X180380274Y-93234044D01*
X180410902Y-93356021D01*
X180483182Y-93672934D01*
X180569398Y-94085967D01*
X180648178Y-94468585D01*
X180724176Y-94828917D01*
X180790890Y-95133527D01*
X180841813Y-95348985D01*
X180851051Y-95393502D01*
X180859998Y-95444174D01*
X180868367Y-95499257D01*
X180875863Y-95557008D01*
X180882199Y-95615690D01*
X180887086Y-95673561D01*
X180890231Y-95728876D01*
X180891345Y-95779893D01*
X180892909Y-95832711D01*
X180897382Y-95893194D01*
X180904403Y-95959248D01*
X180913632Y-96028780D01*
X180924720Y-96099710D01*
X180937317Y-96169943D01*
X180951072Y-96237391D01*
X180965636Y-96299958D01*
X180980209Y-96361339D01*
X180993964Y-96428816D01*
X181006558Y-96500122D01*
X181017644Y-96572994D01*
X181026872Y-96645172D01*
X181033894Y-96714385D01*
X181038363Y-96778376D01*
X181039931Y-96834880D01*
X181041053Y-96887961D01*
X181044264Y-96945625D01*
X181049332Y-97005962D01*
X181056026Y-97067051D01*
X181064116Y-97126979D01*
X181073364Y-97183835D01*
X181083539Y-97235694D01*
X181094414Y-97280646D01*
X181104551Y-97329443D01*
X181116085Y-97392401D01*
X181141469Y-97550587D01*
X181166852Y-97734778D01*
X181178385Y-97830238D01*
X181188521Y-97924539D01*
X181209495Y-98121806D01*
X181233719Y-98332541D01*
X181258872Y-98531203D01*
X181271072Y-98618025D01*
X181282632Y-98692255D01*
X181331851Y-99088881D01*
X181386643Y-99725572D01*
X181452581Y-100675236D01*
X181535235Y-102010765D01*
X181569266Y-102711528D01*
X181596682Y-103497206D01*
X181616899Y-104315271D01*
X181629338Y-105113198D01*
X181633421Y-105838455D01*
X181628566Y-106438513D01*
X181614189Y-106860840D01*
X181603249Y-106988945D01*
X181589712Y-107052918D01*
X181578443Y-107076308D01*
X181563636Y-107111889D01*
X181545922Y-107157916D01*
X181525945Y-107212650D01*
X181481757Y-107341274D01*
X181458819Y-107411682D01*
X181436171Y-107483826D01*
X181415249Y-107545046D01*
X181393232Y-107604412D01*
X181369949Y-107662169D01*
X181345238Y-107718554D01*
X181318934Y-107773806D01*
X181290862Y-107828169D01*
X181260864Y-107881875D01*
X181228767Y-107935171D01*
X181194407Y-107988290D01*
X181157617Y-108041477D01*
X181118226Y-108094967D01*
X181076075Y-108149000D01*
X181030992Y-108203818D01*
X180982810Y-108259660D01*
X180931365Y-108316764D01*
X180876486Y-108375372D01*
X180826685Y-108426736D01*
X180802527Y-108449743D01*
X180778046Y-108471490D01*
X180752636Y-108492362D01*
X180725691Y-108512758D01*
X180696596Y-108533064D01*
X180664743Y-108553680D01*
X180629526Y-108574984D01*
X180590331Y-108597386D01*
X180497580Y-108647009D01*
X180381609Y-108705692D01*
X180237545Y-108776559D01*
X180142419Y-108819548D01*
X180038149Y-108859252D01*
X179926160Y-108895535D01*
X179807873Y-108928249D01*
X179684709Y-108957246D01*
X179558093Y-108982383D01*
X179429448Y-109003516D01*
X179300191Y-109020497D01*
X179171745Y-109033187D01*
X179045536Y-109041434D01*
X178922983Y-109045095D01*
X178805510Y-109044027D01*
X178694536Y-109038080D01*
X178591486Y-109027115D01*
X178497782Y-109010983D01*
X178414843Y-108989542D01*
X178375877Y-108977779D01*
X178330645Y-108965085D01*
X178280765Y-108951931D01*
X178227867Y-108938773D01*
X178173579Y-108926081D01*
X178119517Y-108914318D01*
X178067317Y-108903949D01*
X178018601Y-108895434D01*
X177968521Y-108886911D01*
X177912344Y-108876473D01*
X177788906Y-108851474D01*
X177662683Y-108823692D01*
X177548070Y-108796375D01*
X177429503Y-108768512D01*
X177286794Y-108733225D01*
X177003238Y-108662644D01*
X176721536Y-108593301D01*
X176579059Y-108556774D01*
X176458406Y-108523959D01*
X176341627Y-108490373D01*
X176203945Y-108452142D01*
X175938343Y-108380319D01*
X175582965Y-108283582D01*
X175231302Y-108185917D01*
X174918645Y-108097538D01*
X174680283Y-108028660D01*
X174631527Y-108014090D01*
X174582770Y-108000335D01*
X174535408Y-107987741D01*
X174490831Y-107976654D01*
X174450431Y-107967425D01*
X174415607Y-107960401D01*
X174400715Y-107957823D01*
X174387742Y-107955932D01*
X174376859Y-107954763D01*
X174368238Y-107954364D01*
X174358860Y-107953966D01*
X174347529Y-107952805D01*
X174319563Y-107948406D01*
X174285445Y-107941565D01*
X174246275Y-107932696D01*
X174157199Y-107910484D01*
X174061158Y-107885019D01*
X173907882Y-107836896D01*
X173759025Y-107792539D01*
X173612948Y-107751552D01*
X173468037Y-107713526D01*
X173322656Y-107678052D01*
X173175189Y-107644725D01*
X173024007Y-107613140D01*
X172867485Y-107582890D01*
X172680042Y-107545740D01*
X172482386Y-107504879D01*
X172149296Y-107434300D01*
X172084647Y-107419277D01*
X172014713Y-107404196D01*
X171941649Y-107389461D01*
X171867597Y-107375480D01*
X171794704Y-107362666D01*
X171725120Y-107351412D01*
X171660990Y-107342135D01*
X171604466Y-107335239D01*
X171554521Y-107327374D01*
X171505793Y-107318754D01*
X171459507Y-107309555D01*
X171416873Y-107299949D01*
X171397309Y-107295049D01*
X171379119Y-107290109D01*
X171362447Y-107285158D01*
X171347453Y-107280214D01*
X171334289Y-107275300D01*
X171323103Y-107270433D01*
X171314052Y-107265642D01*
X171307284Y-107260947D01*
X171301160Y-107257118D01*
X171292197Y-107253089D01*
X171280558Y-107248886D01*
X171266424Y-107244538D01*
X171231366Y-107235521D01*
X171188414Y-107226273D01*
X171138964Y-107217025D01*
X171084405Y-107208008D01*
X171026130Y-107199457D01*
X170965533Y-107191603D01*
X170935728Y-107188534D01*
X170905881Y-107184949D01*
X170876182Y-107180893D01*
X170846811Y-107176432D01*
X170789836Y-107166528D01*
X170736456Y-107155693D01*
X170688183Y-107144392D01*
X170646527Y-107133094D01*
X170628652Y-107127590D01*
X170612997Y-107122261D01*
X170599750Y-107117163D01*
X170589103Y-107112354D01*
X170550525Y-107095705D01*
X170490350Y-107078534D01*
X170402782Y-107059853D01*
X170282013Y-107038679D01*
X169917659Y-106984892D01*
X169350849Y-106909282D01*
X169259635Y-106897053D01*
X169162559Y-106882968D01*
X168962658Y-106851083D01*
X168865757Y-106834210D01*
X168774831Y-106817340D01*
X168692847Y-106800935D01*
X168622762Y-106785459D01*
X168557396Y-106771100D01*
X168488956Y-106757908D01*
X168419467Y-106746101D01*
X168350966Y-106735926D01*
X168285484Y-106727609D01*
X168225052Y-106721376D01*
X168171700Y-106717467D01*
X168127460Y-106716115D01*
X168082082Y-106714762D01*
X168025384Y-106710852D01*
X167959514Y-106704621D01*
X167886622Y-106696302D01*
X167808853Y-106686126D01*
X167728357Y-106674323D01*
X167647281Y-106661129D01*
X167567773Y-106646772D01*
X167386456Y-106614800D01*
X167153656Y-106579520D01*
X166595129Y-106506232D01*
X166015239Y-106441298D01*
X165755737Y-106416469D01*
X165537041Y-106399122D01*
X165374212Y-106387513D01*
X165170519Y-106369407D01*
X164951971Y-106347581D01*
X164744563Y-106324830D01*
X163908665Y-106241012D01*
X162968294Y-106166951D01*
X161889545Y-106101248D01*
X160638528Y-106042506D01*
X159300000Y-106000000D01*
X157850147Y-105982915D01*
X156342945Y-105989747D01*
X154832375Y-106018982D01*
X153372420Y-106069109D01*
X152017060Y-106138627D01*
X150820272Y-106226020D01*
X149836037Y-106329781D01*
X149626928Y-106353462D01*
X149370456Y-106378071D01*
X149099124Y-106400824D01*
X148845438Y-106418931D01*
X148298130Y-106464130D01*
X148017976Y-106489282D01*
X147780542Y-106513041D01*
X147204754Y-106576192D01*
X146854175Y-106613339D01*
X146517528Y-106646772D01*
X146190474Y-106683146D01*
X145866206Y-106722303D01*
X145582803Y-106759608D01*
X145468322Y-106776109D01*
X145378337Y-106790410D01*
X145211171Y-106817649D01*
X145029150Y-106844892D01*
X144854555Y-106868418D01*
X144777011Y-106877629D01*
X144709682Y-106884516D01*
X144575098Y-106901078D01*
X144427978Y-106920425D01*
X144355090Y-106930853D01*
X144285505Y-106941630D01*
X144221375Y-106952637D01*
X144164853Y-106963764D01*
X144036693Y-106985586D01*
X143867669Y-107012055D01*
X143496194Y-107067777D01*
X143114389Y-107120296D01*
X142732815Y-107175893D01*
X142366099Y-107232068D01*
X142028870Y-107286326D01*
X141735752Y-107336178D01*
X141501375Y-107379122D01*
X141340365Y-107412658D01*
X141291942Y-107425122D01*
X141267344Y-107434300D01*
X141249933Y-107440743D01*
X141220913Y-107448694D01*
X141181676Y-107457806D01*
X141133613Y-107467732D01*
X141078127Y-107478122D01*
X141016603Y-107488626D01*
X140950433Y-107498901D01*
X140881010Y-107508594D01*
X140744175Y-107528095D01*
X140605425Y-107549456D01*
X140465628Y-107572672D01*
X140325657Y-107597748D01*
X140186381Y-107624681D01*
X140048676Y-107653469D01*
X139913407Y-107684117D01*
X139781448Y-107716621D01*
X139676968Y-107740302D01*
X139558563Y-107764912D01*
X139440154Y-107787664D01*
X139335678Y-107805774D01*
X139243842Y-107822462D01*
X139143360Y-107842689D01*
X139034871Y-107866286D01*
X138919005Y-107893072D01*
X138667717Y-107955526D01*
X138394607Y-108028660D01*
X138344979Y-108043248D01*
X138290130Y-108057141D01*
X138231797Y-108070102D01*
X138171722Y-108081903D01*
X138111648Y-108092312D01*
X138053313Y-108101095D01*
X137998463Y-108108024D01*
X137948837Y-108112861D01*
X137730906Y-108127720D01*
X137661563Y-107855304D01*
X137646298Y-107795782D01*
X137630451Y-107730165D01*
X137598411Y-107589700D01*
X137542691Y-107335239D01*
X137530674Y-107280735D01*
X137517151Y-107222402D01*
X137502466Y-107161980D01*
X137486968Y-107101209D01*
X137471009Y-107041830D01*
X137454928Y-106985590D01*
X137439085Y-106934221D01*
X137423820Y-106889469D01*
X137416510Y-106867730D01*
X137409462Y-106845339D01*
X137396267Y-106799232D01*
X137384465Y-106752432D01*
X137374290Y-106706208D01*
X137365969Y-106661845D01*
X137359737Y-106620615D01*
X137357481Y-106601574D01*
X137355831Y-106583797D01*
X137354817Y-106567441D01*
X137354477Y-106552662D01*
X137354247Y-106537593D01*
X137353577Y-106522163D01*
X137352485Y-106506489D01*
X137350994Y-106490674D01*
X137349127Y-106474834D01*
X137346903Y-106459070D01*
X137344345Y-106443497D01*
X137341476Y-106428221D01*
X137338317Y-106413353D01*
X137334886Y-106398995D01*
X137331212Y-106385267D01*
X137327312Y-106372270D01*
X137323209Y-106360112D01*
X137318927Y-106348908D01*
X137314481Y-106338759D01*
X137309900Y-106329781D01*
X137299762Y-106306541D01*
X137288229Y-106274833D01*
X137275771Y-106235924D01*
X137262845Y-106191099D01*
X137249923Y-106141623D01*
X137237461Y-106088785D01*
X137225930Y-106033857D01*
X137215793Y-105978117D01*
X137166260Y-105715608D01*
X137344572Y-105641310D01*
X137385172Y-105626059D01*
X137431634Y-105610279D01*
X137482394Y-105594386D01*
X137535881Y-105578782D01*
X137590526Y-105563876D01*
X137644771Y-105550070D01*
X137697039Y-105537776D01*
X137745765Y-105527391D01*
X137837489Y-105511063D01*
X137950229Y-105488698D01*
X138222489Y-105429570D01*
X138530040Y-105357445D01*
X138840377Y-105279744D01*
X138952343Y-105252244D01*
X139099017Y-105219455D01*
X139453310Y-105146630D01*
X139816891Y-105078449D01*
X139975173Y-105051472D01*
X140103389Y-105032097D01*
X140224045Y-105013213D01*
X140366520Y-104988757D01*
X140648222Y-104937987D01*
X141292112Y-104809212D01*
X141649812Y-104744044D01*
X142084589Y-104670525D01*
X142575091Y-104593285D01*
X143099957Y-104516983D01*
X143584113Y-104444543D01*
X144016263Y-104383252D01*
X144504520Y-104314065D01*
X144976525Y-104249521D01*
X145414170Y-104192406D01*
X145799343Y-104145504D01*
X146238304Y-104091025D01*
X146666117Y-104036541D01*
X146878785Y-104012783D01*
X147145320Y-103987628D01*
X147432284Y-103963406D01*
X147706247Y-103942434D01*
X147972391Y-103920766D01*
X148238074Y-103895380D01*
X148473108Y-103869997D01*
X148647317Y-103848328D01*
X148717964Y-103837454D01*
X148794591Y-103827277D01*
X148874816Y-103818029D01*
X148956257Y-103809943D01*
X149036542Y-103803247D01*
X149113285Y-103798178D01*
X149184108Y-103794967D01*
X149246627Y-103793844D01*
X149312529Y-103792276D01*
X149393054Y-103787808D01*
X149485186Y-103780783D01*
X149585909Y-103771557D01*
X149801056Y-103747873D01*
X149909443Y-103734117D01*
X150014347Y-103719549D01*
X150119382Y-103704981D01*
X150231505Y-103691225D01*
X150347106Y-103678628D01*
X150462590Y-103667541D01*
X150574363Y-103658315D01*
X150678820Y-103651291D01*
X150772367Y-103646822D01*
X150851399Y-103645255D01*
X150939500Y-103643687D01*
X151055634Y-103639218D01*
X151352275Y-103622964D01*
X151701848Y-103599286D01*
X152064887Y-103570960D01*
X153077553Y-103509201D01*
X154351701Y-103465087D01*
X155799169Y-103438622D01*
X157331785Y-103429800D01*
X158861379Y-103438622D01*
X160299789Y-103465087D01*
X161558844Y-103509201D01*
X162550382Y-103570960D01*
X162906072Y-103599286D01*
X163248757Y-103622964D01*
X163539436Y-103639218D01*
X163653083Y-103643687D01*
X163739102Y-103645255D01*
X163818321Y-103646616D01*
X163915941Y-103650593D01*
X164028071Y-103657006D01*
X164150822Y-103665683D01*
X164280303Y-103676451D01*
X164412634Y-103689133D01*
X164543917Y-103703556D01*
X164670264Y-103719549D01*
X165244738Y-103787035D01*
X165796456Y-103847088D01*
X166317524Y-103897857D01*
X166800056Y-103937482D01*
X166904706Y-103945995D01*
X167012261Y-103956366D01*
X167119583Y-103968127D01*
X167223537Y-103980819D01*
X167320992Y-103993979D01*
X167408812Y-104007135D01*
X167483862Y-104019827D01*
X167543006Y-104031588D01*
X167673255Y-104056972D01*
X167842041Y-104086072D01*
X168028476Y-104115168D01*
X168211658Y-104140551D01*
X168789152Y-104218255D01*
X169037906Y-104253737D01*
X169257984Y-104286666D01*
X169447883Y-104316811D01*
X169606090Y-104343935D01*
X169731093Y-104367812D01*
X169821386Y-104388204D01*
X169865228Y-104397442D01*
X169913947Y-104406391D01*
X169965912Y-104414759D01*
X170019504Y-104422256D01*
X170073098Y-104428592D01*
X170125067Y-104433478D01*
X170173785Y-104436622D01*
X170217626Y-104437734D01*
X170291631Y-104440413D01*
X170378756Y-104448954D01*
X170482824Y-104464114D01*
X170607678Y-104486644D01*
X170757136Y-104517298D01*
X170935039Y-104556835D01*
X171391489Y-104665569D01*
X171452259Y-104679927D01*
X171514540Y-104693122D01*
X171576591Y-104704924D01*
X171636663Y-104715102D01*
X171693024Y-104723419D01*
X171743926Y-104729652D01*
X171787632Y-104733559D01*
X171806244Y-104734571D01*
X171822403Y-104734914D01*
X171837814Y-104735199D01*
X171854248Y-104736037D01*
X171871548Y-104737397D01*
X171889575Y-104739251D01*
X171927226Y-104744318D01*
X171966037Y-104751011D01*
X172004848Y-104759098D01*
X172042498Y-104768346D01*
X172077828Y-104778521D01*
X172094262Y-104783888D01*
X172109676Y-104789393D01*
X172176945Y-104810387D01*
X172272658Y-104835677D01*
X172393678Y-104864446D01*
X172536873Y-104895886D01*
X172699102Y-104929185D01*
X172877235Y-104963527D01*
X173068140Y-104998102D01*
X173268679Y-105032097D01*
X173327379Y-105042239D01*
X173387238Y-105053840D01*
X173446636Y-105066485D01*
X173503945Y-105079768D01*
X173557536Y-105093282D01*
X173605787Y-105106620D01*
X173647075Y-105119379D01*
X173664600Y-105125416D01*
X173679775Y-105131154D01*
X173709310Y-105140392D01*
X173741455Y-105149340D01*
X173775110Y-105157708D01*
X173809171Y-105165205D01*
X173842535Y-105171544D01*
X173874102Y-105176428D01*
X173888866Y-105178235D01*
X173902766Y-105179572D01*
X173915664Y-105180401D01*
X173927425Y-105180684D01*
X173950638Y-105182003D01*
X173981017Y-105185890D01*
X174061775Y-105200960D01*
X174166677Y-105225085D01*
X174292708Y-105257457D01*
X174436849Y-105297256D01*
X174596080Y-105343668D01*
X174767381Y-105395889D01*
X174947741Y-105453100D01*
X174995113Y-105467665D01*
X175043474Y-105481423D01*
X175091486Y-105494019D01*
X175137814Y-105505105D01*
X175181123Y-105514333D01*
X175220078Y-105521354D01*
X175237508Y-105523933D01*
X175253349Y-105525827D01*
X175267430Y-105526994D01*
X175279590Y-105527391D01*
X175291467Y-105527737D01*
X175304706Y-105528747D01*
X175319165Y-105530397D01*
X175334696Y-105532655D01*
X175368401Y-105538886D01*
X175404657Y-105547206D01*
X175442308Y-105557381D01*
X175480190Y-105569184D01*
X175498856Y-105575623D01*
X175517143Y-105582380D01*
X175534908Y-105589429D01*
X175552007Y-105596736D01*
X175620829Y-105623386D01*
X175700443Y-105651141D01*
X175790043Y-105679707D01*
X175888813Y-105708799D01*
X175995940Y-105738119D01*
X176110614Y-105767380D01*
X176232021Y-105796299D01*
X176359346Y-105824575D01*
X176463978Y-105849880D01*
X176602045Y-105885869D01*
X176754968Y-105928354D01*
X176831196Y-105950729D01*
X176904176Y-105973161D01*
X176979255Y-105995598D01*
X177058107Y-106017972D01*
X177138468Y-106039768D01*
X177218075Y-106060462D01*
X177294663Y-106079527D01*
X177365966Y-106096447D01*
X177429728Y-106110696D01*
X177483677Y-106121755D01*
X177533189Y-106131234D01*
X177580728Y-106140947D01*
X177625247Y-106150658D01*
X177665703Y-106160140D01*
X177701051Y-106169156D01*
X177730245Y-106177475D01*
X177742210Y-106181303D01*
X177752244Y-106184866D01*
X177760215Y-106188141D01*
X177766000Y-106191099D01*
X177780923Y-106197844D01*
X177806447Y-106206777D01*
X177885258Y-106230178D01*
X177994369Y-106259268D01*
X178125709Y-106292014D01*
X178422812Y-106360351D01*
X178572437Y-106391877D01*
X178712023Y-106418931D01*
X178737670Y-106423232D01*
X178762560Y-106426837D01*
X178786638Y-106429764D01*
X178809844Y-106432012D01*
X178832121Y-106433598D01*
X178853415Y-106434520D01*
X178873663Y-106434791D01*
X178892807Y-106434413D01*
X178910792Y-106433396D01*
X178927556Y-106431751D01*
X178943044Y-106429483D01*
X178957196Y-106426596D01*
X178969956Y-106423100D01*
X178981265Y-106419002D01*
X178986357Y-106416728D01*
X178991064Y-106414309D01*
X178995383Y-106411742D01*
X178999295Y-106409029D01*
X179012413Y-106371561D01*
X179023899Y-106286451D01*
X179041940Y-105992126D01*
X179053363Y-105563721D01*
X179058113Y-105038906D01*
X179047358Y-103850729D01*
X179031734Y-103262706D01*
X179009203Y-102728952D01*
X178962362Y-101909953D01*
X178914940Y-101160318D01*
X178867286Y-100483469D01*
X178819749Y-99882830D01*
X178772676Y-99361827D01*
X178726414Y-98923884D01*
X178681315Y-98572424D01*
X178637728Y-98310873D01*
X178623159Y-98234846D01*
X178609401Y-98156788D01*
X178596806Y-98078848D01*
X178585719Y-98003168D01*
X178576491Y-97931902D01*
X178569467Y-97867191D01*
X178565001Y-97811191D01*
X178563429Y-97766040D01*
X178561862Y-97720913D01*
X178557396Y-97665049D01*
X178550372Y-97600706D01*
X178541142Y-97530155D01*
X178530057Y-97455659D01*
X178517463Y-97379475D01*
X178503706Y-97303877D01*
X178489138Y-97231122D01*
X178474571Y-97155605D01*
X178460814Y-97075564D01*
X178448217Y-96993433D01*
X178437131Y-96911650D01*
X178427902Y-96832653D01*
X178420881Y-96758881D01*
X178416411Y-96692774D01*
X178414843Y-96636764D01*
X178413276Y-96578671D01*
X178408807Y-96510076D01*
X178401781Y-96433467D01*
X178392554Y-96351347D01*
X178381470Y-96266209D01*
X178368871Y-96180546D01*
X178355116Y-96096858D01*
X178340548Y-96017640D01*
X178138095Y-95036946D01*
X178043136Y-94560527D01*
X177969073Y-94175121D01*
X177959147Y-94126345D01*
X177948177Y-94077454D01*
X177936510Y-94029723D01*
X177924498Y-93984430D01*
X177912482Y-93942853D01*
X177900816Y-93906267D01*
X177889845Y-93875950D01*
X177884729Y-93863540D01*
X177879921Y-93853178D01*
X177874293Y-93842813D01*
X177868581Y-93830395D01*
X177862810Y-93816076D01*
X177857011Y-93800009D01*
X177845441Y-93763239D01*
X177834102Y-93721304D01*
X177823230Y-93675422D01*
X177813053Y-93626810D01*
X177803803Y-93576690D01*
X177795716Y-93526276D01*
X177791834Y-93502273D01*
X177787640Y-93478633D01*
X177783171Y-93455509D01*
X177778461Y-93433023D01*
X177773547Y-93411325D01*
X177768469Y-93390545D01*
X177763260Y-93370826D01*
X177757953Y-93352305D01*
X177752592Y-93335117D01*
X177747205Y-93319404D01*
X177741837Y-93305301D01*
X177736516Y-93292945D01*
X177731284Y-93282479D01*
X177726174Y-93274034D01*
X177723678Y-93270615D01*
X177721226Y-93267753D01*
X177718823Y-93265465D01*
X177716472Y-93263771D01*
X177711889Y-93260415D01*
X177707443Y-93255973D01*
X177703161Y-93250515D01*
X177699057Y-93244113D01*
X177695157Y-93236840D01*
X177691483Y-93228768D01*
X177688055Y-93219975D01*
X177684893Y-93210527D01*
X177682026Y-93200497D01*
X177679465Y-93189958D01*
X177677242Y-93178987D01*
X177675375Y-93167651D01*
X177673884Y-93156025D01*
X177672792Y-93144182D01*
X177672120Y-93132195D01*
X177671889Y-93120135D01*
X177670690Y-93104761D01*
X177667177Y-93083062D01*
X177653701Y-93022310D01*
X177632451Y-92941130D01*
X177604408Y-92842766D01*
X177570561Y-92730470D01*
X177531895Y-92607497D01*
X177444057Y-92342513D01*
X177354436Y-92077447D01*
X177276891Y-91841640D01*
X177219777Y-91660622D01*
X177201494Y-91598641D01*
X177191448Y-91559940D01*
X177188327Y-91546607D01*
X177184561Y-91532688D01*
X177180222Y-91518288D01*
X177175354Y-91503520D01*
X177170023Y-91488492D01*
X177164288Y-91473311D01*
X177151828Y-91442923D01*
X177138440Y-91413236D01*
X177124587Y-91385113D01*
X177110733Y-91359427D01*
X177103952Y-91347774D01*
X177097345Y-91337055D01*
X177090038Y-91326620D01*
X177082989Y-91315800D01*
X177076232Y-91304676D01*
X177069797Y-91293327D01*
X177063705Y-91281836D01*
X177057994Y-91270273D01*
X177052686Y-91258730D01*
X177047815Y-91247280D01*
X177043408Y-91236006D01*
X177039494Y-91224979D01*
X177036105Y-91214293D01*
X177033266Y-91204018D01*
X177031006Y-91194237D01*
X177029357Y-91185030D01*
X177028347Y-91176471D01*
X177028005Y-91168652D01*
X177026689Y-91158604D01*
X177022837Y-91143519D01*
X177008037Y-91099462D01*
X176984646Y-91038926D01*
X176953706Y-90964340D01*
X176916271Y-90878145D01*
X176873377Y-90782784D01*
X176826072Y-90680685D01*
X176775398Y-90574292D01*
X176573568Y-90152669D01*
X176492614Y-89984343D01*
X176461600Y-89921163D01*
X176438596Y-89875919D01*
X176415159Y-89829765D01*
X176384589Y-89774151D01*
X176306489Y-89641267D01*
X176213184Y-89490746D01*
X176113552Y-89336043D01*
X176016479Y-89190625D01*
X175930835Y-89067958D01*
X175895077Y-89019366D01*
X175865508Y-88981515D01*
X175843235Y-88956082D01*
X175835184Y-88948548D01*
X175829377Y-88944753D01*
X175827084Y-88943755D01*
X175824848Y-88942614D01*
X175822675Y-88941340D01*
X175820561Y-88939937D01*
X175818512Y-88938409D01*
X175816523Y-88936764D01*
X175812735Y-88933144D01*
X175809210Y-88929117D01*
X175805954Y-88924731D01*
X175802974Y-88920020D01*
X175800277Y-88915035D01*
X175797871Y-88909820D01*
X175795757Y-88904414D01*
X175793954Y-88898866D01*
X175792457Y-88893212D01*
X175791286Y-88887501D01*
X175790436Y-88881779D01*
X175789925Y-88876082D01*
X175789751Y-88870458D01*
X175788134Y-88860109D01*
X175783383Y-88846814D01*
X175765033Y-88812018D01*
X175735848Y-88767342D01*
X175696958Y-88714053D01*
X175649512Y-88653421D01*
X175594642Y-88586718D01*
X175467187Y-88440168D01*
X175323714Y-88284564D01*
X175173335Y-88130063D01*
X175025158Y-87986822D01*
X174954748Y-87922599D01*
X174888305Y-87865002D01*
X174833117Y-87819999D01*
X174773710Y-87774327D01*
X174710496Y-87728232D01*
X174643905Y-87681970D01*
X174502262Y-87589964D01*
X174352144Y-87500335D01*
X174196918Y-87415121D01*
X174039951Y-87336344D01*
X173961865Y-87300009D01*
X173884607Y-87266047D01*
X173808600Y-87234709D01*
X173734260Y-87206250D01*
X173645558Y-87178623D01*
X173535442Y-87151457D01*
X173403846Y-87124760D01*
X173250721Y-87098525D01*
X173075998Y-87072753D01*
X172879631Y-87047446D01*
X172661556Y-87022605D01*
X172421709Y-86998224D01*
X172200221Y-86973457D01*
X172016805Y-86952410D01*
X171890966Y-86936933D01*
X171855735Y-86931865D01*
X171846107Y-86930097D01*
X171842208Y-86928885D01*
X171839087Y-86911352D01*
X171838815Y-86866623D01*
X171845691Y-86709402D01*
X171881216Y-86220605D01*
X171930667Y-85683514D01*
X171954959Y-85465931D01*
X171975945Y-85319160D01*
X171985189Y-85259181D01*
X171994206Y-85192238D01*
X172002761Y-85120650D01*
X172010614Y-85046744D01*
X172017541Y-84972835D01*
X172023306Y-84901250D01*
X172027677Y-84834307D01*
X172030426Y-84774329D01*
X172032729Y-84718617D01*
X172035843Y-84663891D01*
X172039654Y-84611605D01*
X172044045Y-84563206D01*
X172048902Y-84520149D01*
X172054107Y-84483880D01*
X172056802Y-84468748D01*
X172059544Y-84455856D01*
X172062310Y-84445387D01*
X172065093Y-84437525D01*
X172070257Y-84424479D01*
X172077399Y-84413262D01*
X172087905Y-84403963D01*
X172103170Y-84396663D01*
X172124588Y-84391453D01*
X172153552Y-84388420D01*
X172191453Y-84387653D01*
X172239687Y-84389235D01*
G37*
D11*
X116450000Y-91200000D02*
G75*
G02*
X116150000Y-91200000I-150000J0D01*
G01*
X116150000Y-91200000D02*
G75*
G02*
X116450000Y-91200000I150000J0D01*
G01*
X116700000Y-70000000D02*
X116700000Y-72200000D01*
X116700000Y-73000000D02*
X116700000Y-75200000D01*
X116700000Y-76000000D02*
X116700000Y-78200000D01*
X116700000Y-79000000D02*
X116700000Y-81200000D01*
X116700000Y-82000000D02*
X116700000Y-84200000D01*
X116700000Y-85000000D02*
X116700000Y-87200000D01*
X116700000Y-88000000D02*
X116700000Y-90200000D01*
X116700000Y-91000000D02*
X116700000Y-93200000D01*
X116700000Y-94000000D02*
X116700000Y-96200000D01*
X116700000Y-97000000D02*
X116700000Y-99200000D01*
X116700000Y-100000000D02*
X116700000Y-102200000D01*
X116700000Y-103000000D02*
X116700000Y-105200000D01*
X116700000Y-106000000D02*
X116700000Y-108200000D01*
X116700000Y-109000000D02*
X116700000Y-111200000D01*
X116700000Y-112000000D02*
X116700000Y-114200000D01*
X116700000Y-115000000D02*
X116700000Y-117200000D01*
X116700000Y-118000000D02*
X116700000Y-120200000D01*
X116700000Y-121000000D02*
X116700000Y-123200000D01*
X116700000Y-124000000D02*
X116700000Y-126200000D01*
X116700000Y-127000000D02*
X116700000Y-129200000D01*
X116700000Y-130000000D02*
X116700000Y-132200000D01*
X116700000Y-133000000D02*
X116700000Y-135200000D01*
X116700000Y-136000000D02*
X116700000Y-137700000D01*
D12*
X136500000Y-59800000D02*
X136500000Y-64200000D01*
X136500000Y-65800000D02*
X136500000Y-70200000D01*
X136500000Y-71800000D02*
X136500000Y-76200000D01*
X136500000Y-77800000D02*
X136500000Y-82200000D01*
X136500000Y-83800000D02*
X136500000Y-88200000D01*
X136500000Y-89800000D02*
X136500000Y-94200000D01*
X136500000Y-95800000D02*
X136500000Y-100200000D01*
X136500000Y-101800000D02*
X136500000Y-106200000D01*
X136500000Y-107800000D02*
X136500000Y-112200000D01*
X136500000Y-113800000D02*
X136500000Y-118200000D01*
X136500000Y-119800000D02*
X136500000Y-124200000D01*
X136500000Y-125800000D02*
X136500000Y-130200000D01*
X136500000Y-131800000D02*
X136500000Y-136200000D01*
X136500000Y-98520000D02*
X132100001Y-98517761D01*
X130500001Y-98516947D02*
X126100001Y-98514707D01*
X124500002Y-98513893D02*
X120100002Y-98511654D01*
X118500002Y-98510840D02*
X116850000Y-98510001D01*
X159000000Y-59800000D02*
X159000000Y-64200000D01*
X159000000Y-65800000D02*
X159000000Y-70200000D01*
X159000000Y-71800000D02*
X159000000Y-76200000D01*
X159000000Y-77800000D02*
X159000000Y-82200000D01*
X159000000Y-113800000D02*
X159000000Y-118200000D01*
X159000000Y-119800000D02*
X159000000Y-124200000D01*
X159000000Y-125800000D02*
X159000000Y-130200000D01*
X159000000Y-131800000D02*
X159000000Y-136200000D01*
X182100000Y-59800000D02*
X182100000Y-64200000D01*
X182100000Y-65800000D02*
X182100000Y-70200000D01*
X182100000Y-71800000D02*
X182100000Y-76200000D01*
X182100000Y-77800000D02*
X182100000Y-82200000D01*
X182100000Y-83800000D02*
X182100000Y-88200000D01*
X182100000Y-89800000D02*
X182100000Y-94200000D01*
X182100000Y-95800000D02*
X182100000Y-100200000D01*
X182100000Y-101800000D02*
X182100000Y-106200000D01*
X182100000Y-107800000D02*
X182100000Y-112200000D01*
X182100000Y-113800000D02*
X182100000Y-118200000D01*
X182100000Y-119800000D02*
X182100000Y-124200000D01*
X182100000Y-125800000D02*
X182100000Y-130200000D01*
X182100000Y-131800000D02*
X182100000Y-136200000D01*
X195760000Y-98550000D02*
X191360001Y-98546779D01*
X189760002Y-98545608D02*
X185360003Y-98542387D01*
X183760003Y-98541215D02*
X182100271Y-98540000D01*
D11*
X118219673Y-97817219D02*
X118219673Y-96817219D01*
X118219673Y-96817219D02*
X118457768Y-96817219D01*
X118457768Y-96817219D02*
X118600625Y-96864838D01*
X118600625Y-96864838D02*
X118695863Y-96960076D01*
X118695863Y-96960076D02*
X118743482Y-97055314D01*
X118743482Y-97055314D02*
X118791101Y-97245790D01*
X118791101Y-97245790D02*
X118791101Y-97388647D01*
X118791101Y-97388647D02*
X118743482Y-97579123D01*
X118743482Y-97579123D02*
X118695863Y-97674361D01*
X118695863Y-97674361D02*
X118600625Y-97769600D01*
X118600625Y-97769600D02*
X118457768Y-97817219D01*
X118457768Y-97817219D02*
X118219673Y-97817219D01*
X119410149Y-96817219D02*
X119600625Y-96817219D01*
X119600625Y-96817219D02*
X119695863Y-96864838D01*
X119695863Y-96864838D02*
X119791101Y-96960076D01*
X119791101Y-96960076D02*
X119838720Y-97150552D01*
X119838720Y-97150552D02*
X119838720Y-97483885D01*
X119838720Y-97483885D02*
X119791101Y-97674361D01*
X119791101Y-97674361D02*
X119695863Y-97769600D01*
X119695863Y-97769600D02*
X119600625Y-97817219D01*
X119600625Y-97817219D02*
X119410149Y-97817219D01*
X119410149Y-97817219D02*
X119314911Y-97769600D01*
X119314911Y-97769600D02*
X119219673Y-97674361D01*
X119219673Y-97674361D02*
X119172054Y-97483885D01*
X119172054Y-97483885D02*
X119172054Y-97150552D01*
X119172054Y-97150552D02*
X119219673Y-96960076D01*
X119219673Y-96960076D02*
X119314911Y-96864838D01*
X119314911Y-96864838D02*
X119410149Y-96817219D01*
X121029197Y-97817219D02*
X121029197Y-96817219D01*
X121029197Y-96817219D02*
X121600625Y-97817219D01*
X121600625Y-97817219D02*
X121600625Y-96817219D01*
X122267292Y-96817219D02*
X122457768Y-96817219D01*
X122457768Y-96817219D02*
X122553006Y-96864838D01*
X122553006Y-96864838D02*
X122648244Y-96960076D01*
X122648244Y-96960076D02*
X122695863Y-97150552D01*
X122695863Y-97150552D02*
X122695863Y-97483885D01*
X122695863Y-97483885D02*
X122648244Y-97674361D01*
X122648244Y-97674361D02*
X122553006Y-97769600D01*
X122553006Y-97769600D02*
X122457768Y-97817219D01*
X122457768Y-97817219D02*
X122267292Y-97817219D01*
X122267292Y-97817219D02*
X122172054Y-97769600D01*
X122172054Y-97769600D02*
X122076816Y-97674361D01*
X122076816Y-97674361D02*
X122029197Y-97483885D01*
X122029197Y-97483885D02*
X122029197Y-97150552D01*
X122029197Y-97150552D02*
X122076816Y-96960076D01*
X122076816Y-96960076D02*
X122172054Y-96864838D01*
X122172054Y-96864838D02*
X122267292Y-96817219D01*
X122981578Y-96817219D02*
X123553006Y-96817219D01*
X123267292Y-97817219D02*
X123267292Y-96817219D01*
X125219673Y-97721980D02*
X125172054Y-97769600D01*
X125172054Y-97769600D02*
X125029197Y-97817219D01*
X125029197Y-97817219D02*
X124933959Y-97817219D01*
X124933959Y-97817219D02*
X124791102Y-97769600D01*
X124791102Y-97769600D02*
X124695864Y-97674361D01*
X124695864Y-97674361D02*
X124648245Y-97579123D01*
X124648245Y-97579123D02*
X124600626Y-97388647D01*
X124600626Y-97388647D02*
X124600626Y-97245790D01*
X124600626Y-97245790D02*
X124648245Y-97055314D01*
X124648245Y-97055314D02*
X124695864Y-96960076D01*
X124695864Y-96960076D02*
X124791102Y-96864838D01*
X124791102Y-96864838D02*
X124933959Y-96817219D01*
X124933959Y-96817219D02*
X125029197Y-96817219D01*
X125029197Y-96817219D02*
X125172054Y-96864838D01*
X125172054Y-96864838D02*
X125219673Y-96912457D01*
X125648245Y-96817219D02*
X125648245Y-97626742D01*
X125648245Y-97626742D02*
X125695864Y-97721980D01*
X125695864Y-97721980D02*
X125743483Y-97769600D01*
X125743483Y-97769600D02*
X125838721Y-97817219D01*
X125838721Y-97817219D02*
X126029197Y-97817219D01*
X126029197Y-97817219D02*
X126124435Y-97769600D01*
X126124435Y-97769600D02*
X126172054Y-97721980D01*
X126172054Y-97721980D02*
X126219673Y-97626742D01*
X126219673Y-97626742D02*
X126219673Y-96817219D01*
X126553007Y-96817219D02*
X127124435Y-96817219D01*
X126838721Y-97817219D02*
X126838721Y-96817219D01*
X128172055Y-97531504D02*
X128648245Y-97531504D01*
X128076817Y-97817219D02*
X128410150Y-96817219D01*
X128410150Y-96817219D02*
X128743483Y-97817219D01*
X129076817Y-97817219D02*
X129076817Y-96817219D01*
X129076817Y-96817219D02*
X129648245Y-97817219D01*
X129648245Y-97817219D02*
X129648245Y-96817219D01*
X130314912Y-97341028D02*
X130314912Y-97817219D01*
X129981579Y-96817219D02*
X130314912Y-97341028D01*
X130314912Y-97341028D02*
X130648245Y-96817219D01*
X130838722Y-96817219D02*
X131410150Y-96817219D01*
X131124436Y-97817219D02*
X131124436Y-96817219D01*
X131743484Y-97817219D02*
X131743484Y-96817219D01*
X131743484Y-97293409D02*
X132314912Y-97293409D01*
X132314912Y-97817219D02*
X132314912Y-96817219D01*
X132791103Y-97817219D02*
X132791103Y-96817219D01*
X133267293Y-97817219D02*
X133267293Y-96817219D01*
X133267293Y-96817219D02*
X133838721Y-97817219D01*
X133838721Y-97817219D02*
X133838721Y-96817219D01*
X134838721Y-96864838D02*
X134743483Y-96817219D01*
X134743483Y-96817219D02*
X134600626Y-96817219D01*
X134600626Y-96817219D02*
X134457769Y-96864838D01*
X134457769Y-96864838D02*
X134362531Y-96960076D01*
X134362531Y-96960076D02*
X134314912Y-97055314D01*
X134314912Y-97055314D02*
X134267293Y-97245790D01*
X134267293Y-97245790D02*
X134267293Y-97388647D01*
X134267293Y-97388647D02*
X134314912Y-97579123D01*
X134314912Y-97579123D02*
X134362531Y-97674361D01*
X134362531Y-97674361D02*
X134457769Y-97769600D01*
X134457769Y-97769600D02*
X134600626Y-97817219D01*
X134600626Y-97817219D02*
X134695864Y-97817219D01*
X134695864Y-97817219D02*
X134838721Y-97769600D01*
X134838721Y-97769600D02*
X134886340Y-97721980D01*
X134886340Y-97721980D02*
X134886340Y-97388647D01*
X134886340Y-97388647D02*
X134695864Y-97388647D01*
X99714838Y-73006517D02*
X99667219Y-73101755D01*
X99667219Y-73101755D02*
X99667219Y-73244612D01*
X99667219Y-73244612D02*
X99714838Y-73387469D01*
X99714838Y-73387469D02*
X99810076Y-73482707D01*
X99810076Y-73482707D02*
X99905314Y-73530326D01*
X99905314Y-73530326D02*
X100095790Y-73577945D01*
X100095790Y-73577945D02*
X100238647Y-73577945D01*
X100238647Y-73577945D02*
X100429123Y-73530326D01*
X100429123Y-73530326D02*
X100524361Y-73482707D01*
X100524361Y-73482707D02*
X100619600Y-73387469D01*
X100619600Y-73387469D02*
X100667219Y-73244612D01*
X100667219Y-73244612D02*
X100667219Y-73149374D01*
X100667219Y-73149374D02*
X100619600Y-73006517D01*
X100619600Y-73006517D02*
X100571980Y-72958898D01*
X100571980Y-72958898D02*
X100238647Y-72958898D01*
X100238647Y-72958898D02*
X100238647Y-73149374D01*
X100667219Y-76430326D02*
X99667219Y-76430326D01*
X99667219Y-76430326D02*
X99667219Y-76192231D01*
X99667219Y-76192231D02*
X99714838Y-76049374D01*
X99714838Y-76049374D02*
X99810076Y-75954136D01*
X99810076Y-75954136D02*
X99905314Y-75906517D01*
X99905314Y-75906517D02*
X100095790Y-75858898D01*
X100095790Y-75858898D02*
X100238647Y-75858898D01*
X100238647Y-75858898D02*
X100429123Y-75906517D01*
X100429123Y-75906517D02*
X100524361Y-75954136D01*
X100524361Y-75954136D02*
X100619600Y-76049374D01*
X100619600Y-76049374D02*
X100667219Y-76192231D01*
X100667219Y-76192231D02*
X100667219Y-76430326D01*
X100286266Y-75430326D02*
X100286266Y-74668422D01*
X100667219Y-78930326D02*
X99667219Y-78930326D01*
X99667219Y-78930326D02*
X99667219Y-78692231D01*
X99667219Y-78692231D02*
X99714838Y-78549374D01*
X99714838Y-78549374D02*
X99810076Y-78454136D01*
X99810076Y-78454136D02*
X99905314Y-78406517D01*
X99905314Y-78406517D02*
X100095790Y-78358898D01*
X100095790Y-78358898D02*
X100238647Y-78358898D01*
X100238647Y-78358898D02*
X100429123Y-78406517D01*
X100429123Y-78406517D02*
X100524361Y-78454136D01*
X100524361Y-78454136D02*
X100619600Y-78549374D01*
X100619600Y-78549374D02*
X100667219Y-78692231D01*
X100667219Y-78692231D02*
X100667219Y-78930326D01*
X100286266Y-77930326D02*
X100286266Y-77168422D01*
X100667219Y-77549374D02*
X99905314Y-77549374D01*
X100717219Y-81958898D02*
X100241028Y-82292231D01*
X100717219Y-82530326D02*
X99717219Y-82530326D01*
X99717219Y-82530326D02*
X99717219Y-82149374D01*
X99717219Y-82149374D02*
X99764838Y-82054136D01*
X99764838Y-82054136D02*
X99812457Y-82006517D01*
X99812457Y-82006517D02*
X99907695Y-81958898D01*
X99907695Y-81958898D02*
X100050552Y-81958898D01*
X100050552Y-81958898D02*
X100145790Y-82006517D01*
X100145790Y-82006517D02*
X100193409Y-82054136D01*
X100193409Y-82054136D02*
X100241028Y-82149374D01*
X100241028Y-82149374D02*
X100241028Y-82530326D01*
X99717219Y-81625564D02*
X100717219Y-80958898D01*
X99717219Y-80958898D02*
X100717219Y-81625564D01*
X99717219Y-85273183D02*
X99717219Y-84701755D01*
X100717219Y-84987469D02*
X99717219Y-84987469D01*
X99717219Y-84463659D02*
X100717219Y-83796993D01*
X99717219Y-83796993D02*
X100717219Y-84463659D01*
X99764838Y-86806517D02*
X99717219Y-86901755D01*
X99717219Y-86901755D02*
X99717219Y-87044612D01*
X99717219Y-87044612D02*
X99764838Y-87187469D01*
X99764838Y-87187469D02*
X99860076Y-87282707D01*
X99860076Y-87282707D02*
X99955314Y-87330326D01*
X99955314Y-87330326D02*
X100145790Y-87377945D01*
X100145790Y-87377945D02*
X100288647Y-87377945D01*
X100288647Y-87377945D02*
X100479123Y-87330326D01*
X100479123Y-87330326D02*
X100574361Y-87282707D01*
X100574361Y-87282707D02*
X100669600Y-87187469D01*
X100669600Y-87187469D02*
X100717219Y-87044612D01*
X100717219Y-87044612D02*
X100717219Y-86949374D01*
X100717219Y-86949374D02*
X100669600Y-86806517D01*
X100669600Y-86806517D02*
X100621980Y-86758898D01*
X100621980Y-86758898D02*
X100288647Y-86758898D01*
X100288647Y-86758898D02*
X100288647Y-86949374D01*
X106644711Y-118832491D02*
X105937604Y-119539598D01*
X105937604Y-119539598D02*
X105769245Y-119371239D01*
X105769245Y-119371239D02*
X105701902Y-119236552D01*
X105701902Y-119236552D02*
X105701902Y-119101865D01*
X105701902Y-119101865D02*
X105735573Y-119000850D01*
X105735573Y-119000850D02*
X105836589Y-118832491D01*
X105836589Y-118832491D02*
X105937604Y-118731476D01*
X105937604Y-118731476D02*
X106105963Y-118630461D01*
X106105963Y-118630461D02*
X106206978Y-118596789D01*
X106206978Y-118596789D02*
X106341665Y-118596789D01*
X106341665Y-118596789D02*
X106476352Y-118664133D01*
X106476352Y-118664133D02*
X106644711Y-118832491D01*
X105937604Y-118125385D02*
X105230497Y-118832491D01*
X105230497Y-118832491D02*
X105533543Y-117721324D01*
X105533543Y-117721324D02*
X104826436Y-118428430D01*
X104725421Y-117047889D02*
X104792764Y-117047889D01*
X104792764Y-117047889D02*
X104927451Y-117115232D01*
X104927451Y-117115232D02*
X104994795Y-117182576D01*
X104994795Y-117182576D02*
X105062138Y-117317263D01*
X105062138Y-117317263D02*
X105062138Y-117451950D01*
X105062138Y-117451950D02*
X105028467Y-117552965D01*
X105028467Y-117552965D02*
X104927451Y-117721324D01*
X104927451Y-117721324D02*
X104826436Y-117822339D01*
X104826436Y-117822339D02*
X104658077Y-117923354D01*
X104658077Y-117923354D02*
X104557062Y-117957026D01*
X104557062Y-117957026D02*
X104422375Y-117957026D01*
X104422375Y-117957026D02*
X104287688Y-117889682D01*
X104287688Y-117889682D02*
X104220345Y-117822339D01*
X104220345Y-117822339D02*
X104153001Y-117687652D01*
X104153001Y-117687652D02*
X104153001Y-117620308D01*
X108944711Y-118899835D02*
X108877367Y-118765148D01*
X108877367Y-118765148D02*
X108709008Y-118596789D01*
X108709008Y-118596789D02*
X108607993Y-118563117D01*
X108607993Y-118563117D02*
X108540650Y-118563117D01*
X108540650Y-118563117D02*
X108439634Y-118596789D01*
X108439634Y-118596789D02*
X108372291Y-118664133D01*
X108372291Y-118664133D02*
X108338619Y-118765148D01*
X108338619Y-118765148D02*
X108338619Y-118832491D01*
X108338619Y-118832491D02*
X108372291Y-118933507D01*
X108372291Y-118933507D02*
X108473306Y-119101865D01*
X108473306Y-119101865D02*
X108506978Y-119202881D01*
X108506978Y-119202881D02*
X108506978Y-119270224D01*
X108506978Y-119270224D02*
X108473306Y-119371239D01*
X108473306Y-119371239D02*
X108405963Y-119438583D01*
X108405963Y-119438583D02*
X108304947Y-119472255D01*
X108304947Y-119472255D02*
X108237604Y-119472255D01*
X108237604Y-119472255D02*
X108136589Y-119438583D01*
X108136589Y-119438583D02*
X107968230Y-119270224D01*
X107968230Y-119270224D02*
X107900886Y-119135537D01*
X108271276Y-118159056D02*
X107564169Y-118866163D01*
X107564169Y-118866163D02*
X107395810Y-118697804D01*
X107395810Y-118697804D02*
X107328467Y-118563117D01*
X107328467Y-118563117D02*
X107328467Y-118428430D01*
X107328467Y-118428430D02*
X107362138Y-118327415D01*
X107362138Y-118327415D02*
X107463154Y-118159056D01*
X107463154Y-118159056D02*
X107564169Y-118058041D01*
X107564169Y-118058041D02*
X107732528Y-117957026D01*
X107732528Y-117957026D02*
X107833543Y-117923354D01*
X107833543Y-117923354D02*
X107968230Y-117923354D01*
X107968230Y-117923354D02*
X108102917Y-117990698D01*
X108102917Y-117990698D02*
X108271276Y-118159056D01*
X107395810Y-117687652D02*
X107059093Y-117350934D01*
X107665184Y-117552965D02*
X106722375Y-118024369D01*
X106722375Y-118024369D02*
X107193780Y-117081560D01*
X109138619Y-125467178D02*
X109071276Y-125332491D01*
X109071276Y-125332491D02*
X109071276Y-125265148D01*
X109071276Y-125265148D02*
X109104947Y-125164133D01*
X109104947Y-125164133D02*
X109205963Y-125063117D01*
X109205963Y-125063117D02*
X109306978Y-125029446D01*
X109306978Y-125029446D02*
X109374321Y-125029446D01*
X109374321Y-125029446D02*
X109475337Y-125063117D01*
X109475337Y-125063117D02*
X109744711Y-125332491D01*
X109744711Y-125332491D02*
X109037604Y-126039598D01*
X109037604Y-126039598D02*
X108801902Y-125803896D01*
X108801902Y-125803896D02*
X108768230Y-125702881D01*
X108768230Y-125702881D02*
X108768230Y-125635537D01*
X108768230Y-125635537D02*
X108801902Y-125534522D01*
X108801902Y-125534522D02*
X108869245Y-125467178D01*
X108869245Y-125467178D02*
X108970260Y-125433507D01*
X108970260Y-125433507D02*
X109037604Y-125433507D01*
X109037604Y-125433507D02*
X109138619Y-125467178D01*
X109138619Y-125467178D02*
X109374321Y-125702881D01*
X108195810Y-125197804D02*
X108061123Y-125063117D01*
X108061123Y-125063117D02*
X108027451Y-124962102D01*
X108027451Y-124962102D02*
X108027451Y-124827415D01*
X108027451Y-124827415D02*
X108128467Y-124659056D01*
X108128467Y-124659056D02*
X108364169Y-124423354D01*
X108364169Y-124423354D02*
X108532528Y-124322339D01*
X108532528Y-124322339D02*
X108667215Y-124322339D01*
X108667215Y-124322339D02*
X108768230Y-124356011D01*
X108768230Y-124356011D02*
X108902917Y-124490698D01*
X108902917Y-124490698D02*
X108936589Y-124591713D01*
X108936589Y-124591713D02*
X108936589Y-124726400D01*
X108936589Y-124726400D02*
X108835573Y-124894759D01*
X108835573Y-124894759D02*
X108599871Y-125130461D01*
X108599871Y-125130461D02*
X108431512Y-125231476D01*
X108431512Y-125231476D02*
X108296825Y-125231476D01*
X108296825Y-125231476D02*
X108195810Y-125197804D01*
X107455032Y-124457026D02*
X107320345Y-124322339D01*
X107320345Y-124322339D02*
X107286673Y-124221324D01*
X107286673Y-124221324D02*
X107286673Y-124086637D01*
X107286673Y-124086637D02*
X107387688Y-123918278D01*
X107387688Y-123918278D02*
X107623390Y-123682576D01*
X107623390Y-123682576D02*
X107791749Y-123581560D01*
X107791749Y-123581560D02*
X107926436Y-123581560D01*
X107926436Y-123581560D02*
X108027451Y-123615232D01*
X108027451Y-123615232D02*
X108162138Y-123749919D01*
X108162138Y-123749919D02*
X108195810Y-123850934D01*
X108195810Y-123850934D02*
X108195810Y-123985621D01*
X108195810Y-123985621D02*
X108094795Y-124153980D01*
X108094795Y-124153980D02*
X107859093Y-124389682D01*
X107859093Y-124389682D02*
X107690734Y-124490698D01*
X107690734Y-124490698D02*
X107556047Y-124490698D01*
X107556047Y-124490698D02*
X107455032Y-124457026D01*
X106949955Y-123951950D02*
X106545894Y-123547889D01*
X107455032Y-123042812D02*
X106747925Y-123749919D01*
X110200886Y-119135537D02*
X110234558Y-119236552D01*
X110234558Y-119236552D02*
X110335573Y-119337568D01*
X110335573Y-119337568D02*
X110470260Y-119404911D01*
X110470260Y-119404911D02*
X110604947Y-119404911D01*
X110604947Y-119404911D02*
X110705963Y-119371239D01*
X110705963Y-119371239D02*
X110874321Y-119270224D01*
X110874321Y-119270224D02*
X110975337Y-119169209D01*
X110975337Y-119169209D02*
X111076352Y-119000850D01*
X111076352Y-119000850D02*
X111110024Y-118899835D01*
X111110024Y-118899835D02*
X111110024Y-118765148D01*
X111110024Y-118765148D02*
X111042680Y-118630461D01*
X111042680Y-118630461D02*
X110975337Y-118563117D01*
X110975337Y-118563117D02*
X110840650Y-118495774D01*
X110840650Y-118495774D02*
X110773306Y-118495774D01*
X110773306Y-118495774D02*
X110537604Y-118731476D01*
X110537604Y-118731476D02*
X110672291Y-118866163D01*
X110537604Y-118125385D02*
X109830497Y-118832491D01*
X109830497Y-118832491D02*
X110133543Y-117721324D01*
X110133543Y-117721324D02*
X109426436Y-118428430D01*
X109796825Y-117384606D02*
X109089719Y-118091713D01*
X109089719Y-118091713D02*
X108921360Y-117923354D01*
X108921360Y-117923354D02*
X108854016Y-117788667D01*
X108854016Y-117788667D02*
X108854016Y-117653980D01*
X108854016Y-117653980D02*
X108887688Y-117552965D01*
X108887688Y-117552965D02*
X108988703Y-117384606D01*
X108988703Y-117384606D02*
X109089719Y-117283591D01*
X109089719Y-117283591D02*
X109258077Y-117182576D01*
X109258077Y-117182576D02*
X109359093Y-117148904D01*
X109359093Y-117148904D02*
X109493780Y-117148904D01*
X109493780Y-117148904D02*
X109628467Y-117216247D01*
X109628467Y-117216247D02*
X109796825Y-117384606D01*
X110900886Y-125035537D02*
X110934558Y-125136552D01*
X110934558Y-125136552D02*
X111035573Y-125237568D01*
X111035573Y-125237568D02*
X111170260Y-125304911D01*
X111170260Y-125304911D02*
X111304947Y-125304911D01*
X111304947Y-125304911D02*
X111405963Y-125271239D01*
X111405963Y-125271239D02*
X111574321Y-125170224D01*
X111574321Y-125170224D02*
X111675337Y-125069209D01*
X111675337Y-125069209D02*
X111776352Y-124900850D01*
X111776352Y-124900850D02*
X111810024Y-124799835D01*
X111810024Y-124799835D02*
X111810024Y-124665148D01*
X111810024Y-124665148D02*
X111742680Y-124530461D01*
X111742680Y-124530461D02*
X111675337Y-124463117D01*
X111675337Y-124463117D02*
X111540650Y-124395774D01*
X111540650Y-124395774D02*
X111473306Y-124395774D01*
X111473306Y-124395774D02*
X111237604Y-124631476D01*
X111237604Y-124631476D02*
X111372291Y-124766163D01*
X111237604Y-124025385D02*
X110530497Y-124732491D01*
X110530497Y-124732491D02*
X110833543Y-123621324D01*
X110833543Y-123621324D02*
X110126436Y-124328430D01*
X110496825Y-123284606D02*
X109789719Y-123991713D01*
X109789719Y-123991713D02*
X109621360Y-123823354D01*
X109621360Y-123823354D02*
X109554016Y-123688667D01*
X109554016Y-123688667D02*
X109554016Y-123553980D01*
X109554016Y-123553980D02*
X109587688Y-123452965D01*
X109587688Y-123452965D02*
X109688703Y-123284606D01*
X109688703Y-123284606D02*
X109789719Y-123183591D01*
X109789719Y-123183591D02*
X109958077Y-123082576D01*
X109958077Y-123082576D02*
X110059093Y-123048904D01*
X110059093Y-123048904D02*
X110193780Y-123048904D01*
X110193780Y-123048904D02*
X110328467Y-123116247D01*
X110328467Y-123116247D02*
X110496825Y-123284606D01*
X113444711Y-118799835D02*
X113377367Y-118665148D01*
X113377367Y-118665148D02*
X113209008Y-118496789D01*
X113209008Y-118496789D02*
X113107993Y-118463117D01*
X113107993Y-118463117D02*
X113040650Y-118463117D01*
X113040650Y-118463117D02*
X112939634Y-118496789D01*
X112939634Y-118496789D02*
X112872291Y-118564133D01*
X112872291Y-118564133D02*
X112838619Y-118665148D01*
X112838619Y-118665148D02*
X112838619Y-118732491D01*
X112838619Y-118732491D02*
X112872291Y-118833507D01*
X112872291Y-118833507D02*
X112973306Y-119001865D01*
X112973306Y-119001865D02*
X113006978Y-119102881D01*
X113006978Y-119102881D02*
X113006978Y-119170224D01*
X113006978Y-119170224D02*
X112973306Y-119271239D01*
X112973306Y-119271239D02*
X112905963Y-119338583D01*
X112905963Y-119338583D02*
X112804947Y-119372255D01*
X112804947Y-119372255D02*
X112737604Y-119372255D01*
X112737604Y-119372255D02*
X112636589Y-119338583D01*
X112636589Y-119338583D02*
X112468230Y-119170224D01*
X112468230Y-119170224D02*
X112400886Y-119035537D01*
X112299871Y-117722339D02*
X112367215Y-117722339D01*
X112367215Y-117722339D02*
X112501902Y-117789682D01*
X112501902Y-117789682D02*
X112569245Y-117857026D01*
X112569245Y-117857026D02*
X112636589Y-117991713D01*
X112636589Y-117991713D02*
X112636589Y-118126400D01*
X112636589Y-118126400D02*
X112602917Y-118227415D01*
X112602917Y-118227415D02*
X112501902Y-118395774D01*
X112501902Y-118395774D02*
X112400886Y-118496789D01*
X112400886Y-118496789D02*
X112232528Y-118597804D01*
X112232528Y-118597804D02*
X112131512Y-118631476D01*
X112131512Y-118631476D02*
X111996825Y-118631476D01*
X111996825Y-118631476D02*
X111862138Y-118564133D01*
X111862138Y-118564133D02*
X111794795Y-118496789D01*
X111794795Y-118496789D02*
X111727451Y-118362102D01*
X111727451Y-118362102D02*
X111727451Y-118294759D01*
X111727451Y-117015232D02*
X112064169Y-117351950D01*
X112064169Y-117351950D02*
X111357062Y-118059056D01*
X113574321Y-124502881D02*
X113338619Y-124267178D01*
X113607993Y-123795774D02*
X113944711Y-124132491D01*
X113944711Y-124132491D02*
X113237604Y-124839598D01*
X113237604Y-124839598D02*
X112900886Y-124502881D01*
X113304947Y-123492728D02*
X112597841Y-124199835D01*
X112597841Y-124199835D02*
X112900886Y-123088667D01*
X112900886Y-123088667D02*
X112193780Y-123795774D01*
X115204947Y-119606942D02*
X114767215Y-119169209D01*
X114767215Y-119169209D02*
X115272291Y-119135537D01*
X115272291Y-119135537D02*
X115171276Y-119034522D01*
X115171276Y-119034522D02*
X115137604Y-118933507D01*
X115137604Y-118933507D02*
X115137604Y-118866163D01*
X115137604Y-118866163D02*
X115171276Y-118765148D01*
X115171276Y-118765148D02*
X115339634Y-118596789D01*
X115339634Y-118596789D02*
X115440650Y-118563117D01*
X115440650Y-118563117D02*
X115507993Y-118563117D01*
X115507993Y-118563117D02*
X115609008Y-118596789D01*
X115609008Y-118596789D02*
X115811039Y-118798820D01*
X115811039Y-118798820D02*
X115844711Y-118899835D01*
X115844711Y-118899835D02*
X115844711Y-118967178D01*
X114565184Y-118967178D02*
X115036589Y-118024369D01*
X115036589Y-118024369D02*
X114093780Y-118495774D01*
X113925421Y-118327415D02*
X113487688Y-117889682D01*
X113487688Y-117889682D02*
X113992764Y-117856010D01*
X113992764Y-117856010D02*
X113891749Y-117754995D01*
X113891749Y-117754995D02*
X113858077Y-117653980D01*
X113858077Y-117653980D02*
X113858077Y-117586636D01*
X113858077Y-117586636D02*
X113891749Y-117485621D01*
X113891749Y-117485621D02*
X114060108Y-117317262D01*
X114060108Y-117317262D02*
X114161123Y-117283591D01*
X114161123Y-117283591D02*
X114228467Y-117283591D01*
X114228467Y-117283591D02*
X114329482Y-117317262D01*
X114329482Y-117317262D02*
X114531512Y-117519293D01*
X114531512Y-117519293D02*
X114565184Y-117620308D01*
X114565184Y-117620308D02*
X114565184Y-117687652D01*
D13*
X138010514Y-109906913D02*
X138367657Y-111306913D01*
X138367657Y-111306913D02*
X138653371Y-110306913D01*
X138653371Y-110306913D02*
X138939086Y-111306913D01*
X138939086Y-111306913D02*
X139296229Y-109906913D01*
X139867657Y-111306913D02*
X139867657Y-110373580D01*
X139867657Y-109906913D02*
X139796229Y-109973580D01*
X139796229Y-109973580D02*
X139867657Y-110040247D01*
X139867657Y-110040247D02*
X139939086Y-109973580D01*
X139939086Y-109973580D02*
X139867657Y-109906913D01*
X139867657Y-109906913D02*
X139867657Y-110040247D01*
X140367658Y-110373580D02*
X140939086Y-110373580D01*
X140581943Y-109906913D02*
X140581943Y-111106913D01*
X140581943Y-111106913D02*
X140653372Y-111240247D01*
X140653372Y-111240247D02*
X140796229Y-111306913D01*
X140796229Y-111306913D02*
X140939086Y-111306913D01*
X141439086Y-111306913D02*
X141439086Y-109906913D01*
X142081944Y-111306913D02*
X142081944Y-110573580D01*
X142081944Y-110573580D02*
X142010515Y-110440247D01*
X142010515Y-110440247D02*
X141867658Y-110373580D01*
X141867658Y-110373580D02*
X141653372Y-110373580D01*
X141653372Y-110373580D02*
X141510515Y-110440247D01*
X141510515Y-110440247D02*
X141439086Y-110506913D01*
X143939086Y-111306913D02*
X143939086Y-110373580D01*
X143939086Y-110506913D02*
X144010515Y-110440247D01*
X144010515Y-110440247D02*
X144153372Y-110373580D01*
X144153372Y-110373580D02*
X144367658Y-110373580D01*
X144367658Y-110373580D02*
X144510515Y-110440247D01*
X144510515Y-110440247D02*
X144581944Y-110573580D01*
X144581944Y-110573580D02*
X144581944Y-111306913D01*
X144581944Y-110573580D02*
X144653372Y-110440247D01*
X144653372Y-110440247D02*
X144796229Y-110373580D01*
X144796229Y-110373580D02*
X145010515Y-110373580D01*
X145010515Y-110373580D02*
X145153372Y-110440247D01*
X145153372Y-110440247D02*
X145224801Y-110573580D01*
X145224801Y-110573580D02*
X145224801Y-111306913D01*
X145939086Y-111306913D02*
X145939086Y-110373580D01*
X145939086Y-109906913D02*
X145867658Y-109973580D01*
X145867658Y-109973580D02*
X145939086Y-110040247D01*
X145939086Y-110040247D02*
X146010515Y-109973580D01*
X146010515Y-109973580D02*
X145939086Y-109906913D01*
X145939086Y-109906913D02*
X145939086Y-110040247D01*
X146653372Y-110373580D02*
X146653372Y-111306913D01*
X146653372Y-110506913D02*
X146724801Y-110440247D01*
X146724801Y-110440247D02*
X146867658Y-110373580D01*
X146867658Y-110373580D02*
X147081944Y-110373580D01*
X147081944Y-110373580D02*
X147224801Y-110440247D01*
X147224801Y-110440247D02*
X147296230Y-110573580D01*
X147296230Y-110573580D02*
X147296230Y-111306913D01*
X148653373Y-111306913D02*
X148653373Y-109906913D01*
X148653373Y-111240247D02*
X148510515Y-111306913D01*
X148510515Y-111306913D02*
X148224801Y-111306913D01*
X148224801Y-111306913D02*
X148081944Y-111240247D01*
X148081944Y-111240247D02*
X148010515Y-111173580D01*
X148010515Y-111173580D02*
X147939087Y-111040247D01*
X147939087Y-111040247D02*
X147939087Y-110640247D01*
X147939087Y-110640247D02*
X148010515Y-110506913D01*
X148010515Y-110506913D02*
X148081944Y-110440247D01*
X148081944Y-110440247D02*
X148224801Y-110373580D01*
X148224801Y-110373580D02*
X148510515Y-110373580D01*
X148510515Y-110373580D02*
X148653373Y-110440247D01*
X150296230Y-110373580D02*
X150867658Y-110373580D01*
X150510515Y-109906913D02*
X150510515Y-111106913D01*
X150510515Y-111106913D02*
X150581944Y-111240247D01*
X150581944Y-111240247D02*
X150724801Y-111306913D01*
X150724801Y-111306913D02*
X150867658Y-111306913D01*
X151581944Y-111306913D02*
X151439087Y-111240247D01*
X151439087Y-111240247D02*
X151367658Y-111173580D01*
X151367658Y-111173580D02*
X151296230Y-111040247D01*
X151296230Y-111040247D02*
X151296230Y-110640247D01*
X151296230Y-110640247D02*
X151367658Y-110506913D01*
X151367658Y-110506913D02*
X151439087Y-110440247D01*
X151439087Y-110440247D02*
X151581944Y-110373580D01*
X151581944Y-110373580D02*
X151796230Y-110373580D01*
X151796230Y-110373580D02*
X151939087Y-110440247D01*
X151939087Y-110440247D02*
X152010516Y-110506913D01*
X152010516Y-110506913D02*
X152081944Y-110640247D01*
X152081944Y-110640247D02*
X152081944Y-111040247D01*
X152081944Y-111040247D02*
X152010516Y-111173580D01*
X152010516Y-111173580D02*
X151939087Y-111240247D01*
X151939087Y-111240247D02*
X151796230Y-111306913D01*
X151796230Y-111306913D02*
X151581944Y-111306913D01*
X153867658Y-110373580D02*
X153867658Y-111773580D01*
X153867658Y-110440247D02*
X154010516Y-110373580D01*
X154010516Y-110373580D02*
X154296230Y-110373580D01*
X154296230Y-110373580D02*
X154439087Y-110440247D01*
X154439087Y-110440247D02*
X154510516Y-110506913D01*
X154510516Y-110506913D02*
X154581944Y-110640247D01*
X154581944Y-110640247D02*
X154581944Y-111040247D01*
X154581944Y-111040247D02*
X154510516Y-111173580D01*
X154510516Y-111173580D02*
X154439087Y-111240247D01*
X154439087Y-111240247D02*
X154296230Y-111306913D01*
X154296230Y-111306913D02*
X154010516Y-111306913D01*
X154010516Y-111306913D02*
X153867658Y-111240247D01*
X155439087Y-111306913D02*
X155296230Y-111240247D01*
X155296230Y-111240247D02*
X155224801Y-111173580D01*
X155224801Y-111173580D02*
X155153373Y-111040247D01*
X155153373Y-111040247D02*
X155153373Y-110640247D01*
X155153373Y-110640247D02*
X155224801Y-110506913D01*
X155224801Y-110506913D02*
X155296230Y-110440247D01*
X155296230Y-110440247D02*
X155439087Y-110373580D01*
X155439087Y-110373580D02*
X155653373Y-110373580D01*
X155653373Y-110373580D02*
X155796230Y-110440247D01*
X155796230Y-110440247D02*
X155867659Y-110506913D01*
X155867659Y-110506913D02*
X155939087Y-110640247D01*
X155939087Y-110640247D02*
X155939087Y-111040247D01*
X155939087Y-111040247D02*
X155867659Y-111173580D01*
X155867659Y-111173580D02*
X155796230Y-111240247D01*
X155796230Y-111240247D02*
X155653373Y-111306913D01*
X155653373Y-111306913D02*
X155439087Y-111306913D01*
X156439087Y-110373580D02*
X156724802Y-111306913D01*
X156724802Y-111306913D02*
X157010516Y-110640247D01*
X157010516Y-110640247D02*
X157296230Y-111306913D01*
X157296230Y-111306913D02*
X157581944Y-110373580D01*
X158724802Y-111240247D02*
X158581945Y-111306913D01*
X158581945Y-111306913D02*
X158296231Y-111306913D01*
X158296231Y-111306913D02*
X158153373Y-111240247D01*
X158153373Y-111240247D02*
X158081945Y-111106913D01*
X158081945Y-111106913D02*
X158081945Y-110573580D01*
X158081945Y-110573580D02*
X158153373Y-110440247D01*
X158153373Y-110440247D02*
X158296231Y-110373580D01*
X158296231Y-110373580D02*
X158581945Y-110373580D01*
X158581945Y-110373580D02*
X158724802Y-110440247D01*
X158724802Y-110440247D02*
X158796231Y-110573580D01*
X158796231Y-110573580D02*
X158796231Y-110706913D01*
X158796231Y-110706913D02*
X158081945Y-110840247D01*
X159439087Y-111306913D02*
X159439087Y-110373580D01*
X159439087Y-110640247D02*
X159510516Y-110506913D01*
X159510516Y-110506913D02*
X159581945Y-110440247D01*
X159581945Y-110440247D02*
X159724802Y-110373580D01*
X159724802Y-110373580D02*
X159867659Y-110373580D01*
X161439087Y-111240247D02*
X161653373Y-111306913D01*
X161653373Y-111306913D02*
X162010515Y-111306913D01*
X162010515Y-111306913D02*
X162153373Y-111240247D01*
X162153373Y-111240247D02*
X162224801Y-111173580D01*
X162224801Y-111173580D02*
X162296230Y-111040247D01*
X162296230Y-111040247D02*
X162296230Y-110906913D01*
X162296230Y-110906913D02*
X162224801Y-110773580D01*
X162224801Y-110773580D02*
X162153373Y-110706913D01*
X162153373Y-110706913D02*
X162010515Y-110640247D01*
X162010515Y-110640247D02*
X161724801Y-110573580D01*
X161724801Y-110573580D02*
X161581944Y-110506913D01*
X161581944Y-110506913D02*
X161510515Y-110440247D01*
X161510515Y-110440247D02*
X161439087Y-110306913D01*
X161439087Y-110306913D02*
X161439087Y-110173580D01*
X161439087Y-110173580D02*
X161510515Y-110040247D01*
X161510515Y-110040247D02*
X161581944Y-109973580D01*
X161581944Y-109973580D02*
X161724801Y-109906913D01*
X161724801Y-109906913D02*
X162081944Y-109906913D01*
X162081944Y-109906913D02*
X162296230Y-109973580D01*
X163153372Y-111306913D02*
X163010515Y-111240247D01*
X163010515Y-111240247D02*
X162939086Y-111106913D01*
X162939086Y-111106913D02*
X162939086Y-109906913D01*
X163724800Y-111306913D02*
X163724800Y-110373580D01*
X163724800Y-109906913D02*
X163653372Y-109973580D01*
X163653372Y-109973580D02*
X163724800Y-110040247D01*
X163724800Y-110040247D02*
X163796229Y-109973580D01*
X163796229Y-109973580D02*
X163724800Y-109906913D01*
X163724800Y-109906913D02*
X163724800Y-110040247D01*
X164439086Y-111306913D02*
X164439086Y-110373580D01*
X164439086Y-110506913D02*
X164510515Y-110440247D01*
X164510515Y-110440247D02*
X164653372Y-110373580D01*
X164653372Y-110373580D02*
X164867658Y-110373580D01*
X164867658Y-110373580D02*
X165010515Y-110440247D01*
X165010515Y-110440247D02*
X165081944Y-110573580D01*
X165081944Y-110573580D02*
X165081944Y-111306913D01*
X165081944Y-110573580D02*
X165153372Y-110440247D01*
X165153372Y-110440247D02*
X165296229Y-110373580D01*
X165296229Y-110373580D02*
X165510515Y-110373580D01*
X165510515Y-110373580D02*
X165653372Y-110440247D01*
X165653372Y-110440247D02*
X165724801Y-110573580D01*
X165724801Y-110573580D02*
X165724801Y-111306913D01*
X167010515Y-111240247D02*
X166867658Y-111306913D01*
X166867658Y-111306913D02*
X166581944Y-111306913D01*
X166581944Y-111306913D02*
X166439086Y-111240247D01*
X166439086Y-111240247D02*
X166367658Y-111106913D01*
X166367658Y-111106913D02*
X166367658Y-110573580D01*
X166367658Y-110573580D02*
X166439086Y-110440247D01*
X166439086Y-110440247D02*
X166581944Y-110373580D01*
X166581944Y-110373580D02*
X166867658Y-110373580D01*
X166867658Y-110373580D02*
X167010515Y-110440247D01*
X167010515Y-110440247D02*
X167081944Y-110573580D01*
X167081944Y-110573580D02*
X167081944Y-110706913D01*
X167081944Y-110706913D02*
X166367658Y-110840247D01*
X167510515Y-109906913D02*
X168010515Y-111306913D01*
X168010515Y-111306913D02*
X168510515Y-109906913D01*
X169867657Y-111306913D02*
X169367657Y-110640247D01*
X169010514Y-111306913D02*
X169010514Y-109906913D01*
X169010514Y-109906913D02*
X169581943Y-109906913D01*
X169581943Y-109906913D02*
X169724800Y-109973580D01*
X169724800Y-109973580D02*
X169796229Y-110040247D01*
X169796229Y-110040247D02*
X169867657Y-110173580D01*
X169867657Y-110173580D02*
X169867657Y-110373580D01*
X169867657Y-110373580D02*
X169796229Y-110506913D01*
X169796229Y-110506913D02*
X169724800Y-110573580D01*
X169724800Y-110573580D02*
X169581943Y-110640247D01*
X169581943Y-110640247D02*
X169010514Y-110640247D01*
X171439086Y-109906913D02*
X172296229Y-109906913D01*
X171867657Y-111306913D02*
X171867657Y-109906913D01*
X172796228Y-111306913D02*
X172796228Y-110373580D01*
X172796228Y-110640247D02*
X172867657Y-110506913D01*
X172867657Y-110506913D02*
X172939086Y-110440247D01*
X172939086Y-110440247D02*
X173081943Y-110373580D01*
X173081943Y-110373580D02*
X173224800Y-110373580D01*
X174367657Y-111306913D02*
X174367657Y-110573580D01*
X174367657Y-110573580D02*
X174296228Y-110440247D01*
X174296228Y-110440247D02*
X174153371Y-110373580D01*
X174153371Y-110373580D02*
X173867657Y-110373580D01*
X173867657Y-110373580D02*
X173724799Y-110440247D01*
X174367657Y-111240247D02*
X174224799Y-111306913D01*
X174224799Y-111306913D02*
X173867657Y-111306913D01*
X173867657Y-111306913D02*
X173724799Y-111240247D01*
X173724799Y-111240247D02*
X173653371Y-111106913D01*
X173653371Y-111106913D02*
X173653371Y-110973580D01*
X173653371Y-110973580D02*
X173724799Y-110840247D01*
X173724799Y-110840247D02*
X173867657Y-110773580D01*
X173867657Y-110773580D02*
X174224799Y-110773580D01*
X174224799Y-110773580D02*
X174367657Y-110706913D01*
X175724800Y-111240247D02*
X175581942Y-111306913D01*
X175581942Y-111306913D02*
X175296228Y-111306913D01*
X175296228Y-111306913D02*
X175153371Y-111240247D01*
X175153371Y-111240247D02*
X175081942Y-111173580D01*
X175081942Y-111173580D02*
X175010514Y-111040247D01*
X175010514Y-111040247D02*
X175010514Y-110640247D01*
X175010514Y-110640247D02*
X175081942Y-110506913D01*
X175081942Y-110506913D02*
X175153371Y-110440247D01*
X175153371Y-110440247D02*
X175296228Y-110373580D01*
X175296228Y-110373580D02*
X175581942Y-110373580D01*
X175581942Y-110373580D02*
X175724800Y-110440247D01*
X176367656Y-111306913D02*
X176367656Y-109906913D01*
X176510514Y-110773580D02*
X176939085Y-111306913D01*
X176939085Y-110373580D02*
X176367656Y-110906913D01*
X178153371Y-111240247D02*
X178010514Y-111306913D01*
X178010514Y-111306913D02*
X177724800Y-111306913D01*
X177724800Y-111306913D02*
X177581942Y-111240247D01*
X177581942Y-111240247D02*
X177510514Y-111106913D01*
X177510514Y-111106913D02*
X177510514Y-110573580D01*
X177510514Y-110573580D02*
X177581942Y-110440247D01*
X177581942Y-110440247D02*
X177724800Y-110373580D01*
X177724800Y-110373580D02*
X178010514Y-110373580D01*
X178010514Y-110373580D02*
X178153371Y-110440247D01*
X178153371Y-110440247D02*
X178224800Y-110573580D01*
X178224800Y-110573580D02*
X178224800Y-110706913D01*
X178224800Y-110706913D02*
X177510514Y-110840247D01*
X178867656Y-111306913D02*
X178867656Y-110373580D01*
X178867656Y-110640247D02*
X178939085Y-110506913D01*
X178939085Y-110506913D02*
X179010514Y-110440247D01*
X179010514Y-110440247D02*
X179153371Y-110373580D01*
X179153371Y-110373580D02*
X179296228Y-110373580D01*
X179724799Y-111240247D02*
X179867656Y-111306913D01*
X179867656Y-111306913D02*
X180153370Y-111306913D01*
X180153370Y-111306913D02*
X180296227Y-111240247D01*
X180296227Y-111240247D02*
X180367656Y-111106913D01*
X180367656Y-111106913D02*
X180367656Y-111040247D01*
X180367656Y-111040247D02*
X180296227Y-110906913D01*
X180296227Y-110906913D02*
X180153370Y-110840247D01*
X180153370Y-110840247D02*
X179939085Y-110840247D01*
X179939085Y-110840247D02*
X179796227Y-110773580D01*
X179796227Y-110773580D02*
X179724799Y-110640247D01*
X179724799Y-110640247D02*
X179724799Y-110573580D01*
X179724799Y-110573580D02*
X179796227Y-110440247D01*
X179796227Y-110440247D02*
X179939085Y-110373580D01*
X179939085Y-110373580D02*
X180153370Y-110373580D01*
X180153370Y-110373580D02*
X180296227Y-110440247D01*
D14*
X123866164Y-116701657D02*
X126009021Y-116701657D01*
X124723307Y-115415942D02*
X123866164Y-119273085D01*
X125723307Y-117987371D02*
X123580450Y-117987371D01*
X124866164Y-119273085D02*
X125723307Y-115415942D01*
X126866164Y-115987371D02*
X127009021Y-115844514D01*
X127009021Y-115844514D02*
X127294736Y-115701657D01*
X127294736Y-115701657D02*
X128009021Y-115701657D01*
X128009021Y-115701657D02*
X128294736Y-115844514D01*
X128294736Y-115844514D02*
X128437593Y-115987371D01*
X128437593Y-115987371D02*
X128580450Y-116273085D01*
X128580450Y-116273085D02*
X128580450Y-116558800D01*
X128580450Y-116558800D02*
X128437593Y-116987371D01*
X128437593Y-116987371D02*
X126723307Y-118701657D01*
X126723307Y-118701657D02*
X128580450Y-118701657D01*
X123966164Y-78401657D02*
X126109021Y-78401657D01*
X124823307Y-77115942D02*
X123966164Y-80973085D01*
X125823307Y-79687371D02*
X123680450Y-79687371D01*
X124966164Y-80973085D02*
X125823307Y-77115942D01*
X128680450Y-80401657D02*
X126966164Y-80401657D01*
X127823307Y-80401657D02*
X127823307Y-77401657D01*
X127823307Y-77401657D02*
X127537593Y-77830228D01*
X127537593Y-77830228D02*
X127251878Y-78115942D01*
X127251878Y-78115942D02*
X126966164Y-78258800D01*
X146266164Y-116701657D02*
X148409021Y-116701657D01*
X147123307Y-115415942D02*
X146266164Y-119273085D01*
X148123307Y-117987371D02*
X145980450Y-117987371D01*
X147266164Y-119273085D02*
X148123307Y-115415942D01*
X150694736Y-116701657D02*
X150694736Y-118701657D01*
X149980450Y-115558800D02*
X149266164Y-117701657D01*
X149266164Y-117701657D02*
X151123307Y-117701657D01*
X146366164Y-78401657D02*
X148509021Y-78401657D01*
X147223307Y-77115942D02*
X146366164Y-80973085D01*
X148223307Y-79687371D02*
X146080450Y-79687371D01*
X147366164Y-80973085D02*
X148223307Y-77115942D01*
X149223307Y-77401657D02*
X151080450Y-77401657D01*
X151080450Y-77401657D02*
X150080450Y-78544514D01*
X150080450Y-78544514D02*
X150509021Y-78544514D01*
X150509021Y-78544514D02*
X150794736Y-78687371D01*
X150794736Y-78687371D02*
X150937593Y-78830228D01*
X150937593Y-78830228D02*
X151080450Y-79115942D01*
X151080450Y-79115942D02*
X151080450Y-79830228D01*
X151080450Y-79830228D02*
X150937593Y-80115942D01*
X150937593Y-80115942D02*
X150794736Y-80258800D01*
X150794736Y-80258800D02*
X150509021Y-80401657D01*
X150509021Y-80401657D02*
X149651878Y-80401657D01*
X149651878Y-80401657D02*
X149366164Y-80258800D01*
X149366164Y-80258800D02*
X149223307Y-80115942D01*
X168566164Y-116701657D02*
X170709021Y-116701657D01*
X169423307Y-115415942D02*
X168566164Y-119273085D01*
X170423307Y-117987371D02*
X168280450Y-117987371D01*
X169566164Y-119273085D02*
X170423307Y-115415942D01*
X172994736Y-115701657D02*
X172423307Y-115701657D01*
X172423307Y-115701657D02*
X172137593Y-115844514D01*
X172137593Y-115844514D02*
X171994736Y-115987371D01*
X171994736Y-115987371D02*
X171709021Y-116415942D01*
X171709021Y-116415942D02*
X171566164Y-116987371D01*
X171566164Y-116987371D02*
X171566164Y-118130228D01*
X171566164Y-118130228D02*
X171709021Y-118415942D01*
X171709021Y-118415942D02*
X171851878Y-118558800D01*
X171851878Y-118558800D02*
X172137593Y-118701657D01*
X172137593Y-118701657D02*
X172709021Y-118701657D01*
X172709021Y-118701657D02*
X172994736Y-118558800D01*
X172994736Y-118558800D02*
X173137593Y-118415942D01*
X173137593Y-118415942D02*
X173280450Y-118130228D01*
X173280450Y-118130228D02*
X173280450Y-117415942D01*
X173280450Y-117415942D02*
X173137593Y-117130228D01*
X173137593Y-117130228D02*
X172994736Y-116987371D01*
X172994736Y-116987371D02*
X172709021Y-116844514D01*
X172709021Y-116844514D02*
X172137593Y-116844514D01*
X172137593Y-116844514D02*
X171851878Y-116987371D01*
X171851878Y-116987371D02*
X171709021Y-117130228D01*
X171709021Y-117130228D02*
X171566164Y-117415942D01*
X168666164Y-78401657D02*
X170809021Y-78401657D01*
X169523307Y-77115942D02*
X168666164Y-80973085D01*
X170523307Y-79687371D02*
X168380450Y-79687371D01*
X169666164Y-80973085D02*
X170523307Y-77115942D01*
X173237593Y-77401657D02*
X171809021Y-77401657D01*
X171809021Y-77401657D02*
X171666164Y-78830228D01*
X171666164Y-78830228D02*
X171809021Y-78687371D01*
X171809021Y-78687371D02*
X172094736Y-78544514D01*
X172094736Y-78544514D02*
X172809021Y-78544514D01*
X172809021Y-78544514D02*
X173094736Y-78687371D01*
X173094736Y-78687371D02*
X173237593Y-78830228D01*
X173237593Y-78830228D02*
X173380450Y-79115942D01*
X173380450Y-79115942D02*
X173380450Y-79830228D01*
X173380450Y-79830228D02*
X173237593Y-80115942D01*
X173237593Y-80115942D02*
X173094736Y-80258800D01*
X173094736Y-80258800D02*
X172809021Y-80401657D01*
X172809021Y-80401657D02*
X172094736Y-80401657D01*
X172094736Y-80401657D02*
X171809021Y-80258800D01*
X171809021Y-80258800D02*
X171666164Y-80115942D01*
X190916164Y-78401657D02*
X193059021Y-78401657D01*
X191773307Y-77115942D02*
X190916164Y-80973085D01*
X192773307Y-79687371D02*
X190630450Y-79687371D01*
X191916164Y-80973085D02*
X192773307Y-77115942D01*
X193773307Y-77401657D02*
X195773307Y-77401657D01*
X195773307Y-77401657D02*
X194487593Y-80401657D01*
X190966164Y-116701657D02*
X193109021Y-116701657D01*
X191823307Y-115415942D02*
X190966164Y-119273085D01*
X192823307Y-117987371D02*
X190680450Y-117987371D01*
X191966164Y-119273085D02*
X192823307Y-115415942D01*
X194537593Y-116987371D02*
X194251878Y-116844514D01*
X194251878Y-116844514D02*
X194109021Y-116701657D01*
X194109021Y-116701657D02*
X193966164Y-116415942D01*
X193966164Y-116415942D02*
X193966164Y-116273085D01*
X193966164Y-116273085D02*
X194109021Y-115987371D01*
X194109021Y-115987371D02*
X194251878Y-115844514D01*
X194251878Y-115844514D02*
X194537593Y-115701657D01*
X194537593Y-115701657D02*
X195109021Y-115701657D01*
X195109021Y-115701657D02*
X195394736Y-115844514D01*
X195394736Y-115844514D02*
X195537593Y-115987371D01*
X195537593Y-115987371D02*
X195680450Y-116273085D01*
X195680450Y-116273085D02*
X195680450Y-116415942D01*
X195680450Y-116415942D02*
X195537593Y-116701657D01*
X195537593Y-116701657D02*
X195394736Y-116844514D01*
X195394736Y-116844514D02*
X195109021Y-116987371D01*
X195109021Y-116987371D02*
X194537593Y-116987371D01*
X194537593Y-116987371D02*
X194251878Y-117130228D01*
X194251878Y-117130228D02*
X194109021Y-117273085D01*
X194109021Y-117273085D02*
X193966164Y-117558800D01*
X193966164Y-117558800D02*
X193966164Y-118130228D01*
X193966164Y-118130228D02*
X194109021Y-118415942D01*
X194109021Y-118415942D02*
X194251878Y-118558800D01*
X194251878Y-118558800D02*
X194537593Y-118701657D01*
X194537593Y-118701657D02*
X195109021Y-118701657D01*
X195109021Y-118701657D02*
X195394736Y-118558800D01*
X195394736Y-118558800D02*
X195537593Y-118415942D01*
X195537593Y-118415942D02*
X195680450Y-118130228D01*
X195680450Y-118130228D02*
X195680450Y-117558800D01*
X195680450Y-117558800D02*
X195537593Y-117273085D01*
X195537593Y-117273085D02*
X195394736Y-117130228D01*
X195394736Y-117130228D02*
X195109021Y-116987371D01*
D15*
X108659580Y-112566666D02*
X108707200Y-112614285D01*
X108707200Y-112614285D02*
X108754819Y-112757142D01*
X108754819Y-112757142D02*
X108754819Y-112852380D01*
X108754819Y-112852380D02*
X108707200Y-112995237D01*
X108707200Y-112995237D02*
X108611961Y-113090475D01*
X108611961Y-113090475D02*
X108516723Y-113138094D01*
X108516723Y-113138094D02*
X108326247Y-113185713D01*
X108326247Y-113185713D02*
X108183390Y-113185713D01*
X108183390Y-113185713D02*
X107992914Y-113138094D01*
X107992914Y-113138094D02*
X107897676Y-113090475D01*
X107897676Y-113090475D02*
X107802438Y-112995237D01*
X107802438Y-112995237D02*
X107754819Y-112852380D01*
X107754819Y-112852380D02*
X107754819Y-112757142D01*
X107754819Y-112757142D02*
X107802438Y-112614285D01*
X107802438Y-112614285D02*
X107850057Y-112566666D01*
X108754819Y-111614285D02*
X108754819Y-112185713D01*
X108754819Y-111899999D02*
X107754819Y-111899999D01*
X107754819Y-111899999D02*
X107897676Y-111995237D01*
X107897676Y-111995237D02*
X107992914Y-112090475D01*
X107992914Y-112090475D02*
X108040533Y-112185713D01*
X102254819Y-72938094D02*
X102254819Y-72319047D01*
X102254819Y-72319047D02*
X102635771Y-72652380D01*
X102635771Y-72652380D02*
X102635771Y-72509523D01*
X102635771Y-72509523D02*
X102683390Y-72414285D01*
X102683390Y-72414285D02*
X102731009Y-72366666D01*
X102731009Y-72366666D02*
X102826247Y-72319047D01*
X102826247Y-72319047D02*
X103064342Y-72319047D01*
X103064342Y-72319047D02*
X103159580Y-72366666D01*
X103159580Y-72366666D02*
X103207200Y-72414285D01*
X103207200Y-72414285D02*
X103254819Y-72509523D01*
X103254819Y-72509523D02*
X103254819Y-72795237D01*
X103254819Y-72795237D02*
X103207200Y-72890475D01*
X103207200Y-72890475D02*
X103159580Y-72938094D01*
X102254819Y-72033332D02*
X103254819Y-71699999D01*
X103254819Y-71699999D02*
X102254819Y-71366666D01*
X102254819Y-71128570D02*
X102254819Y-70509523D01*
X102254819Y-70509523D02*
X102635771Y-70842856D01*
X102635771Y-70842856D02*
X102635771Y-70699999D01*
X102635771Y-70699999D02*
X102683390Y-70604761D01*
X102683390Y-70604761D02*
X102731009Y-70557142D01*
X102731009Y-70557142D02*
X102826247Y-70509523D01*
X102826247Y-70509523D02*
X103064342Y-70509523D01*
X103064342Y-70509523D02*
X103159580Y-70557142D01*
X103159580Y-70557142D02*
X103207200Y-70604761D01*
X103207200Y-70604761D02*
X103254819Y-70699999D01*
X103254819Y-70699999D02*
X103254819Y-70985713D01*
X103254819Y-70985713D02*
X103207200Y-71080951D01*
X103207200Y-71080951D02*
X103159580Y-71128570D01*
X110559580Y-94742857D02*
X110607200Y-94790476D01*
X110607200Y-94790476D02*
X110654819Y-94933333D01*
X110654819Y-94933333D02*
X110654819Y-95028571D01*
X110654819Y-95028571D02*
X110607200Y-95171428D01*
X110607200Y-95171428D02*
X110511961Y-95266666D01*
X110511961Y-95266666D02*
X110416723Y-95314285D01*
X110416723Y-95314285D02*
X110226247Y-95361904D01*
X110226247Y-95361904D02*
X110083390Y-95361904D01*
X110083390Y-95361904D02*
X109892914Y-95314285D01*
X109892914Y-95314285D02*
X109797676Y-95266666D01*
X109797676Y-95266666D02*
X109702438Y-95171428D01*
X109702438Y-95171428D02*
X109654819Y-95028571D01*
X109654819Y-95028571D02*
X109654819Y-94933333D01*
X109654819Y-94933333D02*
X109702438Y-94790476D01*
X109702438Y-94790476D02*
X109750057Y-94742857D01*
X109750057Y-94361904D02*
X109702438Y-94314285D01*
X109702438Y-94314285D02*
X109654819Y-94219047D01*
X109654819Y-94219047D02*
X109654819Y-93980952D01*
X109654819Y-93980952D02*
X109702438Y-93885714D01*
X109702438Y-93885714D02*
X109750057Y-93838095D01*
X109750057Y-93838095D02*
X109845295Y-93790476D01*
X109845295Y-93790476D02*
X109940533Y-93790476D01*
X109940533Y-93790476D02*
X110083390Y-93838095D01*
X110083390Y-93838095D02*
X110654819Y-94409523D01*
X110654819Y-94409523D02*
X110654819Y-93790476D01*
X109654819Y-93457142D02*
X109654819Y-92838095D01*
X109654819Y-92838095D02*
X110035771Y-93171428D01*
X110035771Y-93171428D02*
X110035771Y-93028571D01*
X110035771Y-93028571D02*
X110083390Y-92933333D01*
X110083390Y-92933333D02*
X110131009Y-92885714D01*
X110131009Y-92885714D02*
X110226247Y-92838095D01*
X110226247Y-92838095D02*
X110464342Y-92838095D01*
X110464342Y-92838095D02*
X110559580Y-92885714D01*
X110559580Y-92885714D02*
X110607200Y-92933333D01*
X110607200Y-92933333D02*
X110654819Y-93028571D01*
X110654819Y-93028571D02*
X110654819Y-93314285D01*
X110654819Y-93314285D02*
X110607200Y-93409523D01*
X110607200Y-93409523D02*
X110559580Y-93457142D01*
X111459580Y-91142857D02*
X111507200Y-91190476D01*
X111507200Y-91190476D02*
X111554819Y-91333333D01*
X111554819Y-91333333D02*
X111554819Y-91428571D01*
X111554819Y-91428571D02*
X111507200Y-91571428D01*
X111507200Y-91571428D02*
X111411961Y-91666666D01*
X111411961Y-91666666D02*
X111316723Y-91714285D01*
X111316723Y-91714285D02*
X111126247Y-91761904D01*
X111126247Y-91761904D02*
X110983390Y-91761904D01*
X110983390Y-91761904D02*
X110792914Y-91714285D01*
X110792914Y-91714285D02*
X110697676Y-91666666D01*
X110697676Y-91666666D02*
X110602438Y-91571428D01*
X110602438Y-91571428D02*
X110554819Y-91428571D01*
X110554819Y-91428571D02*
X110554819Y-91333333D01*
X110554819Y-91333333D02*
X110602438Y-91190476D01*
X110602438Y-91190476D02*
X110650057Y-91142857D01*
X110650057Y-90761904D02*
X110602438Y-90714285D01*
X110602438Y-90714285D02*
X110554819Y-90619047D01*
X110554819Y-90619047D02*
X110554819Y-90380952D01*
X110554819Y-90380952D02*
X110602438Y-90285714D01*
X110602438Y-90285714D02*
X110650057Y-90238095D01*
X110650057Y-90238095D02*
X110745295Y-90190476D01*
X110745295Y-90190476D02*
X110840533Y-90190476D01*
X110840533Y-90190476D02*
X110983390Y-90238095D01*
X110983390Y-90238095D02*
X111554819Y-90809523D01*
X111554819Y-90809523D02*
X111554819Y-90190476D01*
X110554819Y-89857142D02*
X110554819Y-89190476D01*
X110554819Y-89190476D02*
X111554819Y-89619047D01*
X103659580Y-92242857D02*
X103707200Y-92290476D01*
X103707200Y-92290476D02*
X103754819Y-92433333D01*
X103754819Y-92433333D02*
X103754819Y-92528571D01*
X103754819Y-92528571D02*
X103707200Y-92671428D01*
X103707200Y-92671428D02*
X103611961Y-92766666D01*
X103611961Y-92766666D02*
X103516723Y-92814285D01*
X103516723Y-92814285D02*
X103326247Y-92861904D01*
X103326247Y-92861904D02*
X103183390Y-92861904D01*
X103183390Y-92861904D02*
X102992914Y-92814285D01*
X102992914Y-92814285D02*
X102897676Y-92766666D01*
X102897676Y-92766666D02*
X102802438Y-92671428D01*
X102802438Y-92671428D02*
X102754819Y-92528571D01*
X102754819Y-92528571D02*
X102754819Y-92433333D01*
X102754819Y-92433333D02*
X102802438Y-92290476D01*
X102802438Y-92290476D02*
X102850057Y-92242857D01*
X103754819Y-91290476D02*
X103754819Y-91861904D01*
X103754819Y-91576190D02*
X102754819Y-91576190D01*
X102754819Y-91576190D02*
X102897676Y-91671428D01*
X102897676Y-91671428D02*
X102992914Y-91766666D01*
X102992914Y-91766666D02*
X103040533Y-91861904D01*
X102754819Y-90671428D02*
X102754819Y-90576190D01*
X102754819Y-90576190D02*
X102802438Y-90480952D01*
X102802438Y-90480952D02*
X102850057Y-90433333D01*
X102850057Y-90433333D02*
X102945295Y-90385714D01*
X102945295Y-90385714D02*
X103135771Y-90338095D01*
X103135771Y-90338095D02*
X103373866Y-90338095D01*
X103373866Y-90338095D02*
X103564342Y-90385714D01*
X103564342Y-90385714D02*
X103659580Y-90433333D01*
X103659580Y-90433333D02*
X103707200Y-90480952D01*
X103707200Y-90480952D02*
X103754819Y-90576190D01*
X103754819Y-90576190D02*
X103754819Y-90671428D01*
X103754819Y-90671428D02*
X103707200Y-90766666D01*
X103707200Y-90766666D02*
X103659580Y-90814285D01*
X103659580Y-90814285D02*
X103564342Y-90861904D01*
X103564342Y-90861904D02*
X103373866Y-90909523D01*
X103373866Y-90909523D02*
X103135771Y-90909523D01*
X103135771Y-90909523D02*
X102945295Y-90861904D01*
X102945295Y-90861904D02*
X102850057Y-90814285D01*
X102850057Y-90814285D02*
X102802438Y-90766666D01*
X102802438Y-90766666D02*
X102754819Y-90671428D01*
D16*
X124757419Y-126633333D02*
X125471704Y-126633333D01*
X125471704Y-126633333D02*
X125614561Y-126680952D01*
X125614561Y-126680952D02*
X125709800Y-126776190D01*
X125709800Y-126776190D02*
X125757419Y-126919047D01*
X125757419Y-126919047D02*
X125757419Y-127014285D01*
X124852657Y-126204761D02*
X124805038Y-126157142D01*
X124805038Y-126157142D02*
X124757419Y-126061904D01*
X124757419Y-126061904D02*
X124757419Y-125823809D01*
X124757419Y-125823809D02*
X124805038Y-125728571D01*
X124805038Y-125728571D02*
X124852657Y-125680952D01*
X124852657Y-125680952D02*
X124947895Y-125633333D01*
X124947895Y-125633333D02*
X125043133Y-125633333D01*
X125043133Y-125633333D02*
X125185990Y-125680952D01*
X125185990Y-125680952D02*
X125757419Y-126252380D01*
X125757419Y-126252380D02*
X125757419Y-125633333D01*
X169757419Y-126633333D02*
X170471704Y-126633333D01*
X170471704Y-126633333D02*
X170614561Y-126680952D01*
X170614561Y-126680952D02*
X170709800Y-126776190D01*
X170709800Y-126776190D02*
X170757419Y-126919047D01*
X170757419Y-126919047D02*
X170757419Y-127014285D01*
X169757419Y-125728571D02*
X169757419Y-125919047D01*
X169757419Y-125919047D02*
X169805038Y-126014285D01*
X169805038Y-126014285D02*
X169852657Y-126061904D01*
X169852657Y-126061904D02*
X169995514Y-126157142D01*
X169995514Y-126157142D02*
X170185990Y-126204761D01*
X170185990Y-126204761D02*
X170566942Y-126204761D01*
X170566942Y-126204761D02*
X170662180Y-126157142D01*
X170662180Y-126157142D02*
X170709800Y-126109523D01*
X170709800Y-126109523D02*
X170757419Y-126014285D01*
X170757419Y-126014285D02*
X170757419Y-125823809D01*
X170757419Y-125823809D02*
X170709800Y-125728571D01*
X170709800Y-125728571D02*
X170662180Y-125680952D01*
X170662180Y-125680952D02*
X170566942Y-125633333D01*
X170566942Y-125633333D02*
X170328847Y-125633333D01*
X170328847Y-125633333D02*
X170233609Y-125680952D01*
X170233609Y-125680952D02*
X170185990Y-125728571D01*
X170185990Y-125728571D02*
X170138371Y-125823809D01*
X170138371Y-125823809D02*
X170138371Y-126014285D01*
X170138371Y-126014285D02*
X170185990Y-126109523D01*
X170185990Y-126109523D02*
X170233609Y-126157142D01*
X170233609Y-126157142D02*
X170328847Y-126204761D01*
D15*
X104304819Y-90111904D02*
X105114342Y-90111904D01*
X105114342Y-90111904D02*
X105209580Y-90064285D01*
X105209580Y-90064285D02*
X105257200Y-90016666D01*
X105257200Y-90016666D02*
X105304819Y-89921428D01*
X105304819Y-89921428D02*
X105304819Y-89730952D01*
X105304819Y-89730952D02*
X105257200Y-89635714D01*
X105257200Y-89635714D02*
X105209580Y-89588095D01*
X105209580Y-89588095D02*
X105114342Y-89540476D01*
X105114342Y-89540476D02*
X104304819Y-89540476D01*
X104304819Y-89159523D02*
X104304819Y-88540476D01*
X104304819Y-88540476D02*
X104685771Y-88873809D01*
X104685771Y-88873809D02*
X104685771Y-88730952D01*
X104685771Y-88730952D02*
X104733390Y-88635714D01*
X104733390Y-88635714D02*
X104781009Y-88588095D01*
X104781009Y-88588095D02*
X104876247Y-88540476D01*
X104876247Y-88540476D02*
X105114342Y-88540476D01*
X105114342Y-88540476D02*
X105209580Y-88588095D01*
X105209580Y-88588095D02*
X105257200Y-88635714D01*
X105257200Y-88635714D02*
X105304819Y-88730952D01*
X105304819Y-88730952D02*
X105304819Y-89016666D01*
X105304819Y-89016666D02*
X105257200Y-89111904D01*
X105257200Y-89111904D02*
X105209580Y-89159523D01*
D16*
X170257419Y-71433333D02*
X170971704Y-71433333D01*
X170971704Y-71433333D02*
X171114561Y-71480952D01*
X171114561Y-71480952D02*
X171209800Y-71576190D01*
X171209800Y-71576190D02*
X171257419Y-71719047D01*
X171257419Y-71719047D02*
X171257419Y-71814285D01*
X170257419Y-71052380D02*
X170257419Y-70385714D01*
X170257419Y-70385714D02*
X171257419Y-70814285D01*
D15*
X111504819Y-97211904D02*
X112314342Y-97211904D01*
X112314342Y-97211904D02*
X112409580Y-97164285D01*
X112409580Y-97164285D02*
X112457200Y-97116666D01*
X112457200Y-97116666D02*
X112504819Y-97021428D01*
X112504819Y-97021428D02*
X112504819Y-96830952D01*
X112504819Y-96830952D02*
X112457200Y-96735714D01*
X112457200Y-96735714D02*
X112409580Y-96688095D01*
X112409580Y-96688095D02*
X112314342Y-96640476D01*
X112314342Y-96640476D02*
X111504819Y-96640476D01*
X111838152Y-95735714D02*
X112504819Y-95735714D01*
X111457200Y-95973809D02*
X112171485Y-96211904D01*
X112171485Y-96211904D02*
X112171485Y-95592857D01*
X104254819Y-112966666D02*
X103778628Y-113299999D01*
X104254819Y-113538094D02*
X103254819Y-113538094D01*
X103254819Y-113538094D02*
X103254819Y-113157142D01*
X103254819Y-113157142D02*
X103302438Y-113061904D01*
X103302438Y-113061904D02*
X103350057Y-113014285D01*
X103350057Y-113014285D02*
X103445295Y-112966666D01*
X103445295Y-112966666D02*
X103588152Y-112966666D01*
X103588152Y-112966666D02*
X103683390Y-113014285D01*
X103683390Y-113014285D02*
X103731009Y-113061904D01*
X103731009Y-113061904D02*
X103778628Y-113157142D01*
X103778628Y-113157142D02*
X103778628Y-113538094D01*
X104254819Y-112014285D02*
X104254819Y-112585713D01*
X104254819Y-112299999D02*
X103254819Y-112299999D01*
X103254819Y-112299999D02*
X103397676Y-112395237D01*
X103397676Y-112395237D02*
X103492914Y-112490475D01*
X103492914Y-112490475D02*
X103540533Y-112585713D01*
X105354819Y-72342857D02*
X104878628Y-72676190D01*
X105354819Y-72914285D02*
X104354819Y-72914285D01*
X104354819Y-72914285D02*
X104354819Y-72533333D01*
X104354819Y-72533333D02*
X104402438Y-72438095D01*
X104402438Y-72438095D02*
X104450057Y-72390476D01*
X104450057Y-72390476D02*
X104545295Y-72342857D01*
X104545295Y-72342857D02*
X104688152Y-72342857D01*
X104688152Y-72342857D02*
X104783390Y-72390476D01*
X104783390Y-72390476D02*
X104831009Y-72438095D01*
X104831009Y-72438095D02*
X104878628Y-72533333D01*
X104878628Y-72533333D02*
X104878628Y-72914285D01*
X104450057Y-71961904D02*
X104402438Y-71914285D01*
X104402438Y-71914285D02*
X104354819Y-71819047D01*
X104354819Y-71819047D02*
X104354819Y-71580952D01*
X104354819Y-71580952D02*
X104402438Y-71485714D01*
X104402438Y-71485714D02*
X104450057Y-71438095D01*
X104450057Y-71438095D02*
X104545295Y-71390476D01*
X104545295Y-71390476D02*
X104640533Y-71390476D01*
X104640533Y-71390476D02*
X104783390Y-71438095D01*
X104783390Y-71438095D02*
X105354819Y-72009523D01*
X105354819Y-72009523D02*
X105354819Y-71390476D01*
X104688152Y-70533333D02*
X105354819Y-70533333D01*
X104307200Y-70771428D02*
X105021485Y-71009523D01*
X105021485Y-71009523D02*
X105021485Y-70390476D01*
X116359580Y-78392857D02*
X116407200Y-78440476D01*
X116407200Y-78440476D02*
X116454819Y-78583333D01*
X116454819Y-78583333D02*
X116454819Y-78678571D01*
X116454819Y-78678571D02*
X116407200Y-78821428D01*
X116407200Y-78821428D02*
X116311961Y-78916666D01*
X116311961Y-78916666D02*
X116216723Y-78964285D01*
X116216723Y-78964285D02*
X116026247Y-79011904D01*
X116026247Y-79011904D02*
X115883390Y-79011904D01*
X115883390Y-79011904D02*
X115692914Y-78964285D01*
X115692914Y-78964285D02*
X115597676Y-78916666D01*
X115597676Y-78916666D02*
X115502438Y-78821428D01*
X115502438Y-78821428D02*
X115454819Y-78678571D01*
X115454819Y-78678571D02*
X115454819Y-78583333D01*
X115454819Y-78583333D02*
X115502438Y-78440476D01*
X115502438Y-78440476D02*
X115550057Y-78392857D01*
X115550057Y-78011904D02*
X115502438Y-77964285D01*
X115502438Y-77964285D02*
X115454819Y-77869047D01*
X115454819Y-77869047D02*
X115454819Y-77630952D01*
X115454819Y-77630952D02*
X115502438Y-77535714D01*
X115502438Y-77535714D02*
X115550057Y-77488095D01*
X115550057Y-77488095D02*
X115645295Y-77440476D01*
X115645295Y-77440476D02*
X115740533Y-77440476D01*
X115740533Y-77440476D02*
X115883390Y-77488095D01*
X115883390Y-77488095D02*
X116454819Y-78059523D01*
X116454819Y-78059523D02*
X116454819Y-77440476D01*
X115788152Y-76583333D02*
X116454819Y-76583333D01*
X115407200Y-76821428D02*
X116121485Y-77059523D01*
X116121485Y-77059523D02*
X116121485Y-76440476D01*
X114859580Y-108642857D02*
X114907200Y-108690476D01*
X114907200Y-108690476D02*
X114954819Y-108833333D01*
X114954819Y-108833333D02*
X114954819Y-108928571D01*
X114954819Y-108928571D02*
X114907200Y-109071428D01*
X114907200Y-109071428D02*
X114811961Y-109166666D01*
X114811961Y-109166666D02*
X114716723Y-109214285D01*
X114716723Y-109214285D02*
X114526247Y-109261904D01*
X114526247Y-109261904D02*
X114383390Y-109261904D01*
X114383390Y-109261904D02*
X114192914Y-109214285D01*
X114192914Y-109214285D02*
X114097676Y-109166666D01*
X114097676Y-109166666D02*
X114002438Y-109071428D01*
X114002438Y-109071428D02*
X113954819Y-108928571D01*
X113954819Y-108928571D02*
X113954819Y-108833333D01*
X113954819Y-108833333D02*
X114002438Y-108690476D01*
X114002438Y-108690476D02*
X114050057Y-108642857D01*
X114050057Y-108261904D02*
X114002438Y-108214285D01*
X114002438Y-108214285D02*
X113954819Y-108119047D01*
X113954819Y-108119047D02*
X113954819Y-107880952D01*
X113954819Y-107880952D02*
X114002438Y-107785714D01*
X114002438Y-107785714D02*
X114050057Y-107738095D01*
X114050057Y-107738095D02*
X114145295Y-107690476D01*
X114145295Y-107690476D02*
X114240533Y-107690476D01*
X114240533Y-107690476D02*
X114383390Y-107738095D01*
X114383390Y-107738095D02*
X114954819Y-108309523D01*
X114954819Y-108309523D02*
X114954819Y-107690476D01*
X114050057Y-107309523D02*
X114002438Y-107261904D01*
X114002438Y-107261904D02*
X113954819Y-107166666D01*
X113954819Y-107166666D02*
X113954819Y-106928571D01*
X113954819Y-106928571D02*
X114002438Y-106833333D01*
X114002438Y-106833333D02*
X114050057Y-106785714D01*
X114050057Y-106785714D02*
X114145295Y-106738095D01*
X114145295Y-106738095D02*
X114240533Y-106738095D01*
X114240533Y-106738095D02*
X114383390Y-106785714D01*
X114383390Y-106785714D02*
X114954819Y-107357142D01*
X114954819Y-107357142D02*
X114954819Y-106738095D01*
X98554819Y-107766666D02*
X98078628Y-108099999D01*
X98554819Y-108338094D02*
X97554819Y-108338094D01*
X97554819Y-108338094D02*
X97554819Y-107957142D01*
X97554819Y-107957142D02*
X97602438Y-107861904D01*
X97602438Y-107861904D02*
X97650057Y-107814285D01*
X97650057Y-107814285D02*
X97745295Y-107766666D01*
X97745295Y-107766666D02*
X97888152Y-107766666D01*
X97888152Y-107766666D02*
X97983390Y-107814285D01*
X97983390Y-107814285D02*
X98031009Y-107861904D01*
X98031009Y-107861904D02*
X98078628Y-107957142D01*
X98078628Y-107957142D02*
X98078628Y-108338094D01*
X97650057Y-107385713D02*
X97602438Y-107338094D01*
X97602438Y-107338094D02*
X97554819Y-107242856D01*
X97554819Y-107242856D02*
X97554819Y-107004761D01*
X97554819Y-107004761D02*
X97602438Y-106909523D01*
X97602438Y-106909523D02*
X97650057Y-106861904D01*
X97650057Y-106861904D02*
X97745295Y-106814285D01*
X97745295Y-106814285D02*
X97840533Y-106814285D01*
X97840533Y-106814285D02*
X97983390Y-106861904D01*
X97983390Y-106861904D02*
X98554819Y-107433332D01*
X98554819Y-107433332D02*
X98554819Y-106814285D01*
X98654819Y-112766666D02*
X98178628Y-113099999D01*
X98654819Y-113338094D02*
X97654819Y-113338094D01*
X97654819Y-113338094D02*
X97654819Y-112957142D01*
X97654819Y-112957142D02*
X97702438Y-112861904D01*
X97702438Y-112861904D02*
X97750057Y-112814285D01*
X97750057Y-112814285D02*
X97845295Y-112766666D01*
X97845295Y-112766666D02*
X97988152Y-112766666D01*
X97988152Y-112766666D02*
X98083390Y-112814285D01*
X98083390Y-112814285D02*
X98131009Y-112861904D01*
X98131009Y-112861904D02*
X98178628Y-112957142D01*
X98178628Y-112957142D02*
X98178628Y-113338094D01*
X97654819Y-112433332D02*
X97654819Y-111814285D01*
X97654819Y-111814285D02*
X98035771Y-112147618D01*
X98035771Y-112147618D02*
X98035771Y-112004761D01*
X98035771Y-112004761D02*
X98083390Y-111909523D01*
X98083390Y-111909523D02*
X98131009Y-111861904D01*
X98131009Y-111861904D02*
X98226247Y-111814285D01*
X98226247Y-111814285D02*
X98464342Y-111814285D01*
X98464342Y-111814285D02*
X98559580Y-111861904D01*
X98559580Y-111861904D02*
X98607200Y-111909523D01*
X98607200Y-111909523D02*
X98654819Y-112004761D01*
X98654819Y-112004761D02*
X98654819Y-112290475D01*
X98654819Y-112290475D02*
X98607200Y-112385713D01*
X98607200Y-112385713D02*
X98559580Y-112433332D01*
X108359580Y-82742857D02*
X108407200Y-82790476D01*
X108407200Y-82790476D02*
X108454819Y-82933333D01*
X108454819Y-82933333D02*
X108454819Y-83028571D01*
X108454819Y-83028571D02*
X108407200Y-83171428D01*
X108407200Y-83171428D02*
X108311961Y-83266666D01*
X108311961Y-83266666D02*
X108216723Y-83314285D01*
X108216723Y-83314285D02*
X108026247Y-83361904D01*
X108026247Y-83361904D02*
X107883390Y-83361904D01*
X107883390Y-83361904D02*
X107692914Y-83314285D01*
X107692914Y-83314285D02*
X107597676Y-83266666D01*
X107597676Y-83266666D02*
X107502438Y-83171428D01*
X107502438Y-83171428D02*
X107454819Y-83028571D01*
X107454819Y-83028571D02*
X107454819Y-82933333D01*
X107454819Y-82933333D02*
X107502438Y-82790476D01*
X107502438Y-82790476D02*
X107550057Y-82742857D01*
X107550057Y-82361904D02*
X107502438Y-82314285D01*
X107502438Y-82314285D02*
X107454819Y-82219047D01*
X107454819Y-82219047D02*
X107454819Y-81980952D01*
X107454819Y-81980952D02*
X107502438Y-81885714D01*
X107502438Y-81885714D02*
X107550057Y-81838095D01*
X107550057Y-81838095D02*
X107645295Y-81790476D01*
X107645295Y-81790476D02*
X107740533Y-81790476D01*
X107740533Y-81790476D02*
X107883390Y-81838095D01*
X107883390Y-81838095D02*
X108454819Y-82409523D01*
X108454819Y-82409523D02*
X108454819Y-81790476D01*
X107454819Y-80885714D02*
X107454819Y-81361904D01*
X107454819Y-81361904D02*
X107931009Y-81409523D01*
X107931009Y-81409523D02*
X107883390Y-81361904D01*
X107883390Y-81361904D02*
X107835771Y-81266666D01*
X107835771Y-81266666D02*
X107835771Y-81028571D01*
X107835771Y-81028571D02*
X107883390Y-80933333D01*
X107883390Y-80933333D02*
X107931009Y-80885714D01*
X107931009Y-80885714D02*
X108026247Y-80838095D01*
X108026247Y-80838095D02*
X108264342Y-80838095D01*
X108264342Y-80838095D02*
X108359580Y-80885714D01*
X108359580Y-80885714D02*
X108407200Y-80933333D01*
X108407200Y-80933333D02*
X108454819Y-81028571D01*
X108454819Y-81028571D02*
X108454819Y-81266666D01*
X108454819Y-81266666D02*
X108407200Y-81361904D01*
X108407200Y-81361904D02*
X108359580Y-81409523D01*
X102059580Y-92242857D02*
X102107200Y-92290476D01*
X102107200Y-92290476D02*
X102154819Y-92433333D01*
X102154819Y-92433333D02*
X102154819Y-92528571D01*
X102154819Y-92528571D02*
X102107200Y-92671428D01*
X102107200Y-92671428D02*
X102011961Y-92766666D01*
X102011961Y-92766666D02*
X101916723Y-92814285D01*
X101916723Y-92814285D02*
X101726247Y-92861904D01*
X101726247Y-92861904D02*
X101583390Y-92861904D01*
X101583390Y-92861904D02*
X101392914Y-92814285D01*
X101392914Y-92814285D02*
X101297676Y-92766666D01*
X101297676Y-92766666D02*
X101202438Y-92671428D01*
X101202438Y-92671428D02*
X101154819Y-92528571D01*
X101154819Y-92528571D02*
X101154819Y-92433333D01*
X101154819Y-92433333D02*
X101202438Y-92290476D01*
X101202438Y-92290476D02*
X101250057Y-92242857D01*
X102154819Y-91290476D02*
X102154819Y-91861904D01*
X102154819Y-91576190D02*
X101154819Y-91576190D01*
X101154819Y-91576190D02*
X101297676Y-91671428D01*
X101297676Y-91671428D02*
X101392914Y-91766666D01*
X101392914Y-91766666D02*
X101440533Y-91861904D01*
X102154819Y-90338095D02*
X102154819Y-90909523D01*
X102154819Y-90623809D02*
X101154819Y-90623809D01*
X101154819Y-90623809D02*
X101297676Y-90719047D01*
X101297676Y-90719047D02*
X101392914Y-90814285D01*
X101392914Y-90814285D02*
X101440533Y-90909523D01*
D16*
X125357419Y-71333333D02*
X126071704Y-71333333D01*
X126071704Y-71333333D02*
X126214561Y-71380952D01*
X126214561Y-71380952D02*
X126309800Y-71476190D01*
X126309800Y-71476190D02*
X126357419Y-71619047D01*
X126357419Y-71619047D02*
X126357419Y-71714285D01*
X125357419Y-70952380D02*
X125357419Y-70333333D01*
X125357419Y-70333333D02*
X125738371Y-70666666D01*
X125738371Y-70666666D02*
X125738371Y-70523809D01*
X125738371Y-70523809D02*
X125785990Y-70428571D01*
X125785990Y-70428571D02*
X125833609Y-70380952D01*
X125833609Y-70380952D02*
X125928847Y-70333333D01*
X125928847Y-70333333D02*
X126166942Y-70333333D01*
X126166942Y-70333333D02*
X126262180Y-70380952D01*
X126262180Y-70380952D02*
X126309800Y-70428571D01*
X126309800Y-70428571D02*
X126357419Y-70523809D01*
X126357419Y-70523809D02*
X126357419Y-70809523D01*
X126357419Y-70809523D02*
X126309800Y-70904761D01*
X126309800Y-70904761D02*
X126262180Y-70952380D01*
X147657419Y-71433333D02*
X148371704Y-71433333D01*
X148371704Y-71433333D02*
X148514561Y-71480952D01*
X148514561Y-71480952D02*
X148609800Y-71576190D01*
X148609800Y-71576190D02*
X148657419Y-71719047D01*
X148657419Y-71719047D02*
X148657419Y-71814285D01*
X147657419Y-70480952D02*
X147657419Y-70957142D01*
X147657419Y-70957142D02*
X148133609Y-71004761D01*
X148133609Y-71004761D02*
X148085990Y-70957142D01*
X148085990Y-70957142D02*
X148038371Y-70861904D01*
X148038371Y-70861904D02*
X148038371Y-70623809D01*
X148038371Y-70623809D02*
X148085990Y-70528571D01*
X148085990Y-70528571D02*
X148133609Y-70480952D01*
X148133609Y-70480952D02*
X148228847Y-70433333D01*
X148228847Y-70433333D02*
X148466942Y-70433333D01*
X148466942Y-70433333D02*
X148562180Y-70480952D01*
X148562180Y-70480952D02*
X148609800Y-70528571D01*
X148609800Y-70528571D02*
X148657419Y-70623809D01*
X148657419Y-70623809D02*
X148657419Y-70861904D01*
X148657419Y-70861904D02*
X148609800Y-70957142D01*
X148609800Y-70957142D02*
X148562180Y-71004761D01*
D15*
X110654819Y-110666666D02*
X110178628Y-110999999D01*
X110654819Y-111238094D02*
X109654819Y-111238094D01*
X109654819Y-111238094D02*
X109654819Y-110857142D01*
X109654819Y-110857142D02*
X109702438Y-110761904D01*
X109702438Y-110761904D02*
X109750057Y-110714285D01*
X109750057Y-110714285D02*
X109845295Y-110666666D01*
X109845295Y-110666666D02*
X109988152Y-110666666D01*
X109988152Y-110666666D02*
X110083390Y-110714285D01*
X110083390Y-110714285D02*
X110131009Y-110761904D01*
X110131009Y-110761904D02*
X110178628Y-110857142D01*
X110178628Y-110857142D02*
X110178628Y-111238094D01*
X109988152Y-109809523D02*
X110654819Y-109809523D01*
X109607200Y-110047618D02*
X110321485Y-110285713D01*
X110321485Y-110285713D02*
X110321485Y-109666666D01*
D16*
X147157419Y-126633333D02*
X147871704Y-126633333D01*
X147871704Y-126633333D02*
X148014561Y-126680952D01*
X148014561Y-126680952D02*
X148109800Y-126776190D01*
X148109800Y-126776190D02*
X148157419Y-126919047D01*
X148157419Y-126919047D02*
X148157419Y-127014285D01*
X147490752Y-125728571D02*
X148157419Y-125728571D01*
X147109800Y-125966666D02*
X147824085Y-126204761D01*
X147824085Y-126204761D02*
X147824085Y-125585714D01*
D15*
X107404819Y-105911904D02*
X108214342Y-105911904D01*
X108214342Y-105911904D02*
X108309580Y-105864285D01*
X108309580Y-105864285D02*
X108357200Y-105816666D01*
X108357200Y-105816666D02*
X108404819Y-105721428D01*
X108404819Y-105721428D02*
X108404819Y-105530952D01*
X108404819Y-105530952D02*
X108357200Y-105435714D01*
X108357200Y-105435714D02*
X108309580Y-105388095D01*
X108309580Y-105388095D02*
X108214342Y-105340476D01*
X108214342Y-105340476D02*
X107404819Y-105340476D01*
X108357200Y-104911904D02*
X108404819Y-104769047D01*
X108404819Y-104769047D02*
X108404819Y-104530952D01*
X108404819Y-104530952D02*
X108357200Y-104435714D01*
X108357200Y-104435714D02*
X108309580Y-104388095D01*
X108309580Y-104388095D02*
X108214342Y-104340476D01*
X108214342Y-104340476D02*
X108119104Y-104340476D01*
X108119104Y-104340476D02*
X108023866Y-104388095D01*
X108023866Y-104388095D02*
X107976247Y-104435714D01*
X107976247Y-104435714D02*
X107928628Y-104530952D01*
X107928628Y-104530952D02*
X107881009Y-104721428D01*
X107881009Y-104721428D02*
X107833390Y-104816666D01*
X107833390Y-104816666D02*
X107785771Y-104864285D01*
X107785771Y-104864285D02*
X107690533Y-104911904D01*
X107690533Y-104911904D02*
X107595295Y-104911904D01*
X107595295Y-104911904D02*
X107500057Y-104864285D01*
X107500057Y-104864285D02*
X107452438Y-104816666D01*
X107452438Y-104816666D02*
X107404819Y-104721428D01*
X107404819Y-104721428D02*
X107404819Y-104483333D01*
X107404819Y-104483333D02*
X107452438Y-104340476D01*
X107881009Y-103578571D02*
X107928628Y-103435714D01*
X107928628Y-103435714D02*
X107976247Y-103388095D01*
X107976247Y-103388095D02*
X108071485Y-103340476D01*
X108071485Y-103340476D02*
X108214342Y-103340476D01*
X108214342Y-103340476D02*
X108309580Y-103388095D01*
X108309580Y-103388095D02*
X108357200Y-103435714D01*
X108357200Y-103435714D02*
X108404819Y-103530952D01*
X108404819Y-103530952D02*
X108404819Y-103911904D01*
X108404819Y-103911904D02*
X107404819Y-103911904D01*
X107404819Y-103911904D02*
X107404819Y-103578571D01*
X107404819Y-103578571D02*
X107452438Y-103483333D01*
X107452438Y-103483333D02*
X107500057Y-103435714D01*
X107500057Y-103435714D02*
X107595295Y-103388095D01*
X107595295Y-103388095D02*
X107690533Y-103388095D01*
X107690533Y-103388095D02*
X107785771Y-103435714D01*
X107785771Y-103435714D02*
X107833390Y-103483333D01*
X107833390Y-103483333D02*
X107881009Y-103578571D01*
X107881009Y-103578571D02*
X107881009Y-103911904D01*
D16*
X192857419Y-71433333D02*
X193571704Y-71433333D01*
X193571704Y-71433333D02*
X193714561Y-71480952D01*
X193714561Y-71480952D02*
X193809800Y-71576190D01*
X193809800Y-71576190D02*
X193857419Y-71719047D01*
X193857419Y-71719047D02*
X193857419Y-71814285D01*
X193857419Y-70909523D02*
X193857419Y-70719047D01*
X193857419Y-70719047D02*
X193809800Y-70623809D01*
X193809800Y-70623809D02*
X193762180Y-70576190D01*
X193762180Y-70576190D02*
X193619323Y-70480952D01*
X193619323Y-70480952D02*
X193428847Y-70433333D01*
X193428847Y-70433333D02*
X193047895Y-70433333D01*
X193047895Y-70433333D02*
X192952657Y-70480952D01*
X192952657Y-70480952D02*
X192905038Y-70528571D01*
X192905038Y-70528571D02*
X192857419Y-70623809D01*
X192857419Y-70623809D02*
X192857419Y-70814285D01*
X192857419Y-70814285D02*
X192905038Y-70909523D01*
X192905038Y-70909523D02*
X192952657Y-70957142D01*
X192952657Y-70957142D02*
X193047895Y-71004761D01*
X193047895Y-71004761D02*
X193285990Y-71004761D01*
X193285990Y-71004761D02*
X193381228Y-70957142D01*
X193381228Y-70957142D02*
X193428847Y-70909523D01*
X193428847Y-70909523D02*
X193476466Y-70814285D01*
X193476466Y-70814285D02*
X193476466Y-70623809D01*
X193476466Y-70623809D02*
X193428847Y-70528571D01*
X193428847Y-70528571D02*
X193381228Y-70480952D01*
X193381228Y-70480952D02*
X193285990Y-70433333D01*
D15*
X108254819Y-88666666D02*
X108254819Y-89142856D01*
X108254819Y-89142856D02*
X107254819Y-89142856D01*
X108254819Y-87809523D02*
X108254819Y-88380951D01*
X108254819Y-88095237D02*
X107254819Y-88095237D01*
X107254819Y-88095237D02*
X107397676Y-88190475D01*
X107397676Y-88190475D02*
X107492914Y-88285713D01*
X107492914Y-88285713D02*
X107540533Y-88380951D01*
X111900057Y-113690475D02*
X111852438Y-113642856D01*
X111852438Y-113642856D02*
X111804819Y-113547618D01*
X111804819Y-113547618D02*
X111804819Y-113309523D01*
X111804819Y-113309523D02*
X111852438Y-113214285D01*
X111852438Y-113214285D02*
X111900057Y-113166666D01*
X111900057Y-113166666D02*
X111995295Y-113119047D01*
X111995295Y-113119047D02*
X112090533Y-113119047D01*
X112090533Y-113119047D02*
X112233390Y-113166666D01*
X112233390Y-113166666D02*
X112804819Y-113738094D01*
X112804819Y-113738094D02*
X112804819Y-113119047D01*
X111804819Y-112499999D02*
X111804819Y-112404761D01*
X111804819Y-112404761D02*
X111852438Y-112309523D01*
X111852438Y-112309523D02*
X111900057Y-112261904D01*
X111900057Y-112261904D02*
X111995295Y-112214285D01*
X111995295Y-112214285D02*
X112185771Y-112166666D01*
X112185771Y-112166666D02*
X112423866Y-112166666D01*
X112423866Y-112166666D02*
X112614342Y-112214285D01*
X112614342Y-112214285D02*
X112709580Y-112261904D01*
X112709580Y-112261904D02*
X112757200Y-112309523D01*
X112757200Y-112309523D02*
X112804819Y-112404761D01*
X112804819Y-112404761D02*
X112804819Y-112499999D01*
X112804819Y-112499999D02*
X112757200Y-112595237D01*
X112757200Y-112595237D02*
X112709580Y-112642856D01*
X112709580Y-112642856D02*
X112614342Y-112690475D01*
X112614342Y-112690475D02*
X112423866Y-112738094D01*
X112423866Y-112738094D02*
X112185771Y-112738094D01*
X112185771Y-112738094D02*
X111995295Y-112690475D01*
X111995295Y-112690475D02*
X111900057Y-112642856D01*
X111900057Y-112642856D02*
X111852438Y-112595237D01*
X111852438Y-112595237D02*
X111804819Y-112499999D01*
X111804819Y-111880951D02*
X112804819Y-111547618D01*
X112804819Y-111547618D02*
X111804819Y-111214285D01*
X106104819Y-83540476D02*
X106104819Y-84016666D01*
X106104819Y-84016666D02*
X106581009Y-84064285D01*
X106581009Y-84064285D02*
X106533390Y-84016666D01*
X106533390Y-84016666D02*
X106485771Y-83921428D01*
X106485771Y-83921428D02*
X106485771Y-83683333D01*
X106485771Y-83683333D02*
X106533390Y-83588095D01*
X106533390Y-83588095D02*
X106581009Y-83540476D01*
X106581009Y-83540476D02*
X106676247Y-83492857D01*
X106676247Y-83492857D02*
X106914342Y-83492857D01*
X106914342Y-83492857D02*
X107009580Y-83540476D01*
X107009580Y-83540476D02*
X107057200Y-83588095D01*
X107057200Y-83588095D02*
X107104819Y-83683333D01*
X107104819Y-83683333D02*
X107104819Y-83921428D01*
X107104819Y-83921428D02*
X107057200Y-84016666D01*
X107057200Y-84016666D02*
X107009580Y-84064285D01*
X106104819Y-83207142D02*
X107104819Y-82873809D01*
X107104819Y-82873809D02*
X106104819Y-82540476D01*
X104600057Y-97095238D02*
X104552438Y-97190476D01*
X104552438Y-97190476D02*
X104457200Y-97285714D01*
X104457200Y-97285714D02*
X104314342Y-97428571D01*
X104314342Y-97428571D02*
X104266723Y-97523809D01*
X104266723Y-97523809D02*
X104266723Y-97619047D01*
X104504819Y-97571428D02*
X104457200Y-97666666D01*
X104457200Y-97666666D02*
X104361961Y-97761904D01*
X104361961Y-97761904D02*
X104171485Y-97809523D01*
X104171485Y-97809523D02*
X103838152Y-97809523D01*
X103838152Y-97809523D02*
X103647676Y-97761904D01*
X103647676Y-97761904D02*
X103552438Y-97666666D01*
X103552438Y-97666666D02*
X103504819Y-97571428D01*
X103504819Y-97571428D02*
X103504819Y-97380952D01*
X103504819Y-97380952D02*
X103552438Y-97285714D01*
X103552438Y-97285714D02*
X103647676Y-97190476D01*
X103647676Y-97190476D02*
X103838152Y-97142857D01*
X103838152Y-97142857D02*
X104171485Y-97142857D01*
X104171485Y-97142857D02*
X104361961Y-97190476D01*
X104361961Y-97190476D02*
X104457200Y-97285714D01*
X104457200Y-97285714D02*
X104504819Y-97380952D01*
X104504819Y-97380952D02*
X104504819Y-97571428D01*
X104504819Y-96190476D02*
X104504819Y-96761904D01*
X104504819Y-96476190D02*
X103504819Y-96476190D01*
X103504819Y-96476190D02*
X103647676Y-96571428D01*
X103647676Y-96571428D02*
X103742914Y-96666666D01*
X103742914Y-96666666D02*
X103790533Y-96761904D01*
X102059580Y-83342857D02*
X102107200Y-83390476D01*
X102107200Y-83390476D02*
X102154819Y-83533333D01*
X102154819Y-83533333D02*
X102154819Y-83628571D01*
X102154819Y-83628571D02*
X102107200Y-83771428D01*
X102107200Y-83771428D02*
X102011961Y-83866666D01*
X102011961Y-83866666D02*
X101916723Y-83914285D01*
X101916723Y-83914285D02*
X101726247Y-83961904D01*
X101726247Y-83961904D02*
X101583390Y-83961904D01*
X101583390Y-83961904D02*
X101392914Y-83914285D01*
X101392914Y-83914285D02*
X101297676Y-83866666D01*
X101297676Y-83866666D02*
X101202438Y-83771428D01*
X101202438Y-83771428D02*
X101154819Y-83628571D01*
X101154819Y-83628571D02*
X101154819Y-83533333D01*
X101154819Y-83533333D02*
X101202438Y-83390476D01*
X101202438Y-83390476D02*
X101250057Y-83342857D01*
X102154819Y-82390476D02*
X102154819Y-82961904D01*
X102154819Y-82676190D02*
X101154819Y-82676190D01*
X101154819Y-82676190D02*
X101297676Y-82771428D01*
X101297676Y-82771428D02*
X101392914Y-82866666D01*
X101392914Y-82866666D02*
X101440533Y-82961904D01*
X101154819Y-82057142D02*
X101154819Y-81438095D01*
X101154819Y-81438095D02*
X101535771Y-81771428D01*
X101535771Y-81771428D02*
X101535771Y-81628571D01*
X101535771Y-81628571D02*
X101583390Y-81533333D01*
X101583390Y-81533333D02*
X101631009Y-81485714D01*
X101631009Y-81485714D02*
X101726247Y-81438095D01*
X101726247Y-81438095D02*
X101964342Y-81438095D01*
X101964342Y-81438095D02*
X102059580Y-81485714D01*
X102059580Y-81485714D02*
X102107200Y-81533333D01*
X102107200Y-81533333D02*
X102154819Y-81628571D01*
X102154819Y-81628571D02*
X102154819Y-81914285D01*
X102154819Y-81914285D02*
X102107200Y-82009523D01*
X102107200Y-82009523D02*
X102059580Y-82057142D01*
X103409580Y-83342857D02*
X103457200Y-83390476D01*
X103457200Y-83390476D02*
X103504819Y-83533333D01*
X103504819Y-83533333D02*
X103504819Y-83628571D01*
X103504819Y-83628571D02*
X103457200Y-83771428D01*
X103457200Y-83771428D02*
X103361961Y-83866666D01*
X103361961Y-83866666D02*
X103266723Y-83914285D01*
X103266723Y-83914285D02*
X103076247Y-83961904D01*
X103076247Y-83961904D02*
X102933390Y-83961904D01*
X102933390Y-83961904D02*
X102742914Y-83914285D01*
X102742914Y-83914285D02*
X102647676Y-83866666D01*
X102647676Y-83866666D02*
X102552438Y-83771428D01*
X102552438Y-83771428D02*
X102504819Y-83628571D01*
X102504819Y-83628571D02*
X102504819Y-83533333D01*
X102504819Y-83533333D02*
X102552438Y-83390476D01*
X102552438Y-83390476D02*
X102600057Y-83342857D01*
X103504819Y-82390476D02*
X103504819Y-82961904D01*
X103504819Y-82676190D02*
X102504819Y-82676190D01*
X102504819Y-82676190D02*
X102647676Y-82771428D01*
X102647676Y-82771428D02*
X102742914Y-82866666D01*
X102742914Y-82866666D02*
X102790533Y-82961904D01*
X102600057Y-82009523D02*
X102552438Y-81961904D01*
X102552438Y-81961904D02*
X102504819Y-81866666D01*
X102504819Y-81866666D02*
X102504819Y-81628571D01*
X102504819Y-81628571D02*
X102552438Y-81533333D01*
X102552438Y-81533333D02*
X102600057Y-81485714D01*
X102600057Y-81485714D02*
X102695295Y-81438095D01*
X102695295Y-81438095D02*
X102790533Y-81438095D01*
X102790533Y-81438095D02*
X102933390Y-81485714D01*
X102933390Y-81485714D02*
X103504819Y-82057142D01*
X103504819Y-82057142D02*
X103504819Y-81438095D01*
X114859580Y-105342857D02*
X114907200Y-105390476D01*
X114907200Y-105390476D02*
X114954819Y-105533333D01*
X114954819Y-105533333D02*
X114954819Y-105628571D01*
X114954819Y-105628571D02*
X114907200Y-105771428D01*
X114907200Y-105771428D02*
X114811961Y-105866666D01*
X114811961Y-105866666D02*
X114716723Y-105914285D01*
X114716723Y-105914285D02*
X114526247Y-105961904D01*
X114526247Y-105961904D02*
X114383390Y-105961904D01*
X114383390Y-105961904D02*
X114192914Y-105914285D01*
X114192914Y-105914285D02*
X114097676Y-105866666D01*
X114097676Y-105866666D02*
X114002438Y-105771428D01*
X114002438Y-105771428D02*
X113954819Y-105628571D01*
X113954819Y-105628571D02*
X113954819Y-105533333D01*
X113954819Y-105533333D02*
X114002438Y-105390476D01*
X114002438Y-105390476D02*
X114050057Y-105342857D01*
X113954819Y-105009523D02*
X113954819Y-104390476D01*
X113954819Y-104390476D02*
X114335771Y-104723809D01*
X114335771Y-104723809D02*
X114335771Y-104580952D01*
X114335771Y-104580952D02*
X114383390Y-104485714D01*
X114383390Y-104485714D02*
X114431009Y-104438095D01*
X114431009Y-104438095D02*
X114526247Y-104390476D01*
X114526247Y-104390476D02*
X114764342Y-104390476D01*
X114764342Y-104390476D02*
X114859580Y-104438095D01*
X114859580Y-104438095D02*
X114907200Y-104485714D01*
X114907200Y-104485714D02*
X114954819Y-104580952D01*
X114954819Y-104580952D02*
X114954819Y-104866666D01*
X114954819Y-104866666D02*
X114907200Y-104961904D01*
X114907200Y-104961904D02*
X114859580Y-105009523D01*
X113954819Y-103771428D02*
X113954819Y-103676190D01*
X113954819Y-103676190D02*
X114002438Y-103580952D01*
X114002438Y-103580952D02*
X114050057Y-103533333D01*
X114050057Y-103533333D02*
X114145295Y-103485714D01*
X114145295Y-103485714D02*
X114335771Y-103438095D01*
X114335771Y-103438095D02*
X114573866Y-103438095D01*
X114573866Y-103438095D02*
X114764342Y-103485714D01*
X114764342Y-103485714D02*
X114859580Y-103533333D01*
X114859580Y-103533333D02*
X114907200Y-103580952D01*
X114907200Y-103580952D02*
X114954819Y-103676190D01*
X114954819Y-103676190D02*
X114954819Y-103771428D01*
X114954819Y-103771428D02*
X114907200Y-103866666D01*
X114907200Y-103866666D02*
X114859580Y-103914285D01*
X114859580Y-103914285D02*
X114764342Y-103961904D01*
X114764342Y-103961904D02*
X114573866Y-104009523D01*
X114573866Y-104009523D02*
X114335771Y-104009523D01*
X114335771Y-104009523D02*
X114145295Y-103961904D01*
X114145295Y-103961904D02*
X114050057Y-103914285D01*
X114050057Y-103914285D02*
X114002438Y-103866666D01*
X114002438Y-103866666D02*
X113954819Y-103771428D01*
D16*
X192257419Y-126633333D02*
X192971704Y-126633333D01*
X192971704Y-126633333D02*
X193114561Y-126680952D01*
X193114561Y-126680952D02*
X193209800Y-126776190D01*
X193209800Y-126776190D02*
X193257419Y-126919047D01*
X193257419Y-126919047D02*
X193257419Y-127014285D01*
X192685990Y-126014285D02*
X192638371Y-126109523D01*
X192638371Y-126109523D02*
X192590752Y-126157142D01*
X192590752Y-126157142D02*
X192495514Y-126204761D01*
X192495514Y-126204761D02*
X192447895Y-126204761D01*
X192447895Y-126204761D02*
X192352657Y-126157142D01*
X192352657Y-126157142D02*
X192305038Y-126109523D01*
X192305038Y-126109523D02*
X192257419Y-126014285D01*
X192257419Y-126014285D02*
X192257419Y-125823809D01*
X192257419Y-125823809D02*
X192305038Y-125728571D01*
X192305038Y-125728571D02*
X192352657Y-125680952D01*
X192352657Y-125680952D02*
X192447895Y-125633333D01*
X192447895Y-125633333D02*
X192495514Y-125633333D01*
X192495514Y-125633333D02*
X192590752Y-125680952D01*
X192590752Y-125680952D02*
X192638371Y-125728571D01*
X192638371Y-125728571D02*
X192685990Y-125823809D01*
X192685990Y-125823809D02*
X192685990Y-126014285D01*
X192685990Y-126014285D02*
X192733609Y-126109523D01*
X192733609Y-126109523D02*
X192781228Y-126157142D01*
X192781228Y-126157142D02*
X192876466Y-126204761D01*
X192876466Y-126204761D02*
X193066942Y-126204761D01*
X193066942Y-126204761D02*
X193162180Y-126157142D01*
X193162180Y-126157142D02*
X193209800Y-126109523D01*
X193209800Y-126109523D02*
X193257419Y-126014285D01*
X193257419Y-126014285D02*
X193257419Y-125823809D01*
X193257419Y-125823809D02*
X193209800Y-125728571D01*
X193209800Y-125728571D02*
X193162180Y-125680952D01*
X193162180Y-125680952D02*
X193066942Y-125633333D01*
X193066942Y-125633333D02*
X192876466Y-125633333D01*
X192876466Y-125633333D02*
X192781228Y-125680952D01*
X192781228Y-125680952D02*
X192733609Y-125728571D01*
X192733609Y-125728571D02*
X192685990Y-125823809D01*
D15*
X101954819Y-106361904D02*
X102764342Y-106361904D01*
X102764342Y-106361904D02*
X102859580Y-106314285D01*
X102859580Y-106314285D02*
X102907200Y-106266666D01*
X102907200Y-106266666D02*
X102954819Y-106171428D01*
X102954819Y-106171428D02*
X102954819Y-105980952D01*
X102954819Y-105980952D02*
X102907200Y-105885714D01*
X102907200Y-105885714D02*
X102859580Y-105838095D01*
X102859580Y-105838095D02*
X102764342Y-105790476D01*
X102764342Y-105790476D02*
X101954819Y-105790476D01*
X102050057Y-105361904D02*
X102002438Y-105314285D01*
X102002438Y-105314285D02*
X101954819Y-105219047D01*
X101954819Y-105219047D02*
X101954819Y-104980952D01*
X101954819Y-104980952D02*
X102002438Y-104885714D01*
X102002438Y-104885714D02*
X102050057Y-104838095D01*
X102050057Y-104838095D02*
X102145295Y-104790476D01*
X102145295Y-104790476D02*
X102240533Y-104790476D01*
X102240533Y-104790476D02*
X102383390Y-104838095D01*
X102383390Y-104838095D02*
X102954819Y-105409523D01*
X102954819Y-105409523D02*
X102954819Y-104790476D01*
X114454819Y-72392857D02*
X113978628Y-72726190D01*
X114454819Y-72964285D02*
X113454819Y-72964285D01*
X113454819Y-72964285D02*
X113454819Y-72583333D01*
X113454819Y-72583333D02*
X113502438Y-72488095D01*
X113502438Y-72488095D02*
X113550057Y-72440476D01*
X113550057Y-72440476D02*
X113645295Y-72392857D01*
X113645295Y-72392857D02*
X113788152Y-72392857D01*
X113788152Y-72392857D02*
X113883390Y-72440476D01*
X113883390Y-72440476D02*
X113931009Y-72488095D01*
X113931009Y-72488095D02*
X113978628Y-72583333D01*
X113978628Y-72583333D02*
X113978628Y-72964285D01*
X113550057Y-72011904D02*
X113502438Y-71964285D01*
X113502438Y-71964285D02*
X113454819Y-71869047D01*
X113454819Y-71869047D02*
X113454819Y-71630952D01*
X113454819Y-71630952D02*
X113502438Y-71535714D01*
X113502438Y-71535714D02*
X113550057Y-71488095D01*
X113550057Y-71488095D02*
X113645295Y-71440476D01*
X113645295Y-71440476D02*
X113740533Y-71440476D01*
X113740533Y-71440476D02*
X113883390Y-71488095D01*
X113883390Y-71488095D02*
X114454819Y-72059523D01*
X114454819Y-72059523D02*
X114454819Y-71440476D01*
X113454819Y-71107142D02*
X113454819Y-70488095D01*
X113454819Y-70488095D02*
X113835771Y-70821428D01*
X113835771Y-70821428D02*
X113835771Y-70678571D01*
X113835771Y-70678571D02*
X113883390Y-70583333D01*
X113883390Y-70583333D02*
X113931009Y-70535714D01*
X113931009Y-70535714D02*
X114026247Y-70488095D01*
X114026247Y-70488095D02*
X114264342Y-70488095D01*
X114264342Y-70488095D02*
X114359580Y-70535714D01*
X114359580Y-70535714D02*
X114407200Y-70583333D01*
X114407200Y-70583333D02*
X114454819Y-70678571D01*
X114454819Y-70678571D02*
X114454819Y-70964285D01*
X114454819Y-70964285D02*
X114407200Y-71059523D01*
X114407200Y-71059523D02*
X114359580Y-71107142D01*
X98569048Y-128233866D02*
X99330953Y-128233866D01*
X98950000Y-128614819D02*
X98950000Y-127852914D01*
%TO.C,C1*%
D17*
X107750222Y-109876698D02*
X107750222Y-110157858D01*
X108770222Y-109876698D02*
X108770222Y-110157858D01*
%TO.C,J1_Monitor1*%
X96620000Y-85670000D02*
X96620000Y-80480000D01*
X99380000Y-80480000D02*
X96620000Y-80480000D01*
X99380000Y-85670000D02*
X96620000Y-85670000D01*
X99380000Y-85670000D02*
X99380000Y-80480000D01*
X99380000Y-86940000D02*
X99380000Y-88320000D01*
X99380000Y-88320000D02*
X98000000Y-88320000D01*
%TO.C,3V3*%
X100100000Y-70450000D02*
X102000000Y-70450000D01*
X100100000Y-72350000D02*
X100100000Y-70450000D01*
X102000000Y-70450000D02*
X102000000Y-72350000D01*
X102000000Y-72350000D02*
X100100000Y-72350000D01*
%TO.C,C23*%
X107811252Y-92740000D02*
X106388748Y-92740000D01*
X107811252Y-95460000D02*
X106388748Y-95460000D01*
%TO.C,C27*%
X113961252Y-89465000D02*
X113438748Y-89465000D01*
X113961252Y-90935000D02*
X113438748Y-90935000D01*
%TO.C,C10*%
X102697251Y-88541670D02*
X102697251Y-88822830D01*
X103717251Y-88541670D02*
X103717251Y-88822830D01*
%TO.C,J1Fan1*%
X96400000Y-123850000D02*
X96400000Y-118100000D01*
X96450000Y-113550000D02*
X102400000Y-113550000D01*
X96450000Y-116750000D02*
X96450000Y-113550000D01*
X101290000Y-117420000D02*
X102300000Y-117420000D01*
X101290000Y-122500000D02*
X101290000Y-117420000D01*
X102300000Y-122500000D02*
X101290000Y-122500000D01*
X102400000Y-113550000D02*
X102400000Y-123850000D01*
X102400000Y-123850000D02*
X96400000Y-123850000D01*
%TO.C,U3*%
X104146250Y-86431249D02*
X104146250Y-85631249D01*
X104146250Y-86431249D02*
X104146250Y-87231249D01*
X107266250Y-86431249D02*
X107266250Y-85631249D01*
X107266250Y-86431249D02*
X107266250Y-87231249D01*
X104196250Y-87731249D02*
X103866250Y-87971249D01*
X103866250Y-87491249D01*
X104196250Y-87731249D01*
G36*
X104196250Y-87731249D02*
G01*
X103866250Y-87971249D01*
X103866250Y-87491249D01*
X104196250Y-87731249D01*
G37*
%TO.C,U4*%
D11*
X111700000Y-91700001D02*
X111700000Y-91900001D01*
X111700000Y-91700001D02*
X111899999Y-91700001D01*
X111700000Y-95299999D02*
X111700000Y-95499999D01*
X111700000Y-95499999D02*
X111899999Y-95499999D01*
X116025000Y-91700001D02*
X116500000Y-91700001D01*
X116300001Y-95499999D02*
X116500000Y-95499999D01*
X116500000Y-91700001D02*
X116500000Y-92475001D01*
X116500000Y-95299999D02*
X116500000Y-95499999D01*
%TO.C,R1*%
D17*
X105825242Y-112277500D02*
X106299758Y-112277500D01*
X105825242Y-113322500D02*
X106299758Y-113322500D01*
%TO.C,R24*%
X107337258Y-71677500D02*
X106862742Y-71677500D01*
X107337258Y-72722500D02*
X106862742Y-72722500D01*
%TO.C,C24*%
X108240000Y-74352500D02*
X110590000Y-74352500D01*
X108240000Y-80108063D02*
X108240000Y-74352500D01*
X109304437Y-81172500D02*
X108240000Y-80108063D01*
X109304437Y-81172500D02*
X110590000Y-81172500D01*
X113995563Y-81172500D02*
X112710000Y-81172500D01*
X113995563Y-81172500D02*
X115060000Y-80108063D01*
X115060000Y-74352500D02*
X112710000Y-74352500D01*
X115060000Y-80108063D02*
X115060000Y-74352500D01*
%TO.C,J1_Prog1*%
X96620000Y-71780000D02*
X98000000Y-71780000D01*
X96620000Y-73160000D02*
X96620000Y-71780000D01*
X96620000Y-74430000D02*
X96620000Y-79620000D01*
X96620000Y-74430000D02*
X99380000Y-74430000D01*
X96620000Y-79620000D02*
X99380000Y-79620000D01*
X99380000Y-74430000D02*
X99380000Y-79620000D01*
%TO.C,C22*%
X112011252Y-106640000D02*
X110588748Y-106640000D01*
X112011252Y-109360000D02*
X110588748Y-109360000D01*
%TO.C,R2*%
X97925242Y-108577500D02*
X98399758Y-108577500D01*
X97925242Y-109622500D02*
X98399758Y-109622500D01*
%TO.C,R3*%
X98379758Y-110577500D02*
X97905242Y-110577500D01*
X98379758Y-111622500D02*
X97905242Y-111622500D01*
%TO.C,C25*%
X101040000Y-74352500D02*
X103390000Y-74352500D01*
X101040000Y-80108063D02*
X101040000Y-74352500D01*
X102104437Y-81172500D02*
X101040000Y-80108063D01*
X102104437Y-81172500D02*
X103390000Y-81172500D01*
X106795563Y-81172500D02*
X105510000Y-81172500D01*
X106795563Y-81172500D02*
X107860000Y-80108063D01*
X107860000Y-74352500D02*
X105510000Y-74352500D01*
X107860000Y-80108063D02*
X107860000Y-74352500D01*
%TO.C,C11*%
X101097251Y-88541670D02*
X101097251Y-88822830D01*
X102117251Y-88541670D02*
X102117251Y-88822830D01*
%TO.C,J1_MainPW1*%
X98740000Y-94130000D02*
X100440000Y-94130000D01*
X98740000Y-103470000D02*
X100440000Y-103470000D01*
%TO.C,J1Temp1*%
X103390000Y-114020000D02*
X103390000Y-116780000D01*
X113660000Y-114020000D02*
X103390000Y-114020000D01*
X113660000Y-114020000D02*
X113660000Y-116780000D01*
X113660000Y-116780000D02*
X103390000Y-116780000D01*
X114930000Y-114020000D02*
X116310000Y-114020000D01*
X116310000Y-114020000D02*
X116310000Y-115400000D01*
%TO.C,R4*%
X111912742Y-109877500D02*
X112387258Y-109877500D01*
X111912742Y-110922500D02*
X112387258Y-110922500D01*
%TO.C,J1_Control1*%
X106280000Y-122480000D02*
X106280000Y-121100000D01*
X107660000Y-122480000D02*
X106280000Y-122480000D01*
X108930000Y-119720000D02*
X114120000Y-119720000D01*
X108930000Y-122480000D02*
X108930000Y-119720000D01*
X108930000Y-122480000D02*
X114120000Y-122480000D01*
X114120000Y-122480000D02*
X114120000Y-119720000D01*
%TO.C,USB*%
X105100000Y-103350000D02*
X107000000Y-103350000D01*
X105100000Y-105250000D02*
X105100000Y-103350000D01*
X107000000Y-103350000D02*
X107000000Y-105250000D01*
X107000000Y-105250000D02*
X105100000Y-105250000D01*
%TO.C,L1*%
X108725000Y-82425000D02*
X115275000Y-82425000D01*
X108725000Y-83685500D02*
X108725000Y-82425000D01*
X108725000Y-87714500D02*
X108725000Y-88975000D01*
X108725000Y-88975000D02*
X115275000Y-88975000D01*
X115275000Y-82425000D02*
X115275000Y-83685500D01*
X115275000Y-88975000D02*
X115275000Y-87714500D01*
%TO.C,20V*%
X109450000Y-111400000D02*
X111350000Y-111400000D01*
X109450000Y-113300000D02*
X109450000Y-111400000D01*
X111350000Y-111400000D02*
X111350000Y-113300000D01*
X111350000Y-113300000D02*
X109450000Y-113300000D01*
%TO.C,5V*%
X103950000Y-82350000D02*
X105850000Y-82350000D01*
X103950000Y-84250000D02*
X103950000Y-82350000D01*
X105850000Y-82350000D02*
X105850000Y-84250000D01*
X105850000Y-84250000D02*
X103950000Y-84250000D01*
%TO.C,Q1*%
X107350000Y-95990000D02*
X111110000Y-95990000D01*
X107350000Y-102810000D02*
X111110000Y-102810000D01*
X111110000Y-95990000D02*
X111110000Y-97250000D01*
X111110000Y-102810000D02*
X111110000Y-101550000D01*
X106070000Y-96090000D02*
X105830000Y-95760000D01*
X106310000Y-95760000D01*
X106070000Y-96090000D01*
G36*
X106070000Y-96090000D02*
G01*
X105830000Y-95760000D01*
X106310000Y-95760000D01*
X106070000Y-96090000D01*
G37*
%TO.C,C13*%
X101097251Y-85722830D02*
X101097251Y-85441670D01*
X102117251Y-85722830D02*
X102117251Y-85441670D01*
%TO.C,C12*%
X102697251Y-85722830D02*
X102697251Y-85441670D01*
X103717251Y-85722830D02*
X103717251Y-85441670D01*
%TO.C,C30*%
X112011252Y-103340000D02*
X110588748Y-103340000D01*
X112011252Y-106060000D02*
X110588748Y-106060000D01*
%TO.C,U2*%
X103800000Y-106540000D02*
X101850000Y-106540000D01*
X103800000Y-106540000D02*
X105750000Y-106540000D01*
X103800000Y-111660000D02*
X101850000Y-111660000D01*
X103800000Y-111660000D02*
X105750000Y-111660000D01*
X106512500Y-111660000D02*
X106752500Y-111990000D01*
X106272500Y-111990000D01*
X106512500Y-111660000D01*
G36*
X106752500Y-111990000D02*
G01*
X106272500Y-111990000D01*
X106512500Y-111660000D01*
X106752500Y-111990000D01*
G37*
%TO.C,R23*%
X111937258Y-71677500D02*
X111462742Y-71677500D01*
X111937258Y-72722500D02*
X111462742Y-72722500D01*
%TO.C,BZ1*%
X108560000Y-130700000D02*
G75*
G02*
X96360000Y-130700000I-6100000J0D01*
G01*
X96360000Y-130700000D02*
G75*
G02*
X108560000Y-130700000I6100000J0D01*
G01*
%TD*%
D18*
X98000000Y-86940000D03*
X98000000Y-84400000D03*
X98000000Y-81860000D03*
D19*
X125324999Y-134850001D03*
X125324999Y-127750001D03*
D18*
X96840000Y-117420000D03*
X99000000Y-122500000D03*
X99000000Y-119960000D03*
X99000000Y-117420000D03*
X99000000Y-114880000D03*
D19*
X170324999Y-134850001D03*
X170324999Y-127750001D03*
D20*
X114100000Y-93600000D03*
D19*
X170824999Y-69350001D03*
X170824999Y-62250001D03*
D20*
X114100000Y-92799999D03*
X115400000Y-93600000D03*
X112800000Y-93600000D03*
X114100000Y-94400001D03*
D18*
X98000000Y-73160000D03*
X98000000Y-75700000D03*
X98000000Y-78240000D03*
D20*
X113400000Y-92800000D03*
X114800000Y-92800000D03*
D18*
X101245000Y-95910000D03*
X101245000Y-101690000D03*
D21*
X101745000Y-94480000D03*
D22*
X97565000Y-94480000D03*
D21*
X101745000Y-103120000D03*
D22*
X97565000Y-103120000D03*
D19*
X125860000Y-69350000D03*
X125860000Y-62250000D03*
X148184999Y-69350001D03*
X148184999Y-62250001D03*
D18*
X114930000Y-115400000D03*
X112390000Y-115400000D03*
X109850000Y-115400000D03*
X107310000Y-115400000D03*
X104770000Y-115400000D03*
D19*
X147684999Y-134850001D03*
X147684999Y-127750001D03*
D18*
X107660000Y-121100000D03*
X110200000Y-121100000D03*
X112740000Y-121100000D03*
D19*
X193324999Y-69350001D03*
X193324999Y-62250001D03*
D20*
X114800000Y-94400000D03*
X113400000Y-94400000D03*
D19*
X192824999Y-134850001D03*
X192824999Y-127750001D03*
D18*
X98660000Y-130700000D03*
X106260000Y-130700000D03*
D23*
X108740000Y-77750000D03*
X108740000Y-76650000D03*
X108190000Y-78300000D03*
X108190000Y-77200000D03*
X108190000Y-76100000D03*
X107640000Y-77750000D03*
X107640000Y-76650000D03*
X107090000Y-78300000D03*
X107090000Y-77200000D03*
X107090000Y-76100000D03*
X106540000Y-77750000D03*
X106540000Y-76650000D03*
M02*
