%TF.GenerationSoftware,KiCad,Pcbnew,10.0.2*%
%TF.CreationDate,2026-05-17T20:23:45+02:00*%
%TF.ProjectId,SlimeVR_Dock,536c696d-6556-4525-9f44-6f636b2e6b69,rev?*%
%TF.SameCoordinates,Original*%
%TF.FileFunction,Soldermask,Top*%
%TF.FilePolarity,Negative*%
%FSLAX46Y46*%
G04 Gerber Fmt 4.6, Leading zero omitted, Abs format (unit mm)*
G04 Created by KiCad (PCBNEW 10.0.2) date 2026-05-17 20:23:45*
%MOMM*%
%LPD*%
G01*
G04 APERTURE LIST*
G04 Aperture macros list*
%AMRoundRect*
0 Rectangle with rounded corners*
0 $1 Rounding radius*
0 $2 $3 $4 $5 $6 $7 $8 $9 X,Y pos of 4 corners*
0 Add a 4 corners polygon primitive as box body*
4,1,4,$2,$3,$4,$5,$6,$7,$8,$9,$2,$3,0*
0 Add four circle primitives for the rounded corners*
1,1,$1+$1,$2,$3*
1,1,$1+$1,$4,$5*
1,1,$1+$1,$6,$7*
1,1,$1+$1,$8,$9*
0 Add four rect primitives between the rounded corners*
20,1,$1+$1,$2,$3,$4,$5,0*
20,1,$1+$1,$4,$5,$6,$7,0*
20,1,$1+$1,$6,$7,$8,$9,0*
20,1,$1+$1,$8,$9,$2,$3,0*%
G04 Aperture macros list end*
%ADD10RoundRect,0.225000X0.225000X0.250000X-0.225000X0.250000X-0.225000X-0.250000X0.225000X-0.250000X0*%
%ADD11R,1.700000X1.700000*%
%ADD12C,1.700000*%
%ADD13R,1.500000X1.500000*%
%ADD14RoundRect,0.250000X1.100000X-0.325000X1.100000X0.325000X-1.100000X0.325000X-1.100000X-0.325000X0*%
%ADD15RoundRect,0.250000X0.475000X-0.250000X0.475000X0.250000X-0.475000X0.250000X-0.475000X-0.250000X0*%
%ADD16RoundRect,0.225000X0.250000X-0.225000X0.250000X0.225000X-0.250000X0.225000X-0.250000X-0.225000X0*%
%ADD17RoundRect,0.060000X0.440000X0.140000X-0.440000X0.140000X-0.440000X-0.140000X0.440000X-0.140000X0*%
%ADD18O,2.200000X0.950000*%
%ADD19C,1.100000*%
%ADD20R,1.730000X2.030000*%
%ADD21O,1.730000X2.030000*%
%ADD22RoundRect,0.150000X0.150000X-0.512500X0.150000X0.512500X-0.150000X0.512500X-0.150000X-0.512500X0*%
%ADD23C,0.499999*%
%ADD24O,0.599999X0.200000*%
%ADD25O,0.200000X0.599999*%
%ADD26RoundRect,0.250000X0.800000X1.299999X-0.800000X1.299999X-0.800000X-1.299999X0.800000X-1.299999X0*%
%ADD27RoundRect,0.200000X-0.200000X-0.275000X0.200000X-0.275000X0.200000X0.275000X-0.200000X0.275000X0*%
%ADD28RoundRect,0.200000X0.275000X-0.200000X0.275000X0.200000X-0.275000X0.200000X-0.275000X-0.200000X0*%
%ADD29RoundRect,0.200000X0.200000X0.275000X-0.200000X0.275000X-0.200000X-0.275000X0.200000X-0.275000X0*%
%ADD30RoundRect,0.250000X1.412500X0.550000X-1.412500X0.550000X-1.412500X-0.550000X1.412500X-0.550000X0*%
%ADD31RoundRect,0.200000X-0.275000X0.200000X-0.275000X-0.200000X0.275000X-0.200000X0.275000X0.200000X0*%
%ADD32RoundRect,0.250000X0.250000X0.475000X-0.250000X0.475000X-0.250000X-0.475000X0.250000X-0.475000X0*%
%ADD33C,0.650000*%
%ADD34RoundRect,0.150000X-0.425000X0.150000X-0.425000X-0.150000X0.425000X-0.150000X0.425000X0.150000X0*%
%ADD35RoundRect,0.075000X-0.500000X0.075000X-0.500000X-0.075000X0.500000X-0.075000X0.500000X0.075000X0*%
%ADD36O,2.100000X1.000000*%
%ADD37O,1.800000X1.000000*%
%ADD38R,3.429000X2.413000*%
%ADD39RoundRect,0.250000X0.262500X0.450000X-0.262500X0.450000X-0.262500X-0.450000X0.262500X-0.450000X0*%
%ADD40RoundRect,0.375000X0.375000X-0.625000X0.375000X0.625000X-0.375000X0.625000X-0.375000X-0.625000X0*%
%ADD41RoundRect,0.500000X1.400000X-0.500000X1.400000X0.500000X-1.400000X0.500000X-1.400000X-0.500000X0*%
%ADD42RoundRect,0.225000X-0.250000X0.225000X-0.250000X-0.225000X0.250000X-0.225000X0.250000X0.225000X0*%
%ADD43RoundRect,0.150000X-0.150000X0.687500X-0.150000X-0.687500X0.150000X-0.687500X0.150000X0.687500X0*%
%ADD44R,3.300000X2.100000*%
%ADD45R,2.000000X2.000000*%
%ADD46C,2.000000*%
%ADD47C,0.350000*%
%ADD48O,1.600000X0.550000*%
%ADD49C,0.203200*%
%ADD50O,1.700000X0.600000*%
%ADD51O,1.400000X0.600000*%
%ADD52C,0.200000*%
G04 APERTURE END LIST*
D10*
%TO.C,C1*%
X110875000Y-127800000D03*
X109325000Y-127800000D03*
%TD*%
D11*
%TO.C,J1_Monitor1*%
X98000000Y-86940000D03*
D12*
X98000000Y-84400000D03*
X98000000Y-81860000D03*
%TD*%
D13*
%TO.C,3V3*%
X104550000Y-74300000D03*
%TD*%
D14*
%TO.C,C23*%
X104287500Y-116273000D03*
X104287500Y-113323000D03*
%TD*%
D15*
%TO.C,C27*%
X115000000Y-120350000D03*
X115000000Y-118450000D03*
%TD*%
%TO.C,C29*%
X104237500Y-121300000D03*
X104237500Y-119400000D03*
%TD*%
D16*
%TO.C,C10*%
X111950000Y-78775000D03*
X111950000Y-77225000D03*
%TD*%
D17*
%TO.C,J2*%
X124224999Y-128955001D03*
X124224999Y-129625001D03*
X124224999Y-130295001D03*
X124224999Y-130965001D03*
X124224999Y-131635001D03*
X124224999Y-132305001D03*
X124224999Y-132975001D03*
X124224999Y-133645001D03*
X126424999Y-133645001D03*
X126424999Y-132975001D03*
X126424999Y-132305001D03*
X126424999Y-131635001D03*
X126424999Y-130965001D03*
X126424999Y-130295001D03*
X126424999Y-129625001D03*
X126424999Y-128955001D03*
D18*
X125324999Y-134850001D03*
X125324999Y-127750001D03*
%TD*%
D19*
%TO.C,J1Fan1*%
X100550000Y-111360000D03*
D20*
X105630000Y-109200000D03*
D21*
X103090000Y-109200000D03*
X100550000Y-109200000D03*
X98010000Y-109200000D03*
%TD*%
D17*
%TO.C,J6*%
X169224999Y-128955001D03*
X169224999Y-129625001D03*
X169224999Y-130295001D03*
X169224999Y-130965001D03*
X169224999Y-131635001D03*
X169224999Y-132305001D03*
X169224999Y-132975001D03*
X169224999Y-133645001D03*
X171424999Y-133645001D03*
X171424999Y-132975001D03*
X171424999Y-132305001D03*
X171424999Y-131635001D03*
X171424999Y-130965001D03*
X171424999Y-130295001D03*
X171424999Y-129625001D03*
X171424999Y-128955001D03*
D18*
X170324999Y-134850001D03*
X170324999Y-127750001D03*
%TD*%
D22*
%TO.C,U3*%
X113500000Y-78125000D03*
X114450000Y-78125000D03*
X115400000Y-78125000D03*
X115400000Y-75850000D03*
X113500000Y-75850000D03*
%TD*%
D23*
%TO.C,*%
X107812501Y-117719000D03*
%TD*%
D17*
%TO.C,J7*%
X169724999Y-63455001D03*
X169724999Y-64125001D03*
X169724999Y-64795001D03*
X169724999Y-65465001D03*
X169724999Y-66135001D03*
X169724999Y-66805001D03*
X169724999Y-67475001D03*
X169724999Y-68145001D03*
X171924999Y-68145001D03*
X171924999Y-67475001D03*
X171924999Y-66805001D03*
X171924999Y-66135001D03*
X171924999Y-65465001D03*
X171924999Y-64795001D03*
X171924999Y-64125001D03*
X171924999Y-63455001D03*
D18*
X170824999Y-69350001D03*
X170824999Y-62250001D03*
%TD*%
D24*
%TO.C,U4*%
X109462500Y-119318999D03*
X109462500Y-118919000D03*
X109462500Y-118518998D03*
X109462500Y-118118999D03*
X109462500Y-117719000D03*
X109462500Y-117318998D03*
X109462500Y-116918999D03*
X109462500Y-116519000D03*
X109462500Y-116118998D03*
D25*
X108612502Y-115568999D03*
X108212500Y-115568999D03*
X107812501Y-115568999D03*
X107412502Y-115568999D03*
X107012500Y-115568999D03*
D24*
X106162502Y-116118998D03*
X106162502Y-116518997D03*
X106162502Y-116918999D03*
X106162502Y-117318998D03*
X106162502Y-117718997D03*
X106162502Y-118118999D03*
X106162502Y-118518998D03*
X106162502Y-118919000D03*
X106162502Y-119318999D03*
D25*
X107012500Y-119869001D03*
X107412502Y-119869001D03*
X107812501Y-119869001D03*
X108212500Y-119869001D03*
X108612502Y-119869001D03*
D26*
X107812501Y-117719000D03*
D23*
X108612502Y-117719000D03*
X107812501Y-119019000D03*
X107812501Y-116419000D03*
X107012500Y-117719000D03*
%TD*%
D27*
%TO.C,R1*%
X106275000Y-127800000D03*
X107925000Y-127800000D03*
%TD*%
D28*
%TO.C,R40*%
X105987500Y-123358000D03*
X105987500Y-121708000D03*
%TD*%
D29*
%TO.C,R24*%
X107925000Y-72200000D03*
X106275000Y-72200000D03*
%TD*%
D27*
%TO.C,R41*%
X111975000Y-121100000D03*
X113625000Y-121100000D03*
%TD*%
D30*
%TO.C,C24*%
X114587500Y-93998000D03*
X109512500Y-93998000D03*
%TD*%
D31*
%TO.C,R37*%
X112350000Y-122600000D03*
X112350000Y-124250000D03*
%TD*%
D11*
%TO.C,J1_Prog1*%
X98000000Y-73160000D03*
D12*
X98000000Y-75700000D03*
X98000000Y-78240000D03*
%TD*%
D32*
%TO.C,C26*%
X112137500Y-105879000D03*
X110237500Y-105879000D03*
%TD*%
D14*
%TO.C,C22*%
X97887500Y-116273000D03*
X97887500Y-113323000D03*
%TD*%
D32*
%TO.C,C31*%
X112137500Y-107879000D03*
X110237500Y-107879000D03*
%TD*%
D30*
%TO.C,C25*%
X114587500Y-101198000D03*
X109512500Y-101198000D03*
%TD*%
D23*
%TO.C,*%
X107012501Y-118419000D03*
%TD*%
D31*
%TO.C,R57*%
X113900000Y-122600000D03*
X113900000Y-124250000D03*
%TD*%
D23*
%TO.C,*%
X107012501Y-117019000D03*
%TD*%
D28*
%TO.C,R39*%
X110550000Y-123375000D03*
X110550000Y-121725000D03*
%TD*%
D16*
%TO.C,C11*%
X110350000Y-78775000D03*
X110350000Y-77225000D03*
%TD*%
D33*
%TO.C,J1_MainPW1*%
X101180000Y-128679000D03*
X101180000Y-134459000D03*
D34*
X102255000Y-128369000D03*
X102255000Y-129169000D03*
D35*
X102255000Y-130319000D03*
X102255000Y-131319000D03*
X102255000Y-131819000D03*
X102255000Y-132819000D03*
D34*
X102255000Y-133969000D03*
X102255000Y-134769000D03*
X102255000Y-134769000D03*
X102255000Y-133969000D03*
D35*
X102255000Y-133319000D03*
X102255000Y-132319000D03*
X102255000Y-130819000D03*
X102255000Y-129819000D03*
D34*
X102255000Y-129169000D03*
X102255000Y-128369000D03*
D36*
X101680000Y-127249000D03*
D37*
X97500000Y-127249000D03*
D36*
X101680000Y-135889000D03*
D37*
X97500000Y-135889000D03*
%TD*%
D17*
%TO.C,J3*%
X124760000Y-63455000D03*
X124760000Y-64125000D03*
X124760000Y-64795000D03*
X124760000Y-65465000D03*
X124760000Y-66135000D03*
X124760000Y-66805000D03*
X124760000Y-67475000D03*
X124760000Y-68145000D03*
X126960000Y-68145000D03*
X126960000Y-67475000D03*
X126960000Y-66805000D03*
X126960000Y-66135000D03*
X126960000Y-65465000D03*
X126960000Y-64795000D03*
X126960000Y-64125000D03*
X126960000Y-63455000D03*
D18*
X125860000Y-69350000D03*
X125860000Y-62250000D03*
%TD*%
D17*
%TO.C,J5*%
X147084999Y-63455001D03*
X147084999Y-64125001D03*
X147084999Y-64795001D03*
X147084999Y-65465001D03*
X147084999Y-66135001D03*
X147084999Y-66805001D03*
X147084999Y-67475001D03*
X147084999Y-68145001D03*
X149284999Y-68145001D03*
X149284999Y-67475001D03*
X149284999Y-66805001D03*
X149284999Y-66135001D03*
X149284999Y-65465001D03*
X149284999Y-64795001D03*
X149284999Y-64125001D03*
X149284999Y-63455001D03*
D18*
X148184999Y-69350001D03*
X148184999Y-62250001D03*
%TD*%
D28*
%TO.C,R34*%
X108987500Y-123375000D03*
X108987500Y-121725000D03*
%TD*%
D11*
%TO.C,J1Temp1*%
X114250000Y-136030000D03*
D12*
X114250000Y-133490000D03*
X114250000Y-130950000D03*
X114250000Y-128410000D03*
%TD*%
D17*
%TO.C,J4*%
X146584999Y-128955001D03*
X146584999Y-129625001D03*
X146584999Y-130295001D03*
X146584999Y-130965001D03*
X146584999Y-131635001D03*
X146584999Y-132305001D03*
X146584999Y-132975001D03*
X146584999Y-133645001D03*
X148784999Y-133645001D03*
X148784999Y-132975001D03*
X148784999Y-132305001D03*
X148784999Y-131635001D03*
X148784999Y-130965001D03*
X148784999Y-130295001D03*
X148784999Y-129625001D03*
X148784999Y-128955001D03*
D18*
X147684999Y-134850001D03*
X147684999Y-127750001D03*
%TD*%
D11*
%TO.C,J1_Control1*%
X108110000Y-87100000D03*
D12*
X105570000Y-87100000D03*
X103030000Y-87100000D03*
%TD*%
D13*
%TO.C,USB*%
X104600000Y-133250000D03*
%TD*%
D17*
%TO.C,J9*%
X192224999Y-63455001D03*
X192224999Y-64125001D03*
X192224999Y-64795001D03*
X192224999Y-65465001D03*
X192224999Y-66135001D03*
X192224999Y-66805001D03*
X192224999Y-67475001D03*
X192224999Y-68145001D03*
X194424999Y-68145001D03*
X194424999Y-67475001D03*
X194424999Y-66805001D03*
X194424999Y-66135001D03*
X194424999Y-65465001D03*
X194424999Y-64795001D03*
X194424999Y-64125001D03*
X194424999Y-63455001D03*
D18*
X193324999Y-69350001D03*
X193324999Y-62250001D03*
%TD*%
D31*
%TO.C,R35*%
X107487500Y-121725000D03*
X107487500Y-123375000D03*
%TD*%
D38*
%TO.C,L1*%
X113137500Y-116250000D03*
X113137500Y-110408000D03*
%TD*%
D13*
%TO.C,5V*%
X115100000Y-81900000D03*
%TD*%
D39*
%TO.C,R54*%
X113212500Y-118700000D03*
X111387500Y-118700000D03*
%TD*%
D23*
%TO.C,*%
X108612501Y-117019000D03*
%TD*%
D40*
%TO.C,Q1*%
X97637500Y-124858000D03*
X99937500Y-124858000D03*
X102237500Y-124858000D03*
D41*
X99937500Y-118558000D03*
%TD*%
D23*
%TO.C,*%
X108612501Y-118419000D03*
%TD*%
D42*
%TO.C,C13*%
X110350000Y-74125000D03*
X110350000Y-75675000D03*
%TD*%
%TO.C,C12*%
X111950000Y-74125000D03*
X111950000Y-75675000D03*
%TD*%
D14*
%TO.C,C30*%
X101087500Y-116273000D03*
X101087500Y-113323000D03*
%TD*%
D17*
%TO.C,J8*%
X191724999Y-128955001D03*
X191724999Y-129625001D03*
X191724999Y-130295001D03*
X191724999Y-130965001D03*
X191724999Y-131635001D03*
X191724999Y-132305001D03*
X191724999Y-132975001D03*
X191724999Y-133645001D03*
X193924999Y-133645001D03*
X193924999Y-132975001D03*
X193924999Y-132305001D03*
X193924999Y-131635001D03*
X193924999Y-130965001D03*
X193924999Y-130295001D03*
X193924999Y-129625001D03*
X193924999Y-128955001D03*
D18*
X192824999Y-134850001D03*
X192824999Y-127750001D03*
%TD*%
D43*
%TO.C,U2*%
X110887500Y-130012500D03*
X109887500Y-130012500D03*
X108887500Y-130012500D03*
X107887500Y-130012500D03*
X106887500Y-130012500D03*
X106887500Y-135287500D03*
X107887500Y-135287500D03*
X108887500Y-135287500D03*
X109887500Y-135287500D03*
X110887500Y-135287500D03*
D44*
X108887500Y-132650000D03*
%TD*%
D29*
%TO.C,R23*%
X112525000Y-72200000D03*
X110875000Y-72200000D03*
%TD*%
D45*
%TO.C,BZ1*%
X102400000Y-93700000D03*
D46*
X102400000Y-101300000D03*
%TD*%
D47*
X98000000Y-86940000D03*
X98000000Y-84400000D03*
X98000000Y-81860000D03*
D48*
X125324999Y-134850001D03*
X125324999Y-127750001D03*
D47*
X100550000Y-111360000D03*
X105630000Y-109200000D03*
X103090000Y-109200000D03*
X100550000Y-109200000D03*
X98010000Y-109200000D03*
D48*
X170324999Y-134850001D03*
X170324999Y-127750001D03*
D49*
X107812501Y-117719000D03*
D48*
X170824999Y-69350001D03*
X170824999Y-62250001D03*
D49*
X108612502Y-117719000D03*
X107812501Y-119019000D03*
X107812501Y-116419000D03*
X107012500Y-117719000D03*
D47*
X98000000Y-73160000D03*
X98000000Y-75700000D03*
X98000000Y-78240000D03*
D49*
X107012501Y-118419000D03*
X107012501Y-117019000D03*
D47*
X101180000Y-128679000D03*
X101180000Y-134459000D03*
D50*
X101680000Y-127249000D03*
D51*
X97500000Y-127249000D03*
D50*
X101680000Y-135889000D03*
D51*
X97500000Y-135889000D03*
D48*
X125860000Y-69350000D03*
X125860000Y-62250000D03*
X148184999Y-69350001D03*
X148184999Y-62250001D03*
D47*
X114250000Y-136030000D03*
X114250000Y-133490000D03*
X114250000Y-130950000D03*
X114250000Y-128410000D03*
D48*
X147684999Y-134850001D03*
X147684999Y-127750001D03*
D47*
X108110000Y-87100000D03*
X105570000Y-87100000D03*
X103030000Y-87100000D03*
D48*
X193324999Y-69350001D03*
X193324999Y-62250001D03*
D49*
X108612501Y-117019000D03*
X108612501Y-118419000D03*
D48*
X192824999Y-134850001D03*
X192824999Y-127750001D03*
D47*
X102400000Y-93700000D03*
X102400000Y-101300000D03*
D52*
X108740000Y-77750000D03*
X108740000Y-76650000D03*
X108190000Y-78300000D03*
X108190000Y-77200000D03*
X108190000Y-76100000D03*
X107640000Y-77750000D03*
X107640000Y-76650000D03*
X107090000Y-78300000D03*
X107090000Y-77200000D03*
X107090000Y-76100000D03*
X106540000Y-77750000D03*
X106540000Y-76650000D03*
M02*
