%TF.GenerationSoftware,KiCad,Pcbnew,10.0.2*%
%TF.CreationDate,2026-05-12T16:12:52+02:00*%
%TF.ProjectId,SlimeVR_Dock,536c696d-6556-4525-9f44-6f636b2e6b69,rev?*%
%TF.SameCoordinates,Original*%
%TF.FileFunction,Profile,NP*%
%FSLAX46Y46*%
G04 Gerber Fmt 4.6, Leading zero omitted, Abs format (unit mm)*
G04 Created by KiCad (PCBNEW 10.0.2) date 2026-05-12 16:12:52*
%MOMM*%
%LPD*%
G01*
G04 APERTURE LIST*
%TA.AperFunction,Profile*%
%ADD10C,0.050000*%
%TD*%
%ADD11C,0.350000*%
%ADD12O,1.600000X0.550000*%
%ADD13C,0.203200*%
%ADD14O,1.700000X0.600000*%
%ADD15O,1.400000X0.600000*%
%ADD16C,0.200000*%
G04 APERTURE END LIST*
D10*
X96050296Y-71900296D02*
G75*
G02*
X98050296Y-69899996I2000004J296D01*
G01*
X96059704Y-135800296D02*
X96050296Y-71900296D01*
X98050296Y-69900000D02*
X120900000Y-69900300D01*
X98059704Y-137800000D02*
G75*
G02*
X96059700Y-135800296I-4J2000000D01*
G01*
X98059704Y-137800000D02*
X194050255Y-137800000D01*
X100500000Y-91100000D02*
G75*
G02*
X97500000Y-91100000I-1500000J0D01*
G01*
X97500000Y-91100000D02*
G75*
G02*
X100500000Y-91100000I1500000J0D01*
G01*
X114600000Y-134900000D02*
G75*
G02*
X111600000Y-134900000I-1500000J0D01*
G01*
X111600000Y-134900000D02*
G75*
G02*
X114600000Y-134900000I1500000J0D01*
G01*
X122900000Y-61500000D02*
G75*
G02*
X124900000Y-59500000I2000000J0D01*
G01*
X122900000Y-67900000D02*
G75*
G02*
X120900000Y-69900300I-2000000J-300D01*
G01*
X122900000Y-67900000D02*
X122900000Y-61500000D01*
X124900000Y-59500000D02*
X194059745Y-59500000D01*
X138000000Y-65800000D02*
G75*
G02*
X135000000Y-65800000I-1500000J0D01*
G01*
X135000000Y-65800000D02*
G75*
G02*
X138000000Y-65800000I1500000J0D01*
G01*
X138000000Y-131300000D02*
G75*
G02*
X135000000Y-131300000I-1500000J0D01*
G01*
X135000000Y-131300000D02*
G75*
G02*
X138000000Y-131300000I1500000J0D01*
G01*
X160500000Y-65800000D02*
G75*
G02*
X157500000Y-65800000I-1500000J0D01*
G01*
X157500000Y-65800000D02*
G75*
G02*
X160500000Y-65800000I1500000J0D01*
G01*
X160500000Y-131300000D02*
G75*
G02*
X157500000Y-131300000I-1500000J0D01*
G01*
X157500000Y-131300000D02*
G75*
G02*
X160500000Y-131300000I1500000J0D01*
G01*
X183600000Y-65800000D02*
G75*
G02*
X180600000Y-65800000I-1500000J0D01*
G01*
X180600000Y-65800000D02*
G75*
G02*
X183600000Y-65800000I1500000J0D01*
G01*
X183600000Y-131300000D02*
G75*
G02*
X180600000Y-131300000I-1500000J0D01*
G01*
X180600000Y-131300000D02*
G75*
G02*
X183600000Y-131300000I1500000J0D01*
G01*
X194059745Y-59500000D02*
G75*
G02*
X196059800Y-61500255I-45J-2000100D01*
G01*
X196050255Y-135800255D02*
G75*
G02*
X194050255Y-137799955I-1999955J255D01*
G01*
X196059745Y-61500255D02*
X196050255Y-135800255D01*
D11*
X98000000Y-86940000D03*
X98000000Y-84400000D03*
X98000000Y-81860000D03*
D12*
X125324999Y-134850001D03*
X125324999Y-127750001D03*
D11*
X96840000Y-117420000D03*
X99000000Y-122500000D03*
X99000000Y-119960000D03*
X99000000Y-117420000D03*
X99000000Y-114880000D03*
D12*
X170324999Y-134850001D03*
X170324999Y-127750001D03*
D13*
X114100000Y-93600000D03*
D12*
X170824999Y-69350001D03*
X170824999Y-62250001D03*
D13*
X114100000Y-92799999D03*
X115400000Y-93600000D03*
X112800000Y-93600000D03*
X114100000Y-94400001D03*
D11*
X98000000Y-73160000D03*
X98000000Y-75700000D03*
X98000000Y-78240000D03*
D13*
X113400000Y-92800000D03*
X114800000Y-92800000D03*
D11*
X101245000Y-95910000D03*
X101245000Y-101690000D03*
D14*
X101745000Y-94480000D03*
D15*
X97565000Y-94480000D03*
D14*
X101745000Y-103120000D03*
D15*
X97565000Y-103120000D03*
D12*
X125860000Y-69350000D03*
X125860000Y-62250000D03*
X148184999Y-69350001D03*
X148184999Y-62250001D03*
D11*
X114930000Y-115400000D03*
X112390000Y-115400000D03*
X109850000Y-115400000D03*
X107310000Y-115400000D03*
X104770000Y-115400000D03*
D12*
X147684999Y-134850001D03*
X147684999Y-127750001D03*
D11*
X107660000Y-121100000D03*
X110200000Y-121100000D03*
X112740000Y-121100000D03*
D12*
X193324999Y-69350001D03*
X193324999Y-62250001D03*
D13*
X114800000Y-94400000D03*
X113400000Y-94400000D03*
D12*
X192824999Y-134850001D03*
X192824999Y-127750001D03*
D11*
X98660000Y-130700000D03*
X106260000Y-130700000D03*
D16*
X108740000Y-77750000D03*
X108740000Y-76650000D03*
X108190000Y-78300000D03*
X108190000Y-77200000D03*
X108190000Y-76100000D03*
X107640000Y-77750000D03*
X107640000Y-76650000D03*
X107090000Y-78300000D03*
X107090000Y-77200000D03*
X107090000Y-76100000D03*
X106540000Y-77750000D03*
X106540000Y-76650000D03*
M02*
