%TF.GenerationSoftware,KiCad,Pcbnew,10.0.2*%
%TF.CreationDate,2026-05-17T01:21:39+02:00*%
%TF.ProjectId,SlimeVR_Dock,536c696d-6556-4525-9f44-6f636b2e6b69,rev?*%
%TF.SameCoordinates,Original*%
%TF.FileFunction,Paste,Bot*%
%TF.FilePolarity,Positive*%
%FSLAX46Y46*%
G04 Gerber Fmt 4.6, Leading zero omitted, Abs format (unit mm)*
G04 Created by KiCad (PCBNEW 10.0.2) date 2026-05-17 01:21:39*
%MOMM*%
%LPD*%
G01*
G04 APERTURE LIST*
G04 Aperture macros list*
%AMRoundRect*
0 Rectangle with rounded corners*
0 $1 Rounding radius*
0 $2 $3 $4 $5 $6 $7 $8 $9 X,Y pos of 4 corners*
0 Add a 4 corners polygon primitive as box body*
4,1,4,$2,$3,$4,$5,$6,$7,$8,$9,$2,$3,0*
0 Add four circle primitives for the rounded corners*
1,1,$1+$1,$2,$3*
1,1,$1+$1,$4,$5*
1,1,$1+$1,$6,$7*
1,1,$1+$1,$8,$9*
0 Add four rect primitives between the rounded corners*
20,1,$1+$1,$2,$3,$4,$5,0*
20,1,$1+$1,$4,$5,$6,$7,0*
20,1,$1+$1,$6,$7,$8,$9,0*
20,1,$1+$1,$8,$9,$2,$3,0*%
G04 Aperture macros list end*
%ADD10O,2.200000X0.950000*%
%ADD11O,2.100000X1.000000*%
%ADD12O,1.800000X1.000000*%
%ADD13RoundRect,0.200000X-0.200000X-0.275000X0.200000X-0.275000X0.200000X0.275000X-0.200000X0.275000X0*%
%ADD14RoundRect,0.075000X-0.650000X-0.075000X0.650000X-0.075000X0.650000X0.075000X-0.650000X0.075000X0*%
%ADD15RoundRect,0.200000X0.200000X0.275000X-0.200000X0.275000X-0.200000X-0.275000X0.200000X-0.275000X0*%
%ADD16RoundRect,0.200000X0.275000X-0.200000X0.275000X0.200000X-0.275000X0.200000X-0.275000X-0.200000X0*%
%ADD17RoundRect,0.075000X0.650000X0.075000X-0.650000X0.075000X-0.650000X-0.075000X0.650000X-0.075000X0*%
%ADD18RoundRect,0.225000X-0.250000X0.225000X-0.250000X-0.225000X0.250000X-0.225000X0.250000X0.225000X0*%
%ADD19RoundRect,0.200000X-0.275000X0.200000X-0.275000X-0.200000X0.275000X-0.200000X0.275000X0.200000X0*%
%ADD20R,0.700000X0.700000*%
%ADD21R,1.500000X0.900000*%
%ADD22RoundRect,0.150000X0.150000X-0.587500X0.150000X0.587500X-0.150000X0.587500X-0.150000X-0.587500X0*%
%ADD23RoundRect,0.225000X-0.225000X-0.250000X0.225000X-0.250000X0.225000X0.250000X-0.225000X0.250000X0*%
%ADD24RoundRect,0.225000X0.225000X0.250000X-0.225000X0.250000X-0.225000X-0.250000X0.225000X-0.250000X0*%
%ADD25RoundRect,0.150000X-0.150000X0.825000X-0.150000X-0.825000X0.150000X-0.825000X0.150000X0.825000X0*%
%ADD26R,0.558800X0.952500*%
%ADD27RoundRect,0.150000X0.150000X-0.825000X0.150000X0.825000X-0.150000X0.825000X-0.150000X-0.825000X0*%
%ADD28RoundRect,0.150000X0.587500X0.150000X-0.587500X0.150000X-0.587500X-0.150000X0.587500X-0.150000X0*%
%ADD29RoundRect,0.218750X-0.218750X-0.256250X0.218750X-0.256250X0.218750X0.256250X-0.218750X0.256250X0*%
%ADD30C,0.350000*%
%ADD31O,1.600000X0.550000*%
%ADD32C,0.203200*%
%ADD33O,1.700000X0.600000*%
%ADD34O,1.400000X0.600000*%
%ADD35C,0.200000*%
G04 APERTURE END LIST*
D10*
%TO.C,J2*%
X125324999Y-134850001D03*
X125324999Y-127750001D03*
%TD*%
%TO.C,J6*%
X170324999Y-134850001D03*
X170324999Y-127750001D03*
%TD*%
%TO.C,J7*%
X170824999Y-69350001D03*
X170824999Y-62250001D03*
%TD*%
D11*
%TO.C,J1_MainPW1*%
X101680000Y-127249000D03*
D12*
X97500000Y-127249000D03*
D11*
X101680000Y-135889000D03*
D12*
X97500000Y-135889000D03*
%TD*%
D10*
%TO.C,J3*%
X125860000Y-69350000D03*
X125860000Y-62250000D03*
%TD*%
%TO.C,J5*%
X148184999Y-69350001D03*
X148184999Y-62250001D03*
%TD*%
%TO.C,J4*%
X147684999Y-134850001D03*
X147684999Y-127750001D03*
%TD*%
%TO.C,J9*%
X193324999Y-69350001D03*
X193324999Y-62250001D03*
%TD*%
%TO.C,J8*%
X192824999Y-134850001D03*
X192824999Y-127750001D03*
%TD*%
D13*
%TO.C,R10*%
X141475000Y-117600000D03*
X143125000Y-117600000D03*
%TD*%
D14*
%TO.C,U6*%
X130600000Y-118550000D03*
X130600000Y-118050000D03*
X130600000Y-117550000D03*
X130600000Y-117050000D03*
X130600000Y-116550000D03*
X135000000Y-116550000D03*
X135000000Y-117050000D03*
X135000000Y-117550000D03*
X135000000Y-118050000D03*
X135000000Y-118550000D03*
%TD*%
D15*
%TO.C,R51*%
X162375000Y-107300000D03*
X160725000Y-107300000D03*
%TD*%
D16*
%TO.C,R44*%
X180900000Y-107025000D03*
X180900000Y-105375000D03*
%TD*%
D17*
%TO.C,U13*%
X170000000Y-78300000D03*
X170000000Y-78800000D03*
X170000000Y-79300000D03*
X170000000Y-79800000D03*
X170000000Y-80300000D03*
X165600000Y-80300000D03*
X165600000Y-79800000D03*
X165600000Y-79300000D03*
X165600000Y-78800000D03*
X165600000Y-78300000D03*
%TD*%
D18*
%TO.C,C9*%
X188700000Y-97025000D03*
X188700000Y-98575000D03*
%TD*%
D19*
%TO.C,R47*%
X141450000Y-96825000D03*
X141450000Y-98475000D03*
%TD*%
D18*
%TO.C,C7*%
X166800000Y-97025000D03*
X166800000Y-98575000D03*
%TD*%
D20*
%TO.C,U1*%
X108740000Y-78300000D03*
X108740000Y-77200000D03*
X108740000Y-76100000D03*
X107640000Y-78300000D03*
X107640000Y-77200000D03*
X107640000Y-76100000D03*
X106540000Y-78300000D03*
X106540000Y-77200000D03*
X106540000Y-76100000D03*
D21*
X117350000Y-71000000D03*
X117350000Y-72500000D03*
X117350000Y-74000000D03*
X117350000Y-75500000D03*
X117350000Y-77000000D03*
X117350000Y-78500000D03*
X117350000Y-80000000D03*
X117350000Y-81500000D03*
X117350000Y-83000000D03*
X99850000Y-83000000D03*
X99850000Y-81500000D03*
X99850000Y-80000000D03*
X99850000Y-78500000D03*
X99850000Y-77000000D03*
X99850000Y-75500000D03*
X99850000Y-74000000D03*
X99850000Y-72500000D03*
X99850000Y-71000000D03*
%TD*%
D18*
%TO.C,C5*%
X146900000Y-96925000D03*
X146900000Y-98475000D03*
%TD*%
D13*
%TO.C,R7*%
X126475000Y-117550000D03*
X128125000Y-117550000D03*
%TD*%
%TO.C,R50*%
X155025000Y-100300000D03*
X156675000Y-100300000D03*
%TD*%
D22*
%TO.C,Q2*%
X130050000Y-94637500D03*
X128150000Y-94637500D03*
X129100000Y-92762500D03*
%TD*%
D23*
%TO.C,C17*%
X150225000Y-115400000D03*
X151775000Y-115400000D03*
%TD*%
D15*
%TO.C,R42*%
X100825000Y-106650000D03*
X99175000Y-106650000D03*
%TD*%
D19*
%TO.C,R45*%
X183020000Y-88745000D03*
X183020000Y-90395000D03*
%TD*%
D13*
%TO.C,R25*%
X135325000Y-119750000D03*
X136975000Y-119750000D03*
%TD*%
D16*
%TO.C,R5*%
X127650000Y-92025000D03*
X127650000Y-90375000D03*
%TD*%
%TO.C,R38*%
X127850000Y-98325000D03*
X127850000Y-96675000D03*
%TD*%
D15*
%TO.C,R36*%
X108612500Y-121108000D03*
X106962500Y-121108000D03*
%TD*%
D24*
%TO.C,C18*%
X165275000Y-77100000D03*
X163725000Y-77100000D03*
%TD*%
D13*
%TO.C,R33*%
X103462500Y-95910000D03*
X105112500Y-95910000D03*
%TD*%
D22*
%TO.C,Q5*%
X187250000Y-94637500D03*
X185350000Y-94637500D03*
X186300000Y-92762500D03*
%TD*%
D17*
%TO.C,U16*%
X190100000Y-78300000D03*
X190100000Y-78800000D03*
X190100000Y-79300000D03*
X190100000Y-79800000D03*
X190100000Y-80300000D03*
X185700000Y-80300000D03*
X185700000Y-79800000D03*
X185700000Y-79300000D03*
X185700000Y-78800000D03*
X185700000Y-78300000D03*
%TD*%
D15*
%TO.C,R29*%
X165325000Y-81500000D03*
X163675000Y-81500000D03*
%TD*%
D13*
%TO.C,R49*%
X182125000Y-100100000D03*
X183775000Y-100100000D03*
%TD*%
D23*
%TO.C,C2*%
X131875000Y-91150000D03*
X133425000Y-91150000D03*
%TD*%
D15*
%TO.C,R22*%
X194325000Y-79300000D03*
X192675000Y-79300000D03*
%TD*%
D23*
%TO.C,C4*%
X147225000Y-91100000D03*
X148775000Y-91100000D03*
%TD*%
%TO.C,C6*%
X167325000Y-91200000D03*
X168875000Y-91200000D03*
%TD*%
D19*
%TO.C,R9*%
X148500000Y-96875000D03*
X148500000Y-98525000D03*
%TD*%
D14*
%TO.C,U15*%
X185700000Y-118600000D03*
X185700000Y-118100000D03*
X185700000Y-117600000D03*
X185700000Y-117100000D03*
X185700000Y-116600000D03*
X190100000Y-116600000D03*
X190100000Y-117100000D03*
X190100000Y-117600000D03*
X190100000Y-118100000D03*
X190100000Y-118600000D03*
%TD*%
D23*
%TO.C,C14*%
X135325000Y-115350000D03*
X136875000Y-115350000D03*
%TD*%
D13*
%TO.C,R28*%
X150275000Y-119800000D03*
X151925000Y-119800000D03*
%TD*%
D15*
%TO.C,R46*%
X140275000Y-109400000D03*
X138625000Y-109400000D03*
%TD*%
D25*
%TO.C,U18*%
X183855000Y-102425000D03*
X185125000Y-102425000D03*
X186395000Y-102425000D03*
X187665000Y-102425000D03*
X188935000Y-102425000D03*
X190205000Y-102425000D03*
X191475000Y-102425000D03*
X192745000Y-102425000D03*
X192745000Y-107375000D03*
X191475000Y-107375000D03*
X190205000Y-107375000D03*
X188935000Y-107375000D03*
X187665000Y-107375000D03*
X186395000Y-107375000D03*
X185125000Y-107375000D03*
X183855000Y-107375000D03*
%TD*%
D13*
%TO.C,R26*%
X128575000Y-77150000D03*
X130225000Y-77150000D03*
%TD*%
%TO.C,R18*%
X106375000Y-89250000D03*
X108025000Y-89250000D03*
%TD*%
D26*
%TO.C,U5*%
X131749999Y-92750000D03*
X132700000Y-92750000D03*
X133650001Y-92750000D03*
X133650001Y-95302700D03*
X132700000Y-95302700D03*
X131749999Y-95302700D03*
%TD*%
D13*
%TO.C,R16*%
X181275000Y-117600000D03*
X182925000Y-117600000D03*
%TD*%
D17*
%TO.C,U10*%
X150300000Y-78329534D03*
X150300000Y-78829534D03*
X150300000Y-79329534D03*
X150300000Y-79829534D03*
X150300000Y-80329534D03*
X145900000Y-80329534D03*
X145900000Y-79829534D03*
X145900000Y-79329534D03*
X145900000Y-78829534D03*
X145900000Y-78329534D03*
%TD*%
D14*
%TO.C,U9*%
X145500000Y-118600000D03*
X145500000Y-118100000D03*
X145500000Y-117600000D03*
X145500000Y-117100000D03*
X145500000Y-116600000D03*
X149900000Y-116600000D03*
X149900000Y-117100000D03*
X149900000Y-117600000D03*
X149900000Y-118100000D03*
X149900000Y-118600000D03*
%TD*%
D13*
%TO.C,R2*%
X103662500Y-136287500D03*
X105312500Y-136287500D03*
%TD*%
D15*
%TO.C,R3*%
X105312500Y-134687500D03*
X103662500Y-134687500D03*
%TD*%
D27*
%TO.C,U19*%
X159145000Y-107275000D03*
X157875000Y-107275000D03*
X156605000Y-107275000D03*
X155335000Y-107275000D03*
X154065000Y-107275000D03*
X152795000Y-107275000D03*
X151525000Y-107275000D03*
X150255000Y-107275000D03*
X150255000Y-102325000D03*
X151525000Y-102325000D03*
X152795000Y-102325000D03*
X154065000Y-102325000D03*
X155335000Y-102325000D03*
X156605000Y-102325000D03*
X157875000Y-102325000D03*
X159145000Y-102325000D03*
%TD*%
D13*
%TO.C,R30*%
X170175000Y-119800000D03*
X171825000Y-119800000D03*
%TD*%
D16*
%TO.C,R11*%
X163000000Y-92025000D03*
X163000000Y-90375000D03*
%TD*%
D26*
%TO.C,U8*%
X147049999Y-92723650D03*
X148000000Y-92723650D03*
X148950001Y-92723650D03*
X148950001Y-95276350D03*
X148000000Y-95276350D03*
X147049999Y-95276350D03*
%TD*%
D18*
%TO.C,C3*%
X131750000Y-96925000D03*
X131750000Y-98475000D03*
%TD*%
D26*
%TO.C,U11*%
X167049999Y-92823650D03*
X168000000Y-92823650D03*
X168950001Y-92823650D03*
X168950001Y-95376350D03*
X168000000Y-95376350D03*
X167049999Y-95376350D03*
%TD*%
D15*
%TO.C,R19*%
X139350000Y-79350000D03*
X137700000Y-79350000D03*
%TD*%
D24*
%TO.C,C16*%
X145575000Y-77129534D03*
X144025000Y-77129534D03*
%TD*%
D15*
%TO.C,R20*%
X154625000Y-79300000D03*
X152975000Y-79300000D03*
%TD*%
D14*
%TO.C,U12*%
X165500000Y-118600000D03*
X165500000Y-118100000D03*
X165500000Y-117600000D03*
X165500000Y-117100000D03*
X165500000Y-116600000D03*
X169900000Y-116600000D03*
X169900000Y-117100000D03*
X169900000Y-117600000D03*
X169900000Y-118100000D03*
X169900000Y-118600000D03*
%TD*%
D15*
%TO.C,R17*%
X104625000Y-89250000D03*
X102975000Y-89250000D03*
%TD*%
%TO.C,R27*%
X145625000Y-81529534D03*
X143975000Y-81529534D03*
%TD*%
%TO.C,R21*%
X175025000Y-79300000D03*
X173375000Y-79300000D03*
%TD*%
D16*
%TO.C,R8*%
X143000000Y-92025000D03*
X143000000Y-90375000D03*
%TD*%
%TO.C,R4*%
X102100000Y-122475000D03*
X102100000Y-120825000D03*
%TD*%
D13*
%TO.C,R13*%
X161375000Y-117600000D03*
X163025000Y-117600000D03*
%TD*%
%TO.C,R32*%
X190375000Y-119800000D03*
X192025000Y-119800000D03*
%TD*%
D19*
%TO.C,R6*%
X133300000Y-96875000D03*
X133300000Y-98525000D03*
%TD*%
%TO.C,R52*%
X163850000Y-106925000D03*
X163850000Y-108575000D03*
%TD*%
D25*
%TO.C,U17*%
X132255000Y-102425000D03*
X133525000Y-102425000D03*
X134795000Y-102425000D03*
X136065000Y-102425000D03*
X137335000Y-102425000D03*
X138605000Y-102425000D03*
X139875000Y-102425000D03*
X141145000Y-102425000D03*
X141145000Y-107375000D03*
X139875000Y-107375000D03*
X138605000Y-107375000D03*
X137335000Y-107375000D03*
X136065000Y-107375000D03*
X134795000Y-107375000D03*
X133525000Y-107375000D03*
X132255000Y-107375000D03*
%TD*%
D19*
%TO.C,R12*%
X168400000Y-96975000D03*
X168400000Y-98625000D03*
%TD*%
D23*
%TO.C,C21*%
X190425000Y-115400000D03*
X191975000Y-115400000D03*
%TD*%
D28*
%TO.C,Q6*%
X104637500Y-97450000D03*
X104637500Y-99350000D03*
X102762500Y-98400000D03*
%TD*%
D24*
%TO.C,C15*%
X130175000Y-81550000D03*
X128625000Y-81550000D03*
%TD*%
%TO.C,C20*%
X185375000Y-77100000D03*
X183825000Y-77100000D03*
%TD*%
D22*
%TO.C,Q3*%
X145350000Y-94637500D03*
X143450000Y-94637500D03*
X144400000Y-92762500D03*
%TD*%
D17*
%TO.C,U7*%
X134900000Y-78350000D03*
X134900000Y-78850000D03*
X134900000Y-79350000D03*
X134900000Y-79850000D03*
X134900000Y-80350000D03*
X130500000Y-80350000D03*
X130500000Y-79850000D03*
X130500000Y-79350000D03*
X130500000Y-78850000D03*
X130500000Y-78350000D03*
%TD*%
D16*
%TO.C,R14*%
X184900000Y-92025000D03*
X184900000Y-90375000D03*
%TD*%
D26*
%TO.C,U14*%
X188949999Y-92823650D03*
X189900000Y-92823650D03*
X190850001Y-92823650D03*
X190850001Y-95376350D03*
X189900000Y-95376350D03*
X188949999Y-95376350D03*
%TD*%
D15*
%TO.C,R48*%
X181925000Y-103550000D03*
X180275000Y-103550000D03*
%TD*%
D19*
%TO.C,R43*%
X139350000Y-98725000D03*
X139350000Y-100375000D03*
%TD*%
D23*
%TO.C,C8*%
X189125000Y-91200000D03*
X190675000Y-91200000D03*
%TD*%
D19*
%TO.C,R15*%
X190300000Y-96975000D03*
X190300000Y-98625000D03*
%TD*%
D22*
%TO.C,Q4*%
X165350000Y-94637500D03*
X163450000Y-94637500D03*
X164400000Y-92762500D03*
%TD*%
D19*
%TO.C,R53*%
X179500000Y-97075000D03*
X179500000Y-98725000D03*
%TD*%
D13*
%TO.C,R31*%
X183775000Y-81500000D03*
X185425000Y-81500000D03*
%TD*%
D23*
%TO.C,C19*%
X170225000Y-115400000D03*
X171775000Y-115400000D03*
%TD*%
D29*
%TO.C,D1*%
X100412500Y-95912500D03*
X101987500Y-95912500D03*
%TD*%
D30*
X98000000Y-86940000D03*
X98000000Y-84400000D03*
X98000000Y-81860000D03*
D31*
X125324999Y-134850001D03*
X125324999Y-127750001D03*
D30*
X100550000Y-111360000D03*
X105630000Y-109200000D03*
X103090000Y-109200000D03*
X100550000Y-109200000D03*
X98010000Y-109200000D03*
D31*
X170324999Y-134850001D03*
X170324999Y-127750001D03*
D32*
X107812501Y-117729000D03*
D31*
X170824999Y-69350001D03*
X170824999Y-62250001D03*
D32*
X108612502Y-117719000D03*
X107812501Y-119019000D03*
X107812501Y-116419000D03*
X107012500Y-117719000D03*
D30*
X98000000Y-73160000D03*
X98000000Y-75700000D03*
X98000000Y-78240000D03*
D32*
X107012501Y-118429000D03*
X107012501Y-117029000D03*
D30*
X101180000Y-128679000D03*
X101180000Y-134459000D03*
D33*
X101680000Y-127249000D03*
D34*
X97500000Y-127249000D03*
D33*
X101680000Y-135889000D03*
D34*
X97500000Y-135889000D03*
D31*
X125860000Y-69350000D03*
X125860000Y-62250000D03*
X148184999Y-69350001D03*
X148184999Y-62250001D03*
D30*
X114250000Y-136030000D03*
X114250000Y-133490000D03*
X114250000Y-130950000D03*
X114250000Y-128410000D03*
D31*
X147684999Y-134850001D03*
X147684999Y-127750001D03*
D30*
X108110000Y-87100000D03*
X105570000Y-87100000D03*
X103030000Y-87100000D03*
D31*
X193324999Y-69350001D03*
X193324999Y-62250001D03*
D32*
X108612501Y-117029000D03*
X108612501Y-118429000D03*
D31*
X192824999Y-134850001D03*
X192824999Y-127750001D03*
D30*
X102400000Y-93700000D03*
X102400000Y-101300000D03*
D35*
X108740000Y-77750000D03*
X108740000Y-76650000D03*
X108190000Y-78300000D03*
X108190000Y-77200000D03*
X108190000Y-76100000D03*
X107640000Y-77750000D03*
X107640000Y-76650000D03*
X107090000Y-78300000D03*
X107090000Y-77200000D03*
X107090000Y-76100000D03*
X106540000Y-77750000D03*
X106540000Y-76650000D03*
M02*
