%TF.GenerationSoftware,KiCad,Pcbnew,10.0.2*%
%TF.CreationDate,2026-05-16T23:28:25+02:00*%
%TF.ProjectId,SlimeVR_Dock,536c696d-6556-4525-9f44-6f636b2e6b69,rev?*%
%TF.SameCoordinates,Original*%
%TF.FileFunction,Profile,NP*%
%FSLAX46Y46*%
G04 Gerber Fmt 4.6, Leading zero omitted, Abs format (unit mm)*
G04 Created by KiCad (PCBNEW 10.0.2) date 2026-05-16 23:28:25*
%MOMM*%
%LPD*%
G01*
G04 APERTURE LIST*
%TA.AperFunction,Profile*%
%ADD10C,0.050000*%
%TD*%
%ADD11C,0.350000*%
%ADD12C,0.200000*%
%ADD13O,1.600000X0.550000*%
%ADD14C,0.203200*%
%ADD15O,1.400000X0.600000*%
%ADD16O,1.700000X0.600000*%
G04 APERTURE END LIST*
D10*
X95930000Y-135400000D02*
X95930000Y-72500000D01*
X95930000Y-72500000D02*
G75*
G02*
X98430000Y-70000000I2500000J0D01*
G01*
X193430000Y-137900000D02*
X98430000Y-137900000D01*
X122717527Y-62397525D02*
G75*
G02*
X125217526Y-59900026I2499973J-2475D01*
G01*
X122712473Y-67502475D02*
X122717527Y-62397525D01*
X125217526Y-59900000D02*
X193430000Y-59900000D01*
X195930000Y-62400000D02*
X195930000Y-135400000D01*
X122712473Y-67502475D02*
G75*
G02*
X120212474Y-69999974I-2499973J2475D01*
G01*
X193430000Y-59900000D02*
G75*
G02*
X195930000Y-62400000I0J-2500000D01*
G01*
X98430000Y-70000000D02*
X120212474Y-70000000D01*
X98430000Y-137900000D02*
G75*
G02*
X95930000Y-135400000I0J2500000D01*
G01*
X195930000Y-135400000D02*
G75*
G02*
X193430000Y-137900000I-2500000J0D01*
G01*
X160500000Y-131300000D02*
G75*
G02*
X157500000Y-131300000I-1500000J0D01*
G01*
X157500000Y-131300000D02*
G75*
G02*
X160500000Y-131300000I1500000J0D01*
G01*
X138000000Y-65800000D02*
G75*
G02*
X135000000Y-65800000I-1500000J0D01*
G01*
X135000000Y-65800000D02*
G75*
G02*
X138000000Y-65800000I1500000J0D01*
G01*
X160500000Y-65800000D02*
G75*
G02*
X157500000Y-65800000I-1500000J0D01*
G01*
X157500000Y-65800000D02*
G75*
G02*
X160500000Y-65800000I1500000J0D01*
G01*
X183600000Y-131300000D02*
G75*
G02*
X180600000Y-131300000I-1500000J0D01*
G01*
X180600000Y-131300000D02*
G75*
G02*
X183600000Y-131300000I1500000J0D01*
G01*
X183600000Y-65800000D02*
G75*
G02*
X180600000Y-65800000I-1500000J0D01*
G01*
X180600000Y-65800000D02*
G75*
G02*
X183600000Y-65800000I1500000J0D01*
G01*
X138000000Y-131300000D02*
G75*
G02*
X135000000Y-131300000I-1500000J0D01*
G01*
X135000000Y-131300000D02*
G75*
G02*
X138000000Y-131300000I1500000J0D01*
G01*
D11*
X98000000Y-81860000D03*
X98000000Y-84400000D03*
X98000000Y-86940000D03*
D12*
X106540000Y-76650000D03*
X106540000Y-77750000D03*
X107090000Y-76100000D03*
X107090000Y-77200000D03*
X107090000Y-78300000D03*
X107640000Y-76650000D03*
X107640000Y-77750000D03*
X108190000Y-76100000D03*
X108190000Y-77200000D03*
X108190000Y-78300000D03*
X108740000Y-76650000D03*
X108740000Y-77750000D03*
D13*
X125324999Y-127750001D03*
X125324999Y-134850001D03*
D11*
X98010000Y-109200000D03*
X100550000Y-109200000D03*
X103090000Y-109200000D03*
X105630000Y-109200000D03*
X100550000Y-111360000D03*
D13*
X170324999Y-127750001D03*
X170324999Y-134850001D03*
D14*
X107812501Y-117729000D03*
D13*
X170824999Y-62250001D03*
X170824999Y-69350001D03*
D14*
X107012500Y-117719000D03*
X107812501Y-116419000D03*
X107812501Y-119019000D03*
X108612502Y-117719000D03*
D11*
X98000000Y-78240000D03*
X98000000Y-75700000D03*
X98000000Y-73160000D03*
D14*
X107012501Y-118429000D03*
X107012501Y-117029000D03*
D15*
X97500000Y-135889000D03*
D16*
X101680000Y-135889000D03*
D15*
X97500000Y-127249000D03*
D16*
X101680000Y-127249000D03*
D11*
X101180000Y-134459000D03*
X101180000Y-128679000D03*
D13*
X125860000Y-62250000D03*
X125860000Y-69350000D03*
X148184999Y-62250001D03*
X148184999Y-69350001D03*
D11*
X114250000Y-128410000D03*
X114250000Y-130950000D03*
X114250000Y-133490000D03*
X114250000Y-136030000D03*
D13*
X147684999Y-127750001D03*
X147684999Y-134850001D03*
D11*
X103030000Y-87100000D03*
X105570000Y-87100000D03*
X108110000Y-87100000D03*
D13*
X193324999Y-62250001D03*
X193324999Y-69350001D03*
D14*
X108612501Y-117029000D03*
X108612501Y-118429000D03*
D13*
X192824999Y-127750001D03*
X192824999Y-134850001D03*
D11*
X102400000Y-101300000D03*
X102400000Y-93700000D03*
M02*
