M48
; DRILL file KiCad 10.0.2 date 2026-05-17T21:13:29
; FORMAT={-:-/ absolute / metric / decimal}
; #@! TF.CreationDate,2026-05-17T21:13:29+02:00
; #@! TF.GenerationSoftware,Kicad,Pcbnew,10.0.2
; #@! TF.FileFunction,Plated,1,2,PTH
FMAT,2
METRIC
; #@! TA.AperFunction,Plated,PTH,ComponentDrill
T1C0.200
; #@! TA.AperFunction,Plated,PTH,ComponentDrill
T2C0.203
; #@! TA.AperFunction,Plated,PTH,ViaDrill
T3C0.300
; #@! TA.AperFunction,Plated,PTH,ComponentDrill
T4C0.550
; #@! TA.AperFunction,Plated,PTH,ComponentDrill
T5C0.600
; #@! TA.AperFunction,Plated,PTH,ViaDrill
T6C0.800
; #@! TA.AperFunction,Plated,PTH,ComponentDrill
T7C1.000
; #@! TA.AperFunction,Plated,PTH,ComponentDrill
T8C1.020
%
G90
G05
T1
X106.54Y-76.65
X106.54Y-77.75
X107.09Y-76.1
X107.09Y-77.2
X107.09Y-78.3
X107.64Y-76.65
X107.64Y-77.75
X108.19Y-76.1
X108.19Y-77.2
X108.19Y-78.3
X108.74Y-76.65
X108.74Y-77.75
T2
X107.012Y-117.719
X107.013Y-117.019
X107.013Y-118.419
X107.813Y-116.419
X107.813Y-117.719
X107.813Y-119.019
X108.613Y-117.019
X108.613Y-118.419
X108.613Y-117.719
T3
X97.0Y-99.5
X97.15Y-123.15
X97.2Y-120.7
X98.1Y-114.6
X99.0Y-114.6
X99.1Y-133.1
X99.729Y-130.129
X99.85Y-114.6
X100.3Y-106.1
X100.45Y-120.825
X100.477Y-131.759
X100.482Y-130.4
X100.5Y-88.3
X100.75Y-114.6
X101.1Y-73.2
X101.3Y-121.65
X102.75Y-114.6
X102.8Y-73.65
X102.9Y-121.65
X103.35Y-118.15
X103.35Y-133.95
X103.65Y-114.6
X104.35Y-94.15
X104.487Y-135.558
X104.75Y-122.5
X104.975Y-118.634
X105.11Y-72.25
X105.25Y-94.15
X105.401Y-117.531
X105.5Y-89.25
X105.563Y-120.108
X106.15Y-94.15
X106.25Y-113.2
X106.25Y-114.1
X106.85Y-95.85
X106.85Y-96.8
X106.888Y-128.87
X107.05Y-94.15
X107.15Y-101.2
X107.686Y-128.804
X107.75Y-95.85
X107.75Y-96.8
X107.85Y-132.65
X107.949Y-136.625
X108.087Y-122.55
X108.6Y-95.85
X108.6Y-96.8
X108.887Y-132.65
X109.25Y-89.75
X109.25Y-137.0
X109.5Y-95.85
X109.5Y-96.8
X109.5Y-99.8
X109.5Y-102.55
X109.6Y-124.45
X109.7Y-71.0
X109.85Y-72.2
X110.05Y-132.65
X110.4Y-89.8
X110.4Y-124.45
X110.486Y-136.45
X110.879Y-120.425
X111.75Y-104.25
X112.95Y-125.95
X113.2Y-120.0
X114.25Y-72.1
X114.65Y-121.65
X115.55Y-72.7
X115.85Y-125.9
X116.0Y-74.0
X117.0Y-133.0
X118.5Y-124.5
X119.0Y-131.0
X119.55Y-76.7
X120.0Y-78.5
X120.5Y-97.5
X120.5Y-99.0
X120.5Y-100.5
X120.5Y-102.0
X120.5Y-103.5
X120.5Y-116.5
X120.5Y-119.5
X120.5Y-122.5
X120.7Y-72.7
X120.8Y-95.05
X121.0Y-81.0
X121.4Y-72.049
X121.5Y-128.5
X122.615Y-113.785
X122.75Y-116.8
X123.0Y-70.6
X123.284Y-73.516
X123.35Y-114.75
X124.85Y-113.75
X125.15Y-95.7
X125.2Y-75.5
X125.5Y-96.5
X125.5Y-98.0
X125.5Y-100.0
X125.5Y-102.0
X125.5Y-104.0
X125.5Y-106.0
X125.6Y-82.0
X126.474Y-113.0
X126.479Y-116.114
X126.48Y-95.243
X126.7Y-74.2
X127.499Y-118.897
X127.5Y-120.5
X127.615Y-80.235
X127.8Y-116.3
X127.85Y-99.47
X128.35Y-108.45
X128.4Y-79.1
X129.0Y-97.9
X129.1Y-94.0
X129.2Y-132.65
X129.5Y-74.5
X129.7Y-109.4
X130.3Y-96.25
X130.35Y-65.45
X130.75Y-82.49
X130.95Y-94.15
X130.95Y-97.0
X131.3Y-113.0
X131.9Y-118.3
X132.15Y-78.35
X132.2Y-79.4
X132.25Y-113.8
X132.3Y-109.4
X132.93Y-105.97
X132.95Y-117.95
X132.982Y-112.999
X133.2Y-78.5
X133.3Y-76.7
X133.5Y-80.7
X133.5Y-100.8
X133.6Y-103.85
X133.7Y-116.5
X133.782Y-112.2
X134.5Y-91.4
X134.5Y-95.4
X134.6Y-92.4
X134.8Y-105.8
X135.3Y-81.3
X135.3Y-114.35
X135.5Y-103.8
X136.2Y-109.0
X136.3Y-81.8
X136.4Y-91.4
X136.5Y-118.15
X136.9Y-74.6
X136.9Y-77.9
X137.5Y-100.7
X137.9Y-104.1
X138.0Y-106.1
X138.6Y-100.7
X139.6Y-104.1
X140.1Y-104.8
X140.5Y-116.8
X140.5Y-118.8
X141.5Y-95.3
X141.5Y-109.4
X141.5Y-113.1
X141.5Y-116.1
X142.35Y-79.5
X142.5Y-116.3
X142.6Y-93.3
X143.0Y-78.75
X143.0Y-127.5
X143.05Y-100.3
X143.08Y-102.42
X143.3Y-109.5
X143.6Y-118.8
X143.65Y-82.493
X143.975Y-79.355
X144.0Y-72.0
X144.5Y-97.9
X145.9Y-97.1
X146.25Y-94.25
X146.3Y-100.7
X146.8Y-118.6
X147.09Y-101.82
X147.1Y-113.1
X147.2Y-82.5
X147.4Y-79.9
X147.5Y-78.17
X147.5Y-114.1
X147.7Y-112.3
X148.0Y-118.3
X148.14Y-108.98
X148.6Y-116.7
X148.8Y-74.6
X148.805Y-76.593
X149.2Y-80.8
X149.532Y-91.9
X149.7Y-91.1
X150.1Y-104.3
X150.2Y-114.3
X150.299Y-81.501
X150.35Y-100.05
X150.4Y-95.2
X150.54Y-99.04
X150.6Y-105.4
X151.3Y-118.1
X151.45Y-132.1
X151.525Y-89.9
X152.0Y-78.0
X152.45Y-65.2
X152.5Y-91.5
X152.5Y-92.6
X153.0Y-99.6
X153.4Y-111.1
X154.0Y-103.9
X154.0Y-127.5
X154.54Y-97.62
X155.9Y-82.5
X156.6Y-98.9
X156.7Y-103.9
X156.8Y-77.1
X158.55Y-100.8
X158.8Y-74.6
X159.2Y-105.3
X159.5Y-99.6
X160.4Y-77.0
X160.5Y-95.1
X160.5Y-101.6
X160.5Y-113.2
X160.5Y-116.1
X161.4Y-116.2
X161.6Y-79.8
X161.7Y-102.8
X162.3Y-116.2
X162.7Y-82.5
X162.8Y-79.0
X163.0Y-72.0
X163.0Y-124.0
X163.3Y-110.8
X163.975Y-91.807
X164.2Y-97.9
X165.3Y-97.4
X166.046Y-97.823
X166.1Y-108.8
X166.25Y-94.15
X166.8Y-117.8
X167.0Y-113.2
X167.3Y-79.5
X167.3Y-111.6
X167.5Y-78.8
X167.6Y-119.7
X168.3Y-74.6
X168.3Y-76.6
X168.7Y-102.3
X168.783Y-118.511
X169.0Y-115.6
X169.373Y-106.961
X169.8Y-92.8
X169.85Y-81.25
X170.2Y-114.3
X170.5Y-100.8
X170.5Y-104.6
X170.51Y-91.49
X170.6Y-96.1
X170.85Y-81.75
X171.1Y-118.1
X171.4Y-117.1
X172.0Y-78.1
X172.2Y-93.5
X172.4Y-117.8
X172.5Y-91.5
X172.5Y-95.6
X173.0Y-102.1
X173.87Y-101.78
X174.2Y-132.35
X174.3Y-109.2
X174.95Y-65.0
X175.5Y-82.174
X176.0Y-76.5
X177.2Y-102.3
X178.0Y-114.0
X178.1Y-102.0
X178.19Y-105.59
X180.3Y-114.0
X180.6Y-99.5
X180.999Y-104.5
X181.0Y-78.3
X181.0Y-82.174
X181.0Y-93.5
X181.0Y-94.7
X181.0Y-102.4
X181.02Y-103.6
X181.1Y-108.6
X181.7Y-74.6
X181.9Y-105.4
X182.0Y-122.0
X182.1Y-116.6
X182.7Y-96.4
X182.725Y-102.425
X182.9Y-94.9
X182.9Y-101.2
X183.0Y-78.2
X183.0Y-108.5
X183.5Y-105.6
X184.0Y-113.0
X184.0Y-121.3
X184.1Y-103.9
X184.344Y-97.544
X184.5Y-104.8
X185.8Y-85.2
X186.7Y-105.6
X187.05Y-81.251
X187.1Y-110.9
X187.3Y-119.8
X187.4Y-78.0
X187.4Y-79.5
X187.5Y-98.2
X188.0Y-109.3
X188.1Y-101.0
X188.4Y-110.1
X188.55Y-105.84
X188.6Y-119.4
X188.7Y-104.0
X189.0Y-94.2
X189.4Y-82.2
X189.5Y-71.0
X189.6Y-110.0
X189.75Y-64.6
X190.0Y-88.8
X190.0Y-105.0
X190.3Y-94.0
X190.4Y-113.1
X190.7Y-90.1
X190.9Y-82.0
X191.3Y-83.3
X191.4Y-108.9
X191.5Y-118.1
X191.7Y-117.1
X191.9Y-77.0
X192.2Y-81.2
X192.2Y-90.8
X192.4Y-110.1
X192.474Y-104.594
X192.8Y-100.7
X193.5Y-114.6
X193.7Y-94.5
X194.0Y-125.85
X194.2Y-97.1
X195.0Y-122.4
T6
X113.1Y-93.9
X131.75Y-90.15
X147.1Y-90.2
X167.044Y-90.163
X188.45Y-89.35
T7
X98.0Y-73.16
X98.0Y-75.7
X98.0Y-78.24
X98.0Y-81.86
X98.0Y-84.4
X98.0Y-86.94
X102.4Y-93.7
X102.4Y-101.3
X103.03Y-87.1
X105.57Y-87.1
X108.11Y-87.1
X114.25Y-128.41
X114.25Y-130.95
X114.25Y-133.49
X114.25Y-136.03
T8
X98.01Y-109.2
X100.55Y-109.2
X103.09Y-109.2
X105.63Y-109.2
T4
G00X125.85Y-127.75
M15
G01X124.8Y-127.75
M16
G05
G00X125.85Y-134.85
M15
G01X124.8Y-134.85
M16
G05
G00X126.385Y-62.25
M15
G01X125.335Y-62.25
M16
G05
G00X126.385Y-69.35
M15
G01X125.335Y-69.35
M16
G05
G00X148.21Y-127.75
M15
G01X147.16Y-127.75
M16
G05
G00X148.21Y-134.85
M15
G01X147.16Y-134.85
M16
G05
G00X148.71Y-62.25
M15
G01X147.66Y-62.25
M16
G05
G00X148.71Y-69.35
M15
G01X147.66Y-69.35
M16
G05
G00X170.85Y-127.75
M15
G01X169.8Y-127.75
M16
G05
G00X170.85Y-134.85
M15
G01X169.8Y-134.85
M16
G05
G00X171.35Y-62.25
M15
G01X170.3Y-62.25
M16
G05
G00X171.35Y-69.35
M15
G01X170.3Y-69.35
M16
G05
G00X193.35Y-127.75
M15
G01X192.3Y-127.75
M16
G05
G00X193.35Y-134.85
M15
G01X192.3Y-134.85
M16
G05
G00X193.85Y-62.25
M15
G01X192.8Y-62.25
M16
G05
G00X193.85Y-69.35
M15
G01X192.8Y-69.35
M16
G05
T5
G00X97.9Y-127.249
M15
G01X97.1Y-127.249
M16
G05
G00X97.9Y-135.889
M15
G01X97.1Y-135.889
M16
G05
G00X102.23Y-127.249
M15
G01X101.13Y-127.249
M16
G05
G00X102.23Y-135.889
M15
G01X101.13Y-135.889
M16
G05
M30
