M48
; DRILL file KiCad 10.0.2 date 2026-05-12T16:12:52
; FORMAT={-:-/ absolute / metric / decimal}
; #@! TF.CreationDate,2026-05-12T16:12:52+02:00
; #@! TF.GenerationSoftware,Kicad,Pcbnew,10.0.2
; #@! TF.FileFunction,Plated,1,2,PTH
FMAT,2
METRIC
; #@! TA.AperFunction,Plated,PTH,ComponentDrill
T1C0.200
; #@! TA.AperFunction,Plated,PTH,ComponentDrill
T2C0.203
; #@! TA.AperFunction,Plated,PTH,ViaDrill
T3C0.300
; #@! TA.AperFunction,Plated,PTH,ComponentDrill
T4C0.550
; #@! TA.AperFunction,Plated,PTH,ComponentDrill
T5C0.600
; #@! TA.AperFunction,Plated,PTH,ViaDrill
T6C0.800
; #@! TA.AperFunction,Plated,PTH,ComponentDrill
T7C1.000
; #@! TA.AperFunction,Plated,PTH,ComponentDrill
T8C1.020
%
G90
G05
T1
X106.54Y-76.65
X106.54Y-77.75
X107.09Y-76.1
X107.09Y-77.2
X107.09Y-78.3
X107.64Y-76.65
X107.64Y-77.75
X108.19Y-76.1
X108.19Y-77.2
X108.19Y-78.3
X108.74Y-76.65
X108.74Y-77.75
T2
X112.8Y-93.6
X113.4Y-92.8
X113.4Y-94.4
X114.1Y-92.8
X114.1Y-93.6
X114.1Y-94.4
X114.8Y-92.8
X114.8Y-94.4
X115.4Y-93.6
T3
X97.1Y-114.1
X97.6Y-136.5
X98.67Y-100.9
X98.92Y-99.8
X99.7Y-110.1
X100.05Y-105.75
X100.17Y-98.731
X100.5Y-88.3
X100.708Y-106.205
X100.903Y-100.038
X101.005Y-100.848
X101.02Y-97.4
X101.1Y-73.2
X101.35Y-75.5
X102.8Y-73.65
X102.95Y-83.5
X103.3Y-111.9
X103.8Y-106.1
X103.9Y-94.2
X107.0Y-83.2
X107.5Y-89.2
X107.55Y-97.95
X108.162Y-107.1
X108.162Y-108.1
X109.3Y-74.95
X109.4Y-110.35
X109.5Y-91.0
X109.7Y-71.0
X109.7Y-125.8
X109.8Y-83.2
X109.85Y-72.2
X110.0Y-93.2
X110.2Y-124.85
X110.2Y-126.6
X111.74Y-117.05
X111.85Y-82.55
X111.95Y-101.6
X112.8Y-84.9
X113.3Y-96.4
X113.5Y-74.9
X113.629Y-117.049
X114.1Y-88.6
X114.25Y-72.1
X114.276Y-96.524
X114.5Y-108.8
X114.5Y-126.1
X114.8Y-98.975
X115.089Y-96.937
X115.25Y-83.2
X115.5Y-103.45
X115.55Y-72.7
X115.8Y-96.55
X115.9Y-79.45
X115.95Y-75.4
X116.0Y-74.0
X116.001Y-99.918
X116.3Y-102.025
X116.362Y-91.949
X116.45Y-89.5
X117.089Y-91.161
X117.15Y-106.6
X117.25Y-93.3
X117.25Y-94.6
X117.8Y-91.9
X118.5Y-88.5
X118.6Y-94.5
X118.651Y-81.5
X119.1Y-90.7
X119.147Y-92.8
X119.5Y-77.7
X119.55Y-76.7
X120.452Y-81.775
X120.7Y-72.7
X121.15Y-80.6
X121.15Y-74.931
X121.4Y-72.049
X123.0Y-70.6
X123.284Y-73.516
X125.2Y-75.5
X125.6Y-82.0
X125.6Y-107.3
X126.474Y-113.0
X126.479Y-116.114
X126.48Y-95.243
X126.7Y-74.2
X127.615Y-80.235
X127.8Y-116.3
X128.35Y-108.45
X128.4Y-79.1
X129.0Y-97.9
X129.1Y-94.0
X129.7Y-109.4
X129.9Y-114.9
X130.1Y-96.3
X130.95Y-94.15
X130.95Y-97.0
X131.3Y-113.0
X132.15Y-78.35
X132.2Y-79.4
X132.3Y-109.4
X132.9Y-114.0
X132.95Y-117.95
X132.982Y-112.999
X133.3Y-76.7
X133.5Y-80.7
X133.5Y-100.8
X133.6Y-103.85
X133.7Y-116.5
X133.782Y-112.2
X134.5Y-91.4
X134.5Y-95.4
X134.6Y-92.4
X134.8Y-105.8
X135.3Y-81.3
X135.3Y-114.35
X135.5Y-103.8
X136.2Y-109.0
X136.3Y-81.8
X136.4Y-91.4
X136.5Y-118.15
X136.9Y-74.6
X136.9Y-77.9
X137.5Y-100.7
X137.9Y-104.09
X138.0Y-106.1
X138.6Y-100.7
X139.6Y-104.1
X140.1Y-104.8
X140.5Y-116.8
X140.5Y-118.8
X141.5Y-95.3
X141.5Y-113.1
X141.5Y-116.1
X142.35Y-79.5
X142.5Y-116.3
X142.6Y-93.3
X143.0Y-78.75
X143.3Y-109.5
X143.6Y-118.8
X143.975Y-79.355
X144.5Y-97.9
X145.2Y-115.6
X145.9Y-97.1
X146.25Y-94.25
X146.3Y-100.7
X147.1Y-113.1
X147.4Y-79.9
X147.5Y-114.1
X147.7Y-112.3
X148.0Y-118.3
X148.6Y-116.7
X148.8Y-74.6
X148.805Y-76.593
X149.2Y-81.3
X149.532Y-91.9
X149.7Y-91.1
X150.1Y-81.7
X150.1Y-104.3
X150.2Y-114.3
X150.35Y-100.05
X150.4Y-95.2
X150.6Y-105.4
X151.3Y-118.1
X151.525Y-89.9
X152.0Y-78.0
X152.5Y-91.2
X152.5Y-92.6
X153.0Y-99.6
X153.4Y-111.1
X154.0Y-103.9
X156.6Y-98.9
X156.7Y-103.9
X156.8Y-77.1
X158.55Y-100.8
X158.8Y-74.6
X159.2Y-105.3
X159.5Y-99.6
X160.4Y-77.0
X160.5Y-95.1
X160.5Y-101.6
X160.5Y-113.2
X160.5Y-116.1
X161.4Y-116.2
X161.6Y-80.5
X161.7Y-102.8
X162.3Y-116.2
X162.8Y-79.0
X163.3Y-110.8
X163.975Y-91.807
X164.2Y-97.9
X165.3Y-97.4
X166.046Y-97.823
X166.1Y-108.8
X166.25Y-94.15
X166.8Y-117.8
X167.0Y-113.2
X167.3Y-79.5
X167.3Y-111.6
X167.5Y-78.8
X167.6Y-119.7
X168.3Y-74.6
X168.3Y-76.6
X168.7Y-102.3
X168.783Y-118.511
X169.0Y-115.6
X169.373Y-106.961
X169.8Y-92.8
X169.85Y-81.25
X170.2Y-114.3
X170.5Y-91.2
X170.5Y-100.8
X170.5Y-104.6
X170.6Y-96.1
X170.85Y-81.75
X171.1Y-118.1
X171.4Y-117.1
X172.0Y-78.1
X172.2Y-93.5
X172.5Y-91.2
X172.5Y-95.6
X173.0Y-102.1
X174.3Y-109.2
X175.5Y-82.174
X176.0Y-76.5
X177.2Y-102.3
X178.1Y-102.0
X180.3Y-114.0
X180.6Y-99.5
X181.0Y-78.3
X181.0Y-82.174
X181.0Y-93.5
X181.0Y-94.7
X181.0Y-102.4
X181.1Y-103.6
X181.1Y-104.5
X181.1Y-108.6
X181.7Y-74.6
X181.9Y-105.4
X182.1Y-116.6
X182.7Y-96.4
X182.7Y-102.4
X182.9Y-94.9
X182.9Y-101.2
X183.0Y-78.2
X183.5Y-105.6
X184.0Y-121.3
X184.1Y-103.9
X184.3Y-113.4
X184.344Y-97.544
X184.5Y-104.8
X185.2Y-89.0
X186.7Y-105.6
X187.05Y-81.251
X187.1Y-110.9
X187.3Y-116.6
X187.3Y-119.8
X187.4Y-79.5
X187.5Y-98.2
X188.0Y-109.3
X188.1Y-101.0
X188.4Y-110.1
X188.5Y-119.3
X188.7Y-104.0
X189.0Y-94.2
X189.4Y-82.2
X189.6Y-110.0
X190.0Y-88.8
X190.0Y-105.0
X190.3Y-94.0
X190.4Y-113.1
X190.7Y-90.1
X190.9Y-82.0
X191.3Y-83.3
X191.4Y-108.9
X191.5Y-118.1
X191.7Y-117.1
X191.9Y-77.0
X192.2Y-81.2
X192.2Y-90.8
X192.4Y-110.1
X192.474Y-104.594
X192.8Y-100.7
X193.7Y-94.5
X194.2Y-97.1
X195.0Y-122.4
T6
X131.75Y-90.15
X147.1Y-90.2
X167.044Y-90.163
X188.45Y-89.35
T7
X98.0Y-73.16
X98.0Y-75.7
X98.0Y-78.24
X98.0Y-81.86
X98.0Y-84.4
X98.0Y-86.94
X98.66Y-130.7
X104.77Y-115.4
X106.26Y-130.7
X107.31Y-115.4
X107.66Y-121.1
X109.85Y-115.4
X110.2Y-121.1
X112.39Y-115.4
X112.74Y-121.1
X114.93Y-115.4
T8
X99.0Y-114.88
X99.0Y-117.42
X99.0Y-119.96
X99.0Y-122.5
T4
G00X125.85Y-127.75
M15
G01X124.8Y-127.75
M16
G05
G00X125.85Y-134.85
M15
G01X124.8Y-134.85
M16
G05
G00X126.385Y-62.25
M15
G01X125.335Y-62.25
M16
G05
G00X126.385Y-69.35
M15
G01X125.335Y-69.35
M16
G05
G00X148.21Y-127.75
M15
G01X147.16Y-127.75
M16
G05
G00X148.21Y-134.85
M15
G01X147.16Y-134.85
M16
G05
G00X148.71Y-62.25
M15
G01X147.66Y-62.25
M16
G05
G00X148.71Y-69.35
M15
G01X147.66Y-69.35
M16
G05
G00X170.85Y-127.75
M15
G01X169.8Y-127.75
M16
G05
G00X170.85Y-134.85
M15
G01X169.8Y-134.85
M16
G05
G00X171.35Y-62.25
M15
G01X170.3Y-62.25
M16
G05
G00X171.35Y-69.35
M15
G01X170.3Y-69.35
M16
G05
G00X193.35Y-127.75
M15
G01X192.3Y-127.75
M16
G05
G00X193.35Y-134.85
M15
G01X192.3Y-134.85
M16
G05
G00X193.85Y-62.25
M15
G01X192.8Y-62.25
M16
G05
G00X193.85Y-69.35
M15
G01X192.8Y-69.35
M16
G05
T5
G00X97.965Y-94.48
M15
G01X97.165Y-94.48
M16
G05
G00X97.965Y-103.12
M15
G01X97.165Y-103.12
M16
G05
G00X102.295Y-94.48
M15
G01X101.195Y-94.48
M16
G05
G00X102.295Y-103.12
M15
G01X101.195Y-103.12
M16
G05
M30
